<?xml version="1.0" encoding="UTF-8"?> <svg xmlns="http://www.w3.org/2000/svg" width="642" height="290" viewBox="0 0 642 290" fill="none"> <rect width="642" height="290" rx="30" fill="#3983EC"></rect> <mask id="mask0" maskUnits="userSpaceOnUse" x="0" y="0" width="642" height="290"> <rect width="642" height="290" rx="30" fill="#3983EC"></rect> </mask> <g mask="url(#mask0)"> <g filter="url(#filter0_ddi)"> <path fill-rule="evenodd" clip-rule="evenodd" d="M379 49.3681C379 30.3871 394.387 15 413.368 15H568.632C587.613 15 603 30.3871 603 49.3681V432.632C603 451.613 587.613 467 568.632 467H413.368C394.387 467 379 451.613 379 432.632V49.3681Z" fill="white"></path> </g> <path fill-rule="evenodd" clip-rule="evenodd" d="M393 258.232V138.133V433.158C393 444.027 401.971 453 412.861 453H569.139C580.029 453 589 444.027 589 433.158V254.054V48.8424C589 37.9728 580.029 29 569.139 29H548.743C547.017 29 545.619 30.3988 545.619 32.1244V32.6552C545.792 39.6756 540.185 45.2836 533.075 45.1872H448.403C441.189 45.2836 435.581 39.6756 435.859 32.6552V32.1244C435.859 30.3988 434.46 29 432.734 29H430.632H425.405H420.701C420.553 29 418.048 29 412.861 29C401.971 29 393 37.9728 393 48.8424V140.744" fill="#FBFBFB"></path> <path fill-rule="evenodd" clip-rule="evenodd" d="M393 258.232V138.133V433.158C393 444.027 401.971 453 412.861 453H569.139C580.029 453 589 444.027 589 433.158V254.054V48.8424C589 37.9728 580.029 29 569.139 29H548.743C547.017 29 545.619 30.3988 545.619 32.1244V32.6552C545.792 39.6756 540.185 45.2836 533.075 45.1872H448.403C441.189 45.2836 435.581 39.6756 435.859 32.6552V32.1244C435.859 30.3988 434.46 29 432.734 29H430.632H425.405H420.701C420.553 29 418.048 29 412.861 29C401.971 29 393 37.9728 393 48.8424V140.744" fill="#F7F7F7"></path> <path d="M577.995 289H404.005C401.236 289 399 286.566 399 283.551V64.4486C399 61.4345 401.236 59 404.005 59H577.995C580.764 59 583 61.4345 583 64.4486V283.551C583 286.566 580.764 289 577.995 289Z" fill="white"></path> <path d="M467.5 157.5L485.5 181.5" stroke="white" stroke-width="3" stroke-linecap="square"></path> <path fill-rule="evenodd" clip-rule="evenodd" d="M428 202C431.866 202 435 198.866 435 195C435 191.134 431.866 188 428 188C424.134 188 421 191.134 421 195C421 198.866 424.134 202 428 202Z" fill="white"></path> <path fill-rule="evenodd" clip-rule="evenodd" d="M467 165C470.866 165 474 161.866 474 158C474 154.134 470.866 151 467 151C463.134 151 460 154.134 460 158C460 161.866 463.134 165 467 165Z" fill="white"></path> <path fill-rule="evenodd" clip-rule="evenodd" d="M485 188C488.866 188 492 184.866 492 181C492 177.134 488.866 174 485 174C481.134 174 478 177.134 478 181C478 184.866 481.134 188 485 188Z" fill="white"></path> <path fill-rule="evenodd" clip-rule="evenodd" d="M554 136C557.866 136 561 132.866 561 129C561 125.134 557.866 122 554 122C550.134 122 547 125.134 547 129C547 132.866 550.134 136 554 136Z" fill="white"></path> <path d="M428.5 194.5L467.5 157.5" stroke="white" stroke-width="3" stroke-linecap="square"></path> <path d="M484.5 181.5L554.55 128.5" stroke="white" stroke-width="3" stroke-linecap="square"></path> <path d="M578.003 290H404.071C401.306 290 399.074 287.554 399.074 284.526V64.1598C399.074 61.1315 401.306 58.6855 404.071 58.6855H578.003C580.767 58.6855 583 61.1315 583 64.1598V284.526C583 287.554 580.767 290 578.003 290Z" fill="white"></path> <rect x="409.115" y="151.311" width="44.8249" height="15.4569" rx="4" fill="#3F8DF6"></rect> <rect x="409.115" y="192.528" width="37.6117" height="15.4569" rx="4" fill="#3F8DF6"></rect> <rect x="409.115" y="213.138" width="49.4619" height="15.4569" rx="4" fill="#3F8DF6"></rect> <rect x="451.879" y="233.746" width="69.5558" height="15.4569" rx="4" fill="#3F8DF6"></rect> <rect x="513.707" y="213.138" width="59.2513" height="15.4569" rx="4" fill="#3F8DF6"></rect> <rect x="451.879" y="192.528" width="37.6117" height="15.4569" rx="4" fill="#3F8DF6"></rect> <rect x="494.643" y="192.528" width="37.6117" height="15.4569" rx="4" fill="#3F8DF6"></rect> <rect x="537.407" y="192.528" width="35.5508" height="15.4569" rx="4" fill="#3F8DF6"></rect> <rect x="527.102" y="233.746" width="45.8553" height="15.4569" rx="4" fill="#3F8DF6"></rect> <rect x="409.115" y="171.919" width="57.1903" height="15.4569" rx="4" fill="#D8E8FD"></rect> <rect x="486.945" y="84.7354" width="80.1045" height="9.76884" rx="4" fill="#D8E8FD"></rect> <rect x="486.945" y="97.7617" width="59.9156" height="9.76884" rx="4" fill="#D8E8FD"></rect> <rect x="463.729" y="213.138" width="44.8249" height="15.4569" rx="4" fill="#D8E8FD"></rect> <rect x="409.115" y="233.746" width="37.6117" height="15.4569" rx="4" fill="#D8E8FD"></rect> <rect x="409.115" y="254.355" width="42.764" height="15.4569" rx="4" fill="#D8E8FD"></rect> <rect x="457.031" y="254.355" width="42.764" height="15.4569" rx="4" fill="#D8E8FD"></rect> <rect x="539.468" y="171.919" width="33.4898" height="15.4569" rx="4" fill="#D8E8FD"></rect> <rect x="413.237" y="156.978" width="26.7919" height="4.12183" rx="2" fill="#D8E8FD"></rect> <rect x="413.237" y="198.195" width="19.5787" height="4.12183" rx="2" fill="#D8E8FD"></rect> <rect x="413.237" y="218.805" width="31.4289" height="4.12183" rx="2" fill="#D8E8FD"></rect> <rect x="456.001" y="239.414" width="51.5228" height="4.12183" rx="2" fill="#D8E8FD"></rect> <rect x="517.828" y="218.805" width="41.2183" height="4.12183" rx="2" fill="#D8E8FD"></rect> <rect x="456.001" y="198.195" width="19.5787" height="4.12183" rx="2" fill="#D8E8FD"></rect> <rect x="498.765" y="198.195" width="19.5787" height="4.12183" rx="2" fill="#D8E8FD"></rect> <rect x="541.529" y="198.195" width="17.5178" height="4.12183" rx="2" fill="#D8E8FD"></rect> <rect x="531.224" y="239.414" width="27.8223" height="4.12183" rx="2" fill="#D8E8FD"></rect> <rect x="413.237" y="177.587" width="39.1574" height="4.12183" rx="2" fill="#3F8DF6"></rect> <rect x="467.851" y="218.805" width="26.7919" height="4.12183" rx="2" fill="#3F8DF6"></rect> <rect x="413.237" y="239.414" width="19.5787" height="4.12183" rx="2" fill="#3F8DF6"></rect> <rect x="413.237" y="260.023" width="24.731" height="4.12183" rx="2" fill="#3F8DF6"></rect> <rect x="461.153" y="260.023" width="24.731" height="4.12183" rx="2" fill="#3F8DF6"></rect> <rect x="543.59" y="177.587" width="15.4569" height="4.12183" rx="2" fill="#3F8DF6"></rect> <rect x="443.95" y="155.576" width="7.72843" height="2.06091" rx="1.03046" transform="rotate(45 443.95 155.576)" fill="#D8E8FD"></rect> <rect x="449.415" y="157.033" width="7.72843" height="2.06091" rx="1.03046" transform="rotate(135 449.415 157.033)" fill="#D8E8FD"></rect> <rect x="436.737" y="196.796" width="7.72843" height="2.06091" rx="1.03046" transform="rotate(45 436.737 196.796)" fill="#D8E8FD"></rect> <rect x="442.202" y="198.253" width="7.72843" height="2.06091" rx="1.03046" transform="rotate(135 442.202 198.253)" fill="#D8E8FD"></rect> <rect x="448.587" y="217.404" width="7.72843" height="2.06091" rx="1.03046" transform="rotate(45 448.587 217.404)" fill="#D8E8FD"></rect> <rect x="454.052" y="218.861" width="7.72843" height="2.06091" rx="1.03046" transform="rotate(135 454.052 218.861)" fill="#D8E8FD"></rect> <rect x="511.445" y="238.014" width="7.72843" height="2.06091" rx="1.03046" transform="rotate(45 511.445 238.014)" fill="#D8E8FD"></rect> <rect x="516.91" y="239.471" width="7.72843" height="2.06091" rx="1.03046" transform="rotate(135 516.91 239.471)" fill="#D8E8FD"></rect> <rect x="562.968" y="217.404" width="7.72843" height="2.06091" rx="1.03046" transform="rotate(45 562.968 217.404)" fill="#D8E8FD"></rect> <rect x="568.433" y="218.861" width="7.72843" height="2.06091" rx="1.03046" transform="rotate(135 568.433 218.861)" fill="#D8E8FD"></rect> <rect x="479.501" y="196.796" width="7.72843" height="2.06091" rx="1.03046" transform="rotate(45 479.501 196.796)" fill="#D8E8FD"></rect> <rect x="484.966" y="198.253" width="7.72843" height="2.06091" rx="1.03046" transform="rotate(135 484.966 198.253)" fill="#D8E8FD"></rect> <rect x="522.265" y="196.796" width="7.72843" height="2.06091" rx="1.03046" transform="rotate(45 522.265 196.796)" fill="#D8E8FD"></rect> <rect x="527.729" y="198.253" width="7.72843" height="2.06091" rx="1.03046" transform="rotate(135 527.729 198.253)" fill="#D8E8FD"></rect> <rect x="562.968" y="196.796" width="7.72843" height="2.06091" rx="1.03046" transform="rotate(45 562.968 196.796)" fill="#D8E8FD"></rect> <rect x="568.433" y="198.253" width="7.72843" height="2.06091" rx="1.03046" transform="rotate(135 568.433 198.253)" fill="#D8E8FD"></rect> <rect x="562.968" y="238.014" width="7.72843" height="2.06091" rx="1.03046" transform="rotate(45 562.968 238.014)" fill="#D8E8FD"></rect> <rect x="568.433" y="239.471" width="7.72843" height="2.06091" rx="1.03046" transform="rotate(135 568.433 239.471)" fill="#D8E8FD"></rect> <rect x="456.316" y="176.186" width="7.72843" height="2.06091" rx="1.03046" transform="rotate(45 456.316 176.186)" fill="#3F8DF6"></rect> <rect x="461.781" y="177.643" width="7.72843" height="2.06091" rx="1.03046" transform="rotate(135 461.781 177.643)" fill="#3F8DF6"></rect> <rect x="498.564" y="217.404" width="7.72843" height="2.06091" rx="1.03046" transform="rotate(45 498.564 217.404)" fill="#3F8DF6"></rect> <rect x="504.029" y="218.861" width="7.72843" height="2.06091" rx="1.03046" transform="rotate(135 504.029 218.861)" fill="#3F8DF6"></rect> <rect x="436.737" y="238.014" width="7.72843" height="2.06091" rx="1.03046" transform="rotate(45 436.737 238.014)" fill="#3F8DF6"></rect> <rect x="442.202" y="239.471" width="7.72843" height="2.06091" rx="1.03046" transform="rotate(135 442.202 239.471)" fill="#3F8DF6"></rect> <rect x="441.889" y="258.622" width="7.72843" height="2.06091" rx="1.03046" transform="rotate(45 441.889 258.622)" fill="#3F8DF6"></rect> <rect x="447.354" y="260.079" width="7.72843" height="2.06091" rx="1.03046" transform="rotate(135 447.354 260.079)" fill="#3F8DF6"></rect> <rect x="489.806" y="258.622" width="7.72843" height="2.06091" rx="1.03046" transform="rotate(45 489.806 258.622)" fill="#3F8DF6"></rect> <rect x="495.271" y="260.079" width="7.72843" height="2.06091" rx="1.03046" transform="rotate(135 495.271 260.079)" fill="#3F8DF6"></rect> <rect x="562.968" y="176.186" width="7.72843" height="2.06091" rx="1.03046" transform="rotate(45 562.968 176.186)" fill="#3F8DF6"></rect> <rect x="568.433" y="177.643" width="7.72843" height="2.06091" rx="1.03046" transform="rotate(135 568.433 177.643)" fill="#3F8DF6"></rect> <rect x="459.092" y="151.311" width="67.4949" height="15.4569" rx="4" fill="#3F8DF6"></rect> <rect x="463.214" y="156.978" width="49.4619" height="4.12183" rx="2" fill="#D8E8FD"></rect> <rect x="516.233" y="155.213" width="8.75888" height="2.06091" rx="1.03046" transform="rotate(45 516.233 155.213)" fill="#D8E8FD"></rect> <rect x="522.427" y="156.67" width="8.75888" height="2.06091" rx="1.03046" transform="rotate(135 522.427 156.67)" fill="#D8E8FD"></rect> <rect x="471.458" y="171.919" width="62.8579" height="15.4569" rx="4" fill="#3F8DF6"></rect> <rect x="475.58" y="177.587" width="44.8249" height="4.12183" rx="2" fill="#D8E8FD"></rect> <rect x="524.326" y="176.186" width="7.72843" height="2.06091" rx="1.03046" transform="rotate(45 524.326 176.186)" fill="#D8E8FD"></rect> <rect x="529.791" y="177.643" width="7.72843" height="2.06091" rx="1.03046" transform="rotate(135 529.791 177.643)" fill="#D8E8FD"></rect> <rect x="531.74" y="151.311" width="41.2183" height="15.4569" rx="4" fill="#3F8DF6"></rect> <rect x="535.862" y="156.979" width="23.1853" height="4.12183" rx="2" fill="#D8E8FD"></rect> <rect x="562.968" y="155.578" width="7.72843" height="2.06091" rx="1.03046" transform="rotate(45 562.968 155.578)" fill="#D8E8FD"></rect> <rect x="568.433" y="157.035" width="7.72843" height="2.06091" rx="1.03046" transform="rotate(135 568.433 157.035)" fill="#D8E8FD"></rect> <path fill-rule="evenodd" clip-rule="evenodd" d="M438.118 136.869C455.031 136.869 468.743 123.157 468.743 106.243C468.743 89.3296 455.031 75.6182 438.118 75.6182C421.204 75.6182 407.492 89.3296 407.492 106.243C407.492 123.157 421.204 136.869 438.118 136.869Z" fill="#D8E8FD"></path> <mask id="mask1" maskUnits="userSpaceOnUse" x="407" y="75" width="62" height="62"> <path fill-rule="evenodd" clip-rule="evenodd" d="M438.117 136.869C455.031 136.869 468.743 123.157 468.743 106.243C468.743 89.3296 455.031 75.6182 438.117 75.6182C421.203 75.6182 407.492 89.3296 407.492 106.243C407.492 123.157 421.203 136.869 438.117 136.869Z" fill="#D8E8FD"></path> </mask> <g mask="url(#mask1)"> <path fill-rule="evenodd" clip-rule="evenodd" d="M437.117 183.734C437.789 184.731 437.141 186.036 435.175 187.649C433.208 189.261 431.824 189.767 431.022 189.165L430.626 188.773C432.021 188.887 433.391 188.247 434.738 186.855C435.326 186.26 435.791 185.695 436.131 185.157C436.381 184.68 436.551 184.214 436.639 183.759C436.679 183.556 436.688 183.375 436.667 183.213L437.117 183.734ZM439.288 153.123L438.194 156.927L432.782 175.251L432.298 176.929L424.181 166.845L424.635 165.319L426.198 159.912L426.919 157.414C427.365 155.663 427.76 153.967 428.105 152.328C428.077 156.523 427.325 161.339 425.848 166.775L432.751 175.206C437.539 155.841 440.845 140.049 442.669 127.828L444.114 124.446C444.099 125.467 444.047 126.546 443.957 127.684C443.336 135.466 441.78 143.946 439.288 153.123V153.123ZM483.962 135.736L483.04 136.227C483.049 136.045 483.093 135.883 483.174 135.741C483.258 135.442 483.446 135.216 483.738 135.063L483.776 135.07L483.822 135.04C484.164 134.896 484.534 134.955 484.929 135.215L483.962 135.736ZM480.26 136.553L481.462 136.038C481.476 137.721 481.872 139.268 482.647 140.679L481.525 141.997C481.351 141.674 481.185 141.314 481.026 140.916C480.319 139.019 480.064 137.565 480.26 136.553V136.553ZM401.211 189.83C400.543 189.49 399.957 189.127 399.455 188.74C397.548 187.346 396.84 185.79 397.331 184.074C397.666 184.376 398.041 184.672 398.457 184.963C398.787 185.158 399.139 185.371 399.514 185.601C399.945 185.817 400.413 186.038 400.92 186.268C401.041 186.318 401.162 186.368 401.284 186.418C401.675 186.573 402.064 186.727 402.454 186.882C406.063 188.161 409.28 188.353 412.104 187.458L418.776 185.132L419.677 182.117L420.377 179.733L425.55 184.913C424.977 185.3 424.448 185.722 423.966 186.18L420.942 183.308L419.747 186.62L409.024 189.734C406.509 189.849 404.119 189.385 401.855 188.341L401.211 189.83Z" fill="#8BB8CC"></path> <path fill-rule="evenodd" clip-rule="evenodd" d="M448.137 99.9054C448.283 100.905 448.525 101.622 448.861 102.055L448.339 102.308C448.207 102.046 447.986 101.897 447.677 101.864C447.551 101.839 447.422 101.893 447.292 102.025C447.196 102.111 447.131 102.244 447.097 102.421L447.082 102.496L446.433 103L446.227 101.227C446.808 100.264 447.444 99.8228 448.137 99.9054" fill="#FFAFB0"></path> <path fill-rule="evenodd" clip-rule="evenodd" d="M421.336 188.975L413.513 191.551C410.381 192.543 406.774 192.197 402.693 190.511C402.162 190.276 401.668 190.049 401.212 189.829L401.855 188.339C404.119 189.383 406.509 189.848 409.025 189.733L419.747 186.619L420.942 183.307L423.966 186.179C422.96 187.033 422.083 187.966 421.336 188.975V188.975ZM431.022 189.166C431.824 189.769 433.208 189.263 435.175 187.65C437.141 186.037 437.789 184.732 437.117 183.735L438.466 185.297C438.899 185.906 438.822 186.639 438.236 187.497C438.085 187.73 437.895 187.968 437.663 188.212C437.467 188.411 437.242 188.629 436.985 188.868C436.859 188.975 436.719 189.092 436.562 189.219C435.566 190.023 434.728 190.556 434.047 190.817C433.376 191.028 432.848 190.978 432.462 190.667L431.022 189.166ZM428.105 152.328L428.208 151.6C428.36 150.816 428.497 150.041 428.62 149.277C429.63 142.595 429.541 136.71 428.351 131.622C428.134 130.582 427.966 129.552 427.85 128.531C431.499 130.684 434.788 133.411 437.715 136.711C439.771 133.697 441.422 130.736 442.67 127.828C443.208 124.652 443.616 121.947 443.892 119.717C444.067 121.116 444.14 122.693 444.114 124.447L442.67 127.828C440.845 140.05 437.539 155.843 432.752 175.206L425.848 166.775C427.325 161.34 428.077 156.523 428.105 152.328V152.328ZM483.04 136.227C482.892 136.986 483.1 138.077 483.664 139.499L482.647 140.68C481.872 139.269 481.476 137.722 481.463 136.039L483.739 135.064C483.447 135.217 483.259 135.443 483.174 135.741C483.093 135.883 483.049 136.046 483.04 136.227V136.227Z" fill="#BAE2F4"></path> <path fill-rule="evenodd" clip-rule="evenodd" d="M445.092 107.269C445.981 106.207 446.427 104.785 446.433 103.001L447.082 102.497L447.075 102.535C446.947 103.193 447.052 103.869 447.389 104.565C447.64 105.165 447.999 105.615 448.464 105.916L447.77 106.45L446.976 105.272L445.092 107.269ZM452.261 102.991C451.52 103.425 450.761 103.618 449.983 103.572L448.638 102.996C448.542 102.82 448.439 102.603 448.331 102.346L448.339 102.308L448.86 102.055C448.896 102.14 448.947 102.216 449.013 102.281C449.688 102.859 450.572 102.899 451.666 102.403C451.894 102.316 452.08 102.234 452.226 102.158C452.228 102.42 452.239 102.698 452.261 102.991V102.991ZM433.024 102.521L441.323 105.591C441.304 105.692 441.299 105.784 441.31 105.864C441.306 106.153 441.326 106.458 441.368 106.781C441.426 107.291 441.537 107.799 441.702 108.303C441.799 108.48 441.906 108.605 442.022 108.681C441.004 108.378 440.445 107.613 440.342 106.385L432.589 103.539C432.734 103.2 432.879 102.861 433.024 102.521V102.521ZM443.058 91.2C440.92 91.9391 439.16 92.49 437.777 92.8514C436.379 93.157 435.052 93.3716 433.794 93.4949C433.944 93.261 434.221 92.9872 434.623 92.6716C438.158 92.1771 440.969 91.6863 443.058 91.2V91.2ZM431.217 103.312L431.568 106.767C430.877 106.948 430.239 106.718 429.655 106.08C429.025 105.406 428.831 104.647 429.074 103.801C428.074 102.741 427.325 102.674 426.83 103.602C426.67 102.94 426.91 102.449 427.55 102.127C428.179 101.724 429.401 102.119 431.217 103.312V103.312ZM483.04 136.226L483.962 135.736C483.724 136.687 483.879 137.649 484.425 138.622L483.664 139.498C483.1 138.075 482.893 136.985 483.04 136.226V136.226ZM428.377 119.536C428.978 117.395 429.94 115.416 431.264 113.599L432.054 109.736C432.368 110.821 432.889 111.854 433.616 112.836L432.82 116.934L428.377 119.536Z" fill="#EF9A9E"></path> <path fill-rule="evenodd" clip-rule="evenodd" d="M452.226 102.157C452.116 100.429 451.9 98.8389 451.579 97.3847L451.586 97.3467C452.216 97.0754 452.675 97.2172 452.96 97.7713C453.221 98.3205 453.342 99.1191 453.322 100.165C453.295 100.974 452.931 101.638 452.226 102.157" fill="#D3A8AF"></path> <path fill-rule="evenodd" clip-rule="evenodd" d="M451.579 97.3853C451.9 98.8395 452.115 100.43 452.226 102.158C452.079 102.235 451.893 102.317 451.666 102.404C450.572 102.9 449.688 102.86 449.013 102.282C448.947 102.217 448.896 102.141 448.86 102.055C448.525 101.622 448.283 100.906 448.136 99.9061L451.579 97.3853ZM445.091 107.27C444.891 107.493 444.679 107.701 444.458 107.895C443.341 108.78 442.529 109.043 442.022 108.681C441.905 108.606 441.798 108.48 441.702 108.304C441.537 107.8 441.426 107.292 441.368 106.782C441.326 106.459 441.307 106.154 441.31 105.865C441.3 105.784 441.304 105.693 441.324 105.592C441.392 105.107 441.606 104.676 441.968 104.3L446.226 101.229L446.433 103.002C446.427 104.786 445.98 106.208 445.091 107.27V107.27Z" fill="#AB6E77"></path> <path fill-rule="evenodd" clip-rule="evenodd" d="M447.082 102.496L447.097 102.42C447.131 102.243 447.196 102.111 447.291 102.025C447.422 101.893 447.551 101.839 447.677 101.864C447.985 101.898 448.206 102.045 448.339 102.307L448.331 102.345C448.439 102.602 448.542 102.819 448.638 102.996C448.746 103.253 448.82 103.411 448.86 103.472C449.09 103.779 449.42 104.106 449.851 104.452C449.983 104.583 450.092 104.696 450.178 104.792C450.276 104.968 450.337 105.124 450.363 105.261C450.416 105.665 450.271 105.938 449.928 106.082C449.903 106.077 449.873 106.097 449.837 106.143C449.529 106.241 449.178 106.225 448.783 106.096C448.662 106.046 448.555 105.986 448.464 105.915C447.998 105.615 447.639 105.164 447.388 104.564C447.051 103.869 446.947 103.192 447.074 102.534L447.082 102.496Z" fill="#E16480"></path> <path fill-rule="evenodd" clip-rule="evenodd" d="M449.794 130.67L439.288 153.123C441.781 143.946 443.337 135.467 443.957 127.685C444.048 126.547 444.099 125.468 444.114 124.447C444.14 122.693 444.067 121.116 443.892 119.717C443.616 121.948 443.209 124.651 442.67 127.828C441.422 130.736 439.771 133.697 437.715 136.711C434.788 133.411 431.499 130.685 427.85 128.531C427.966 129.552 428.134 130.582 428.351 131.622C429.541 136.71 429.63 142.596 428.62 149.278C428.497 150.041 428.36 150.816 428.208 151.6L428.106 152.328C427.761 153.968 427.366 155.663 426.92 157.414L421.2 139.25L420.637 137.487L423.913 136.43L427.144 135.404L421.266 133.238C422.034 129.291 423.069 125.856 424.372 122.933C424.636 122.249 424.931 121.61 425.256 121.017C426.891 117.87 428.894 115.398 431.264 113.6C429.94 115.416 428.978 117.396 428.378 119.537C427.832 121.4 427.575 123.398 427.606 125.531C431.829 128.11 435.218 130.725 437.773 133.375C440.347 128.913 442.386 124.361 443.892 119.717L443.9 119.679C443.868 119.568 443.851 119.459 443.845 119.353L444.565 119.494C446.538 119.877 448.075 120.005 449.175 119.878C449.688 121.29 450.063 122.872 450.299 124.625L448.288 126.873L446.231 129.151L448.541 128.812L450.82 128.428L449.794 130.67Z" fill="#E2EAF2"></path> <path fill-rule="evenodd" clip-rule="evenodd" d="M448.749 109.516C449.139 108.857 449.607 108.475 450.152 108.371C450.652 108.232 450.999 108.339 451.192 108.691C451.027 109.815 450.705 110.658 450.228 111.221C449.731 111.755 449.135 111.914 448.442 111.701C447.774 111.492 447.414 111.318 447.363 111.176C447.282 111.056 447.387 110.919 447.679 110.765C447.981 110.561 448.338 110.145 448.749 109.516" fill="#ECE2E4"></path> <path fill-rule="evenodd" clip-rule="evenodd" d="M423.913 136.431L418.975 134.093L424.372 122.934C423.068 125.857 422.033 129.292 421.266 133.239L427.144 135.405L423.913 136.431ZM448.54 128.813L446.231 129.152L448.288 126.874L448.54 128.813ZM439.288 153.124L449.793 130.671L452.91 131.041L454.205 126.606L449.357 151.143L448.742 145.195L452.895 131.117L438.194 156.929L439.288 153.124ZM432.782 175.252L435.926 179.329C435.705 179.522 435.483 179.715 435.262 179.909L434.9 180.153L432.298 176.93L432.782 175.252ZM424.181 166.846L419.047 160.453L419.025 157.732L424.635 165.32L424.181 166.846ZM426.198 159.913L418.749 140.113L421.199 139.251L426.92 157.415L426.198 159.913ZM480.261 136.554C480.392 135.74 480.809 135.151 481.509 134.789C482.251 134.618 482.994 134.71 483.739 135.064L481.463 136.04L480.261 136.554ZM398.458 184.963C398.042 184.672 397.666 184.376 397.331 184.075C395.971 182.839 395.501 181.474 395.923 179.981L403.509 160.19L406.114 151.245L405.89 156.045C405.878 159.481 406.218 162.186 406.911 164.159C406.906 164.184 406.914 164.212 406.934 164.242C406.929 164.267 406.936 164.295 406.957 164.325C407.604 166.131 408.793 167.977 410.526 169.863L420.377 179.733L419.678 182.118L407.299 170.26C406.557 169.354 405.982 168.258 405.577 166.971L398.458 184.963ZM399.456 188.74C399.958 189.126 400.544 189.49 401.212 189.83C401.668 190.049 402.162 190.277 402.693 190.512C406.775 192.197 410.382 192.544 413.514 191.552L421.336 188.977C420.779 189.682 420.29 190.44 419.87 191.251L409.735 194.992L401.562 237.038L375.025 273.112C373.49 271.422 373.089 269.979 373.82 268.781L391.252 243.501L397.283 234.748L402.119 195.086C400.781 193.33 399.893 191.214 399.456 188.74V188.74ZM441.642 216.553C441.885 215.839 442.141 215.061 442.41 214.221C442.99 212.18 443.472 210.581 443.855 209.422L448.847 218.976L447.991 223.379L429.694 262.63C428.848 262.255 428.138 261.789 427.564 261.232C426.797 260.452 426.518 259.728 426.726 259.06L430.246 251.081L443.867 220.293L441.642 216.553Z" fill="#0B5FAA"></path> <path fill-rule="evenodd" clip-rule="evenodd" d="M419.677 182.117L418.777 185.131L412.105 187.458C409.28 188.352 406.063 188.16 402.454 186.881C402.064 186.727 401.674 186.572 401.284 186.418C401.163 186.368 401.042 186.318 400.92 186.268C400.414 186.038 399.945 185.816 399.514 185.601C399.139 185.371 398.787 185.158 398.458 184.962L405.576 166.97C405.982 168.257 406.556 169.353 407.299 170.259L419.677 182.117ZM435.926 179.328L432.782 175.251L438.194 156.927L452.895 131.115L448.741 145.194L445.399 156.516L443.695 166.7C443.56 166.857 443.421 167.027 443.281 167.21C442.554 168.25 441.683 169.761 440.668 171.743C439.543 174.019 438.732 175.555 438.237 176.351C437.511 177.523 436.74 178.515 435.926 179.328V179.328ZM448.288 126.872L450.299 124.625C450.063 122.872 449.688 121.29 449.175 119.877C449.312 119.851 449.447 119.826 449.584 119.799C450.674 119.591 451.863 118.943 453.151 117.854C454.443 116.74 454.81 115.394 454.251 113.815L453.434 111.333L453.052 107.832C453.03 107.67 453.007 107.522 452.981 107.385C453.472 107.559 453.946 107.822 454.403 108.173C456.162 109.382 457.215 111.188 457.561 113.592L459.198 143.446L459.207 143.605L481.509 134.787C480.809 135.15 480.393 135.738 480.26 136.553C480.064 137.565 480.319 139.019 481.026 140.916C481.185 141.314 481.351 141.674 481.525 141.997L474.648 150.033L457.352 158.21L456.634 158.464C456.502 158.464 456.378 158.493 456.263 158.549C455.329 158.762 454.444 158.721 453.609 158.427C453.022 158.209 452.457 157.875 451.914 157.428C450.665 156.293 449.868 154.721 449.524 152.711L449.357 151.142L454.205 126.605L452.91 131.04L449.793 130.67L450.82 128.428L448.541 128.812L448.288 126.872ZM425.287 165.319L419.676 157.73L419.698 160.452L424.833 166.845L432.95 176.93L435.551 180.153L436.886 181.79C437.05 182.032 437.169 182.292 437.247 182.569C437.288 182.761 437.312 182.976 437.318 183.213C437.34 183.375 437.33 183.557 437.291 183.759C437.202 184.215 437.033 184.68 436.783 185.157C436.442 185.695 435.978 186.261 435.39 186.855C434.043 188.248 432.673 188.887 431.278 188.773C430.686 188.711 430.081 188.515 429.463 188.184L428.937 187.649L426.202 184.912L421.029 179.732L411.177 169.862C409.444 167.976 408.255 166.13 407.608 164.324C407.588 164.294 407.58 164.266 407.585 164.241C407.565 164.211 407.557 164.183 407.562 164.158C406.869 162.186 406.529 159.481 406.541 156.044L406.765 151.243L407.875 129.13C408.242 124.948 410.335 121.81 414.153 119.717L431.915 113.6C429.545 115.397 427.542 117.87 425.907 121.017C425.581 121.61 425.287 122.249 425.023 122.933L419.626 134.092L424.564 136.43L421.288 137.487L421.851 139.25L419.4 140.113L426.849 159.912L425.287 165.319ZM375.025 273.112L401.562 237.038L409.735 194.992L419.87 191.252C419.675 191.581 419.49 191.926 419.315 192.286C418.307 194.768 417.829 197.773 417.878 201.3C417.918 202.306 418.007 203.334 418.144 204.385L410.18 237.256L409.895 237.91L409.775 238.122L403.921 245.963L382.19 275.135C380.764 276.8 378.784 276.521 376.251 274.296C375.779 273.889 375.37 273.494 375.025 273.112V273.112ZM429.694 262.629L447.991 223.378L448.847 218.976L443.855 209.421C443.96 209.152 444.047 208.907 444.116 208.684C444.762 206.709 445.488 205.275 446.291 204.381C446.994 203.598 447.899 202.79 449.006 201.955L455.068 214.515C456.183 217.015 456.794 218.525 456.904 219.046C457.013 219.829 456.727 221.033 456.044 222.659C455.116 224.868 454.307 226.602 453.616 227.858L441.095 253.188L437.196 261.095C435.809 263.372 433.589 263.99 430.537 262.951C430.243 262.842 429.963 262.733 429.694 262.629V262.629Z" fill="#0078D1"></path> <path fill-rule="evenodd" clip-rule="evenodd" d="M431.568 106.767L431.736 108.336C431.829 108.8 431.935 109.267 432.054 109.736L428.028 107.969C426.634 107.173 425.981 105.471 426.068 102.863C426.233 101.477 426.896 100.765 428.058 100.729C428.982 100.699 429.787 100.947 430.472 101.474C430.518 101.509 430.563 101.544 430.609 101.579C430.65 101.64 430.705 101.69 430.776 101.73C430.867 101.8 430.979 101.901 431.111 102.031L431.217 103.312C429.402 102.119 428.179 101.724 427.55 102.127C426.91 102.449 426.67 102.94 426.83 103.601C427.325 102.674 428.074 102.74 429.074 103.801C428.831 104.647 429.025 105.406 429.655 106.08C430.239 106.719 430.878 106.948 431.568 106.767" fill="#FFBCAF"></path> <path fill-rule="evenodd" clip-rule="evenodd" d="M451.123 95.6823C451.038 95.7184 450.966 95.744 450.911 95.7593C449.883 96.0579 449.128 96.6989 448.648 97.6823C449.128 96.6989 449.883 96.0579 450.911 95.7593C450.966 95.744 451.038 95.7184 451.123 95.6823C451.277 96.2377 451.43 96.8053 451.579 97.3857L448.137 99.9064C447.444 99.8246 446.808 100.265 446.227 101.228L441.969 104.3C441.607 104.676 441.392 105.107 441.324 105.592L433.024 102.522C433.555 100.734 433.645 98.9931 433.292 97.2965C433.189 96.8826 433.123 96.476 433.096 96.0769C433.036 95.1728 433.268 94.3123 433.795 93.4954C435.052 93.3721 436.38 93.1575 437.777 92.8519C439.16 92.4906 440.92 91.9403 443.059 91.2005C443.063 91.1754 443.081 91.1521 443.111 91.132C443.187 91.1467 443.253 91.146 443.308 91.1309L443.354 91.1003C443.408 91.085 443.462 91.082 443.513 91.0918C443.548 91.0459 443.578 91.0258 443.603 91.0307C445.449 90.4444 445.886 89.4793 444.914 88.135C445.487 88.4298 445.978 88.7356 446.389 89.0518C446.526 89.1572 446.663 89.2626 446.8 89.368C448.703 90.9193 450.123 92.9935 451.062 95.5917C451.052 95.6425 451.072 95.6725 451.123 95.6823" fill="#FFBCAF"></path> <path fill-rule="evenodd" clip-rule="evenodd" d="M450.179 104.791C450.093 104.696 449.983 104.583 449.851 104.452C449.42 104.106 449.09 103.779 448.861 103.472C448.82 103.411 448.746 103.253 448.638 102.996L449.983 103.572C450.761 103.618 451.521 103.425 452.261 102.991C452.255 103.699 452.256 104.434 452.265 105.197C451.73 104.437 451.138 104.243 450.488 104.615L450.179 104.791Z" fill="#FFBCAF"></path> <path fill-rule="evenodd" clip-rule="evenodd" d="M442.022 108.682C442.529 109.043 443.341 108.781 444.458 107.895C444.679 107.702 444.891 107.493 445.091 107.27L446.975 105.273L447.77 106.452L445.392 108.155C445.11 108.39 444.884 108.673 444.714 109.008C444.373 109.546 444.178 110.217 444.126 111.02C442.748 111.357 441.256 111.276 439.646 110.78C439.176 110.635 438.709 110.466 438.249 110.272C434.745 108.856 432.859 106.611 432.59 103.54L440.343 106.386C440.445 107.614 441.005 108.379 442.022 108.682" fill="#FFBCAF"></path> <path fill-rule="evenodd" clip-rule="evenodd" d="M440.394 101.866C441.823 100.726 443.165 100.239 444.418 100.404C443.165 100.239 441.823 100.726 440.394 101.866" fill="#FFBCAF"></path> <path fill-rule="evenodd" clip-rule="evenodd" d="M428.378 119.536L432.821 116.934L433.617 112.835C434.472 113.974 435.604 115.033 437.014 116.016C439.473 117.676 441.75 118.788 443.845 119.352C443.851 119.458 443.869 119.567 443.9 119.678L443.893 119.716C442.386 124.359 440.347 128.912 437.774 133.373C435.218 130.724 431.829 128.109 427.607 125.529C427.575 123.397 427.833 121.399 428.378 119.536" fill="#FFBCAF"></path> <path fill-rule="evenodd" clip-rule="evenodd" d="M448.75 109.516C448.339 110.144 447.982 110.561 447.68 110.765C447.388 110.918 447.283 111.055 447.364 111.176C447.415 111.317 447.775 111.492 448.443 111.701C449.136 111.914 449.732 111.754 450.229 111.221C450.706 110.657 451.028 109.814 451.193 108.691C451 108.338 450.653 108.231 450.153 108.371C449.608 108.475 449.14 108.857 448.75 109.516V109.516ZM432.591 103.539C432.86 106.61 434.746 108.855 438.25 110.271C438.71 110.466 439.177 110.634 439.647 110.779C441.257 111.275 442.749 111.356 444.127 111.019C444.179 110.216 444.374 109.545 444.715 109.007C444.885 108.672 445.111 108.389 445.393 108.154L447.771 106.451C448.187 106.872 448.708 107.027 449.335 106.912C449.864 106.753 450.032 106.496 449.838 106.144C449.873 106.098 449.904 106.077 449.929 106.082C450.272 105.939 450.417 105.665 450.364 105.261C450.338 105.125 450.277 104.969 450.18 104.792L450.489 104.616C451.139 104.244 451.731 104.438 452.266 105.198C452.551 105.621 452.79 106.349 452.982 107.385C453.009 107.521 453.032 107.67 453.053 107.832L453.435 111.332C453.672 113.085 453.452 114.42 452.775 115.339C452.113 116.181 451.097 116.812 449.731 117.228C449.033 117.303 448.394 117.218 447.812 116.973C446.647 116.485 445.641 115.383 444.793 113.669C444.752 113.609 444.714 113.536 444.678 113.45L444.725 113.617L444.943 116.14C444.291 116.25 443.678 116.301 443.102 116.294C442.238 116.284 441.449 116.156 440.735 115.913C437.941 115.029 435.852 113.9 434.465 112.528C433.45 111.543 432.799 110.432 432.515 109.195L431.915 103.368L432.591 103.539ZM443.058 91.2008C438.727 91.8814 436.051 92.215 435.031 92.2001C433.954 92.2012 433.24 92.7713 432.887 93.9101C432.784 94.4414 432.854 95.1638 433.096 96.0773C433.123 96.4764 433.189 96.883 433.292 97.2968C433.645 98.9934 433.555 100.735 433.024 102.522L430.777 101.731C430.706 101.691 430.65 101.641 430.609 101.58C430.563 101.545 430.518 101.509 430.472 101.474C430.004 99.9658 429.009 98.9453 427.485 98.4128C425.9 97.7897 425.268 96.1836 425.587 93.5939C426.481 87.65 431.452 84.7569 440.501 84.9147C439.939 84.7006 439.266 84.517 438.482 84.3647C439.258 83.8854 440.197 83.7135 441.299 83.8489C444.466 84.5692 446.162 86.304 446.389 89.0521C445.978 88.736 445.487 88.4301 444.914 88.1353C445.886 89.4798 445.449 90.4447 443.603 91.031C443.578 91.0261 443.548 91.0462 443.513 91.0922C443.462 91.0823 443.409 91.0855 443.354 91.1006L443.308 91.1312C443.252 91.1464 443.187 91.147 443.111 91.1323C443.081 91.1525 443.063 91.1757 443.058 91.2008V91.2008Z" fill="#C6A881"></path> <mask id="mask2" maskUnits="userSpaceOnUse" x="418" y="79" width="43" height="43"> <path fill-rule="evenodd" clip-rule="evenodd" d="M425.14 79.5664L460.164 86.3745L453.393 121.209L418.369 114.401L425.14 79.5664Z" fill="white"></path> </mask> <g mask="url(#mask2)"> <path fill-rule="evenodd" clip-rule="evenodd" d="M447.77 106.45L448.465 105.916C448.556 105.986 448.662 106.046 448.784 106.096C449.179 106.225 449.53 106.241 449.838 106.143C450.031 106.496 449.863 106.752 449.334 106.912C448.708 107.026 448.187 106.872 447.77 106.45M443.058 91.1998C440.969 91.6862 438.158 92.177 434.624 92.6714C434.221 92.987 433.944 93.2616 433.794 93.4948C433.268 94.3116 433.035 95.1721 433.096 96.0763C432.854 95.1628 432.784 94.4404 432.887 93.9091C433.24 92.7703 433.954 92.2002 435.03 92.1991C436.051 92.214 438.727 91.8804 443.058 91.1998M433.617 112.836C432.889 111.854 432.369 110.821 432.055 109.736C431.936 109.267 431.83 108.8 431.737 108.336L431.569 106.767L431.217 103.312L431.112 102.031C430.98 101.901 430.868 101.8 430.777 101.73L433.024 102.521C432.879 102.861 432.735 103.2 432.59 103.539L431.915 103.369L432.514 109.196C432.799 110.432 433.449 111.543 434.464 112.528C435.851 113.9 437.941 115.029 440.735 115.913C441.449 116.157 442.237 116.284 443.101 116.294C443.677 116.301 444.291 116.25 444.942 116.14L444.724 113.617L444.678 113.45C444.714 113.536 444.752 113.609 444.793 113.669C445.64 115.384 446.647 116.485 447.811 116.974C448.394 117.218 449.033 117.303 449.73 117.228C451.097 116.811 452.112 116.182 452.774 115.339C453.451 114.421 453.671 113.085 453.435 111.332L454.251 113.815C454.81 115.394 454.444 116.74 453.151 117.854C451.863 118.943 450.674 119.591 449.585 119.799C449.448 119.826 449.312 119.851 449.176 119.877C448.075 120.004 446.538 119.877 444.566 119.493L443.845 119.353C441.751 118.788 439.473 117.676 437.014 116.017C435.605 115.034 434.472 113.974 433.617 112.836M430.472 101.473C429.787 100.947 428.983 100.698 428.058 100.729C426.896 100.765 426.233 101.477 426.069 102.862C424.161 101.336 423.141 99.6287 423.01 97.7389C421.308 87.4579 425.875 82.5959 436.71 83.1528C440.571 82.328 443.147 82.6452 444.438 84.1036C445.704 85.5571 446.491 87.3121 446.8 89.3673C446.663 89.2619 446.526 89.1565 446.389 89.0511C446.162 86.303 444.466 84.5682 441.299 83.8479C440.197 83.7124 439.258 83.8844 438.482 84.3637C439.266 84.516 439.939 84.6996 440.501 84.9136C431.452 84.7559 426.481 87.6489 425.587 93.5928C425.267 96.1826 425.9 97.7887 427.485 98.4118C429.009 98.9443 430.004 99.9648 430.472 101.473" fill="#A2845D"></path> </g> <path d="M442.313 108.273C442.088 108.113 441.775 108.166 441.615 108.391C441.455 108.616 441.508 108.928 441.733 109.088L442.313 108.273ZM444.459 107.894L444.769 108.286C444.776 108.281 444.782 108.276 444.788 108.27L444.459 107.894ZM445.464 107.603C445.648 107.398 445.632 107.082 445.426 106.897C445.221 106.712 444.905 106.729 444.72 106.934L445.464 107.603ZM444.709 106.947C444.532 107.159 444.56 107.474 444.771 107.652C444.983 107.829 445.298 107.801 445.476 107.589L444.709 106.947ZM446.934 103.002C446.935 102.726 446.712 102.501 446.435 102.5C446.159 102.499 445.935 102.722 445.934 102.998L446.934 103.002ZM448.632 99.8322C448.592 99.559 448.338 99.3699 448.065 99.41C447.791 99.4501 447.602 99.704 447.642 99.9773L448.632 99.8322ZM448.466 102.36C448.635 102.578 448.949 102.618 449.167 102.449C449.386 102.28 449.425 101.966 449.256 101.748L448.466 102.36ZM446.724 101.17C446.692 100.896 446.444 100.699 446.169 100.731C445.895 100.763 445.698 101.011 445.73 101.286L446.724 101.17ZM445.937 103.058C445.969 103.333 446.217 103.529 446.491 103.497C446.766 103.465 446.962 103.217 446.93 102.943L445.937 103.058ZM440.829 105.521C440.79 105.794 440.981 106.047 441.254 106.086C441.528 106.124 441.781 105.934 441.819 105.66L440.829 105.521ZM441.969 104.298L441.676 103.893C441.652 103.91 441.629 103.93 441.609 103.952L441.969 104.298ZM446.227 101.227L446.519 101.633C446.574 101.593 446.62 101.543 446.655 101.485L446.227 101.227ZM448.137 99.9051L448.079 100.402C448.204 100.417 448.331 100.383 448.433 100.309L448.137 99.9051ZM451.58 97.3843L451.875 97.7878C451.977 97.7134 452.046 97.6034 452.07 97.4798L451.58 97.3843ZM451.587 97.3464L451.389 96.8872C451.237 96.9526 451.128 97.0888 451.096 97.251L451.587 97.3464ZM452.961 97.771L453.413 97.5565C453.41 97.5515 453.408 97.5466 453.405 97.5417L452.961 97.771ZM453.322 100.165L453.822 100.181L453.822 100.174L453.322 100.165ZM452.226 102.157L452.458 102.6C452.48 102.589 452.502 102.575 452.523 102.56L452.226 102.157ZM451.667 102.403L451.488 101.936C451.478 101.94 451.469 101.943 451.46 101.947L451.667 102.403ZM449.014 102.281L448.661 102.635C448.67 102.644 448.679 102.653 448.689 102.661L449.014 102.281ZM449.322 101.86C449.215 101.606 448.922 101.486 448.667 101.593C448.413 101.7 448.293 101.994 448.4 102.248L449.322 101.86ZM441.751 109.101C441.983 109.251 442.293 109.184 442.442 108.952C442.592 108.72 442.526 108.411 442.294 108.261L441.751 109.101ZM441.702 108.304L441.227 108.458C441.236 108.488 441.249 108.517 441.264 108.545L441.702 108.304ZM441.368 106.782L441.865 106.725L441.864 106.717L441.368 106.782ZM441.31 105.865L441.81 105.87C441.81 105.847 441.809 105.824 441.806 105.801L441.31 105.865ZM441.324 105.592L441.815 105.687C441.862 105.446 441.727 105.208 441.497 105.123L441.324 105.592ZM433.198 102.052C432.939 101.956 432.651 102.089 432.555 102.348C432.459 102.607 432.592 102.894 432.851 102.99L433.198 102.052ZM431.024 101.3C430.87 101.071 430.559 101.01 430.33 101.165C430.101 101.319 430.04 101.63 430.195 101.859L431.024 101.3ZM430.777 101.73L430.533 102.166C430.558 102.18 430.584 102.192 430.611 102.202L430.777 101.73ZM432.858 102.993C433.119 103.085 433.404 102.948 433.496 102.687C433.588 102.427 433.451 102.141 433.191 102.05L432.858 102.993ZM441.733 109.088C442.159 109.391 442.669 109.391 443.166 109.231C443.654 109.073 444.191 108.744 444.769 108.286L444.148 107.502C443.609 107.929 443.182 108.175 442.858 108.279C442.543 108.381 442.393 108.331 442.313 108.273L441.733 109.088ZM444.788 108.27C445.024 108.064 445.25 107.841 445.464 107.603L444.72 106.934C444.533 107.143 444.335 107.338 444.13 107.518L444.788 108.27ZM445.476 107.589C446.459 106.415 446.928 104.868 446.934 103.002L445.934 102.998C445.928 104.701 445.503 105.999 444.709 106.947L445.476 107.589ZM447.642 99.9773C447.793 101.002 448.05 101.823 448.466 102.36L449.256 101.748C449.001 101.419 448.775 100.807 448.632 99.8322L447.642 99.9773ZM445.73 101.286L445.937 103.058L446.93 102.943L446.724 101.17L445.73 101.286ZM441.819 105.66C441.872 105.286 442.035 104.95 442.329 104.645L441.609 103.952C441.178 104.399 440.913 104.925 440.829 105.521L441.819 105.66ZM442.261 104.704L446.519 101.633L445.934 100.822L441.676 103.893L442.261 104.704ZM446.655 101.485C447.203 100.576 447.685 100.355 448.079 100.402L448.196 99.4086C447.204 99.2914 446.413 99.9504 445.799 100.969L446.655 101.485ZM448.433 100.309L451.875 97.7878L451.284 96.9809L447.842 99.5017L448.433 100.309ZM452.07 97.4798L452.078 97.4418L451.096 97.251L451.089 97.2889L452.07 97.4798ZM451.785 97.8056C452.037 97.6971 452.18 97.7036 452.255 97.7268C452.321 97.7471 452.416 97.805 452.517 98.0003L453.405 97.5417C453.22 97.1829 452.943 96.8928 452.551 96.7714C452.168 96.653 451.767 96.7243 451.389 96.8872L451.785 97.8056ZM452.509 97.9855C452.721 98.4314 452.842 99.1382 452.822 100.155L453.822 100.174C453.843 99.0992 453.723 98.2092 453.413 97.5565L452.509 97.9855ZM452.823 100.149C452.802 100.79 452.523 101.318 451.93 101.755L452.523 102.56C453.34 101.958 453.791 101.156 453.822 100.181L452.823 100.149ZM451.995 101.714C451.871 101.779 451.704 101.853 451.488 101.936L451.846 102.869C452.085 102.778 452.289 102.688 452.458 102.6L451.995 101.714ZM451.46 101.947C450.47 102.397 449.814 102.307 449.339 101.901L448.689 102.661C449.564 103.41 450.676 103.401 451.874 102.858L451.46 101.947ZM449.366 101.926C449.347 101.907 449.333 101.886 449.322 101.86L448.4 102.248C448.462 102.394 448.549 102.524 448.661 102.635L449.366 101.926ZM442.294 108.261C442.271 108.246 442.214 108.197 442.14 108.062L441.264 108.545C441.384 108.763 441.54 108.965 441.751 109.101L442.294 108.261ZM442.178 108.149C442.024 107.675 441.919 107.2 441.865 106.725L440.871 106.838C440.934 107.383 441.053 107.923 441.227 108.458L442.178 108.149ZM441.864 106.717C441.825 106.414 441.807 106.132 441.81 105.87L440.81 105.859C440.807 106.173 440.828 106.502 440.872 106.846L441.864 106.717ZM441.806 105.801C441.804 105.784 441.803 105.747 441.815 105.687L440.833 105.496C440.806 105.638 440.796 105.783 440.814 105.928L441.806 105.801ZM441.497 105.123L433.198 102.052L432.851 102.99L441.15 106.06L441.497 105.123ZM430.195 101.859C430.284 101.991 430.4 102.092 430.533 102.166L431.021 101.294C431.016 101.291 431.015 101.289 431.017 101.291C431.018 101.293 431.021 101.296 431.024 101.3L430.195 101.859ZM430.611 102.202L432.858 102.993L433.191 102.05L430.943 101.258L430.611 102.202Z" fill="#660000"></path> <path fill-rule="evenodd" clip-rule="evenodd" d="M448.749 109.516C448.338 110.145 447.981 110.561 447.679 110.765C447.387 110.919 447.282 111.056 447.363 111.176C447.414 111.318 447.774 111.492 448.442 111.701C449.135 111.914 449.731 111.755 450.228 111.221C450.705 110.658 451.027 109.815 451.192 108.691C450.999 108.339 450.652 108.232 450.152 108.371C449.607 108.475 449.139 108.857 448.749 109.516Z" stroke="#863345" stroke-linecap="round" stroke-linejoin="round"></path> <path d="M451.511 96.6026C452.02 96.3883 452.259 95.8019 452.044 95.2929C451.83 94.7839 451.244 94.545 450.735 94.7593L451.511 96.6026ZM450.911 95.7579L450.642 94.7946L450.632 94.7975L450.911 95.7579ZM447.749 97.2421C447.507 97.7384 447.712 98.3372 448.209 98.5795C448.705 98.8218 449.304 98.6159 449.546 98.1196L447.749 97.2421ZM439.77 101.085C439.339 101.429 439.268 102.058 439.613 102.49C439.957 102.922 440.586 102.992 441.018 102.648L439.77 101.085ZM444.288 101.395C444.835 101.467 445.338 101.082 445.41 100.534C445.482 99.9865 445.096 99.4842 444.549 99.4122L444.288 101.395ZM450.996 94.6896C450.448 94.7594 450.061 95.2602 450.131 95.8081C450.201 96.3559 450.702 96.7434 451.249 96.6735L450.996 94.6896ZM451.59 96.6074C452.123 96.4623 452.437 95.9127 452.292 95.3798C452.147 94.8469 451.597 94.5325 451.065 94.6776L451.59 96.6074ZM450.735 94.7593C450.705 94.7719 450.681 94.7809 450.664 94.7871C450.647 94.7934 450.64 94.7953 450.642 94.7946L451.179 96.7212C451.29 96.6905 451.403 96.6479 451.511 96.6026L450.735 94.7593ZM450.632 94.7975C449.326 95.1767 448.35 96.0114 447.749 97.2421L449.546 98.1196C449.905 97.3835 450.438 96.9363 451.19 96.7183L450.632 94.7975ZM441.018 102.648C442.329 101.601 443.404 101.279 444.288 101.395L444.549 99.4122C442.925 99.1985 441.316 99.851 439.77 101.085L441.018 102.648ZM451.249 96.6735C451.368 96.6583 451.483 96.6366 451.59 96.6074L451.065 94.6776C451.061 94.6787 451.039 94.6841 450.996 94.6896L451.249 96.6735Z" fill="#65481B"></path> </g> </g> <path d="M48.8839 82.8839C49.372 82.3957 49.372 81.6043 48.8839 81.1161L40.9289 73.1612C40.4408 72.673 39.6493 72.673 39.1612 73.1612C38.673 73.6493 38.673 74.4408 39.1612 74.9289L46.2322 82L39.1612 89.0711C38.673 89.5592 38.673 90.3507 39.1612 90.8388C39.6493 91.327 40.4408 91.327 40.9289 90.8388L48.8839 82.8839ZM26 83.25L48 83.25L48 80.75L26 80.75L26 83.25Z" fill="#FFE56E"></path> <path d="M78.664 92.2002H74.996C74.5853 92.2002 74.2447 92.1069 73.974 91.9202C73.7127 91.7242 73.5307 91.4769 73.428 91.1782L72.224 87.6222H64.468L63.264 91.1782C63.1707 91.4395 62.9887 91.6775 62.718 91.8922C62.4473 92.0975 62.116 92.2002 61.724 92.2002H58.028L65.924 71.8022H70.768L78.664 92.2002ZM65.56 84.4022H71.132L69.256 78.8162C69.1347 78.4615 68.99 78.0462 68.822 77.5702C68.6633 77.0849 68.5047 76.5622 68.346 76.0022C68.1967 76.5715 68.0427 77.0989 67.884 77.5842C67.7253 78.0695 67.576 78.4895 67.436 78.8442L65.56 84.4022ZM90.0165 92.2002C89.7459 92.2002 89.5172 92.1395 89.3305 92.0182C89.1532 91.8969 89.0272 91.7149 88.9525 91.4722L88.6165 90.3662C88.3272 90.6742 88.0239 90.9542 87.7065 91.2062C87.3892 91.4582 87.0439 91.6775 86.6705 91.8642C86.3065 92.0415 85.9099 92.1769 85.4805 92.2702C85.0605 92.3729 84.6032 92.4242 84.1085 92.4242C83.3525 92.4242 82.6525 92.2562 82.0085 91.9202C81.3645 91.5842 80.8092 91.0989 80.3425 90.4642C79.8759 89.8295 79.5072 89.0549 79.2365 88.1402C78.9752 87.2162 78.8445 86.1662 78.8445 84.9902C78.8445 83.9075 78.9939 82.9042 79.2925 81.9802C79.5912 81.0469 80.0112 80.2442 80.5525 79.5722C81.1032 78.8909 81.7612 78.3589 82.5265 77.9762C83.2919 77.5935 84.1365 77.4022 85.0605 77.4022C85.8072 77.4022 86.4372 77.5142 86.9505 77.7382C87.4732 77.9529 87.9445 78.2375 88.3645 78.5922V71.2422H92.7045V92.2002H90.0165ZM85.6205 89.0922C85.9379 89.0922 86.2225 89.0642 86.4745 89.0082C86.7359 88.9429 86.9739 88.8542 87.1885 88.7422C87.4032 88.6302 87.6039 88.4902 87.7905 88.3222C87.9865 88.1542 88.1779 87.9582 88.3645 87.7342V81.5742C88.0285 81.2102 87.6692 80.9582 87.2865 80.8182C86.9132 80.6689 86.5165 80.5942 86.0965 80.5942C85.6952 80.5942 85.3265 80.6735 84.9905 80.8322C84.6545 80.9909 84.3605 81.2475 84.1085 81.6022C83.8659 81.9475 83.6745 82.4002 83.5345 82.9602C83.3945 83.5202 83.3245 84.1969 83.3245 84.9902C83.3245 85.7555 83.3805 86.3995 83.4925 86.9222C83.6045 87.4449 83.7585 87.8695 83.9545 88.1962C84.1599 88.5135 84.4025 88.7422 84.6825 88.8822C84.9625 89.0222 85.2752 89.0922 85.6205 89.0922ZM104.443 80.8602C104.331 81.0375 104.209 81.1635 104.079 81.2382C103.957 81.3129 103.799 81.3502 103.603 81.3502C103.397 81.3502 103.192 81.3082 102.987 81.2242C102.781 81.1309 102.557 81.0329 102.315 80.9302C102.081 80.8275 101.815 80.7342 101.517 80.6502C101.218 80.5569 100.877 80.5102 100.495 80.5102C99.9441 80.5102 99.5194 80.6175 99.2207 80.8322C98.9314 81.0375 98.7867 81.3269 98.7867 81.7002C98.7867 81.9709 98.8801 82.1949 99.0667 82.3722C99.2627 82.5495 99.5194 82.7082 99.8367 82.8482C100.154 82.9789 100.513 83.1049 100.915 83.2262C101.316 83.3475 101.727 83.4829 102.147 83.6322C102.567 83.7815 102.977 83.9589 103.379 84.1642C103.78 84.3602 104.139 84.6075 104.457 84.9062C104.774 85.1955 105.026 85.5502 105.213 85.9702C105.409 86.3902 105.507 86.8942 105.507 87.4822C105.507 88.2009 105.376 88.8635 105.115 89.4702C104.853 90.0769 104.461 90.5995 103.939 91.0382C103.425 91.4769 102.786 91.8175 102.021 92.0602C101.265 92.3029 100.392 92.4242 99.4027 92.4242C98.9081 92.4242 98.4134 92.3775 97.9187 92.2842C97.4241 92.1909 96.9434 92.0649 96.4767 91.9062C96.0194 91.7475 95.5947 91.5609 95.2027 91.3462C94.8107 91.1222 94.4747 90.8842 94.1947 90.6322L95.2027 89.0362C95.3241 88.8495 95.4687 88.7049 95.6367 88.6022C95.8047 88.4902 96.0241 88.4342 96.2947 88.4342C96.5467 88.4342 96.7707 88.4902 96.9667 88.6022C97.1721 88.7142 97.3914 88.8355 97.6247 88.9662C97.8581 89.0969 98.1287 89.2182 98.4367 89.3302C98.7541 89.4422 99.1507 89.4982 99.6267 89.4982C99.9627 89.4982 100.247 89.4655 100.481 89.4002C100.714 89.3255 100.901 89.2275 101.041 89.1062C101.181 88.9849 101.283 88.8495 101.349 88.7002C101.414 88.5509 101.447 88.3969 101.447 88.2382C101.447 87.9489 101.349 87.7109 101.153 87.5242C100.957 87.3375 100.7 87.1789 100.383 87.0482C100.065 86.9082 99.7014 86.7822 99.2907 86.6702C98.8894 86.5489 98.4787 86.4135 98.0587 86.2642C97.6387 86.1149 97.2234 85.9375 96.8127 85.7322C96.4114 85.5175 96.0521 85.2515 95.7347 84.9342C95.4174 84.6075 95.1607 84.2109 94.9647 83.7442C94.7687 83.2775 94.6707 82.7129 94.6707 82.0502C94.6707 81.4342 94.7874 80.8509 95.0207 80.3002C95.2634 79.7402 95.6227 79.2502 96.0987 78.8302C96.5747 78.4102 97.1721 78.0789 97.8907 77.8362C98.6094 77.5842 99.4494 77.4582 100.411 77.4582C100.933 77.4582 101.437 77.5049 101.923 77.5982C102.417 77.6915 102.879 77.8222 103.309 77.9902C103.738 78.1582 104.13 78.3589 104.485 78.5922C104.839 78.8162 105.152 79.0635 105.423 79.3342L104.443 80.8602ZM117.045 80.0622H117.801C118.501 80.0622 119.005 79.8429 119.313 79.4042L123.905 72.7402C124.157 72.3762 124.441 72.1289 124.759 71.9982C125.085 71.8675 125.482 71.8022 125.949 71.8022H130.065L124.017 80.0482C123.802 80.3469 123.578 80.5942 123.345 80.7902C123.111 80.9862 122.873 81.1495 122.631 81.2802C122.985 81.4109 123.307 81.5929 123.597 81.8262C123.895 82.0502 124.166 82.3535 124.409 82.7362L130.569 92.2002H126.341C126.07 92.2002 125.837 92.1815 125.641 92.1442C125.454 92.1069 125.291 92.0509 125.151 91.9762C125.011 91.9015 124.889 91.8129 124.787 91.7102C124.684 91.5982 124.586 91.4722 124.493 91.3322L119.873 84.2342C119.705 83.9729 119.49 83.7909 119.229 83.6882C118.977 83.5762 118.631 83.5202 118.193 83.5202H117.045V92.2002H112.313V71.8022H117.045V80.0622ZM137.306 77.4582C138.267 77.4582 139.145 77.6075 139.938 77.9062C140.741 78.2049 141.427 78.6389 141.996 79.2082C142.575 79.7775 143.023 80.4775 143.34 81.3082C143.667 82.1295 143.83 83.0629 143.83 84.1082C143.83 84.4349 143.816 84.7009 143.788 84.9062C143.76 85.1115 143.709 85.2749 143.634 85.3962C143.559 85.5175 143.457 85.6015 143.326 85.6482C143.205 85.6949 143.046 85.7182 142.85 85.7182H134.478C134.618 86.9315 134.987 87.8135 135.584 88.3642C136.181 88.9055 136.951 89.1762 137.894 89.1762C138.398 89.1762 138.832 89.1155 139.196 88.9942C139.56 88.8729 139.882 88.7375 140.162 88.5882C140.451 88.4389 140.713 88.3035 140.946 88.1822C141.189 88.0609 141.441 88.0002 141.702 88.0002C142.047 88.0002 142.309 88.1262 142.486 88.3782L143.746 89.9322C143.298 90.4455 142.813 90.8655 142.29 91.1922C141.777 91.5095 141.245 91.7615 140.694 91.9482C140.153 92.1255 139.607 92.2469 139.056 92.3122C138.515 92.3869 137.997 92.4242 137.502 92.4242C136.485 92.4242 135.528 92.2609 134.632 91.9342C133.745 91.5982 132.966 91.1035 132.294 90.4502C131.631 89.7969 131.104 88.9849 130.712 88.0142C130.329 87.0435 130.138 85.9142 130.138 84.6262C130.138 83.6555 130.301 82.7362 130.628 81.8682C130.964 81.0002 131.44 80.2395 132.056 79.5862C132.681 78.9329 133.433 78.4149 134.31 78.0322C135.197 77.6495 136.195 77.4582 137.306 77.4582ZM137.39 80.4542C136.559 80.4542 135.911 80.6922 135.444 81.1682C134.977 81.6349 134.669 82.3115 134.52 83.1982H139.938C139.938 82.8529 139.891 82.5169 139.798 82.1902C139.714 81.8635 139.569 81.5742 139.364 81.3222C139.168 81.0609 138.907 80.8509 138.58 80.6922C138.253 80.5335 137.857 80.4542 137.39 80.4542ZM151.21 95.9662C151.079 96.2555 150.92 96.4655 150.734 96.5962C150.547 96.7362 150.248 96.8062 149.838 96.8062H146.59L149.39 90.9262L143.594 77.6822H147.43C147.766 77.6822 148.027 77.7569 148.214 77.9062C148.4 78.0555 148.531 78.2329 148.606 78.4382L150.986 84.6962C151.21 85.2749 151.392 85.8535 151.532 86.4322C151.625 86.1335 151.728 85.8395 151.84 85.5502C151.952 85.2609 152.059 84.9669 152.162 84.6682L154.318 78.4382C154.392 78.2235 154.537 78.0462 154.752 77.9062C154.976 77.7569 155.214 77.6822 155.466 77.6822H158.966L151.21 95.9662ZM158.57 77.6822H162.042C162.35 77.6822 162.616 77.7522 162.84 77.8922C163.064 78.0322 163.2 78.2142 163.246 78.4382L164.702 84.9482C164.814 85.4429 164.917 85.9235 165.01 86.3902C165.104 86.8569 165.188 87.3189 165.262 87.7762C165.393 87.3189 165.528 86.8615 165.668 86.4042C165.818 85.9375 165.962 85.4522 166.102 84.9482L167.922 78.4242C167.978 78.2095 168.114 78.0322 168.328 77.8922C168.543 77.7429 168.79 77.6682 169.07 77.6682H171.002C171.31 77.6682 171.572 77.7429 171.786 77.8922C172.01 78.0322 172.15 78.2095 172.206 78.4242L173.942 84.9482C174.073 85.4429 174.204 85.9235 174.334 86.3902C174.474 86.8569 174.605 87.3282 174.726 87.8042C174.801 87.3375 174.89 86.8755 174.992 86.4182C175.104 85.9515 175.221 85.4615 175.342 84.9482L176.882 78.4382C176.929 78.2142 177.06 78.0322 177.274 77.8922C177.498 77.7522 177.75 77.6822 178.03 77.6822H181.334L176.826 92.2002H173.298C173.112 92.2002 172.953 92.1442 172.822 92.0322C172.692 91.9202 172.589 91.7335 172.514 91.4722L170.442 84.2342C170.349 83.9075 170.26 83.5855 170.176 83.2682C170.092 82.9509 170.018 82.6335 169.952 82.3162C169.887 82.6429 169.812 82.9695 169.728 83.2962C169.654 83.6135 169.565 83.9355 169.462 84.2622L167.362 91.4722C167.222 91.9575 166.914 92.2002 166.438 92.2002H163.078L158.57 77.6822ZM188.996 77.4582C190.097 77.4582 191.1 77.6309 192.006 77.9762C192.911 78.3215 193.686 78.8162 194.33 79.4602C194.983 80.1042 195.487 80.8882 195.842 81.8122C196.206 82.7269 196.388 83.7582 196.388 84.9062C196.388 86.0635 196.206 87.1089 195.842 88.0422C195.487 88.9662 194.983 89.7549 194.33 90.4082C193.686 91.0522 192.911 91.5515 192.006 91.9062C191.1 92.2515 190.097 92.4242 188.996 92.4242C187.885 92.4242 186.872 92.2515 185.958 91.9062C185.052 91.5515 184.268 91.0522 183.606 90.4082C182.952 89.7549 182.444 88.9662 182.08 88.0422C181.725 87.1089 181.548 86.0635 181.548 84.9062C181.548 83.7582 181.725 82.7269 182.08 81.8122C182.444 80.8882 182.952 80.1042 183.606 79.4602C184.268 78.8162 185.052 78.3215 185.958 77.9762C186.872 77.6309 187.885 77.4582 188.996 77.4582ZM188.996 89.2042C189.994 89.2042 190.727 88.8542 191.194 88.1542C191.67 87.4449 191.908 86.3715 191.908 84.9342C191.908 83.4969 191.67 82.4282 191.194 81.7282C190.727 81.0282 189.994 80.6782 188.996 80.6782C187.969 80.6782 187.218 81.0282 186.742 81.7282C186.266 82.4282 186.028 83.4969 186.028 84.9342C186.028 86.3715 186.266 87.4449 186.742 88.1542C187.218 88.8542 187.969 89.2042 188.996 89.2042ZM198.27 92.2002V77.6822H200.846C201.061 77.6822 201.238 77.7009 201.378 77.7382C201.527 77.7755 201.649 77.8362 201.742 77.9202C201.845 77.9949 201.919 78.0975 201.966 78.2282C202.022 78.3589 202.069 78.5175 202.106 78.7042L202.344 80.0622C202.876 79.2409 203.473 78.5922 204.136 78.1162C204.799 77.6402 205.522 77.4022 206.306 77.4022C206.969 77.4022 207.501 77.5609 207.902 77.8782L207.342 81.0702C207.305 81.2662 207.23 81.4062 207.118 81.4902C207.006 81.5649 206.857 81.6022 206.67 81.6022C206.511 81.6022 206.325 81.5835 206.11 81.5462C205.895 81.4995 205.625 81.4762 205.298 81.4762C204.159 81.4762 203.263 82.0829 202.61 83.2962V92.2002H198.27ZM219.528 92.2002C219.258 92.2002 219.029 92.1395 218.842 92.0182C218.665 91.8969 218.539 91.7149 218.464 91.4722L218.128 90.3662C217.839 90.6742 217.536 90.9542 217.218 91.2062C216.901 91.4582 216.556 91.6775 216.182 91.8642C215.818 92.0415 215.422 92.1769 214.992 92.2702C214.572 92.3729 214.115 92.4242 213.62 92.4242C212.864 92.4242 212.164 92.2562 211.52 91.9202C210.876 91.5842 210.321 91.0989 209.854 90.4642C209.388 89.8295 209.019 89.0549 208.748 88.1402C208.487 87.2162 208.356 86.1662 208.356 84.9902C208.356 83.9075 208.506 82.9042 208.804 81.9802C209.103 81.0469 209.523 80.2442 210.064 79.5722C210.615 78.8909 211.273 78.3589 212.038 77.9762C212.804 77.5935 213.648 77.4022 214.572 77.4022C215.319 77.4022 215.949 77.5142 216.462 77.7382C216.985 77.9529 217.456 78.2375 217.876 78.5922V71.2422H222.216V92.2002H219.528ZM215.132 89.0922C215.45 89.0922 215.734 89.0642 215.986 89.0082C216.248 88.9429 216.486 88.8542 216.7 88.7422C216.915 88.6302 217.116 88.4902 217.302 88.3222C217.498 88.1542 217.69 87.9582 217.876 87.7342V81.5742C217.54 81.2102 217.181 80.9582 216.798 80.8182C216.425 80.6689 216.028 80.5942 215.608 80.5942C215.207 80.5942 214.838 80.6735 214.502 80.8322C214.166 80.9909 213.872 81.2475 213.62 81.6022C213.378 81.9475 213.186 82.4002 213.046 82.9602C212.906 83.5202 212.836 84.1969 212.836 84.9902C212.836 85.7555 212.892 86.3995 213.004 86.9222C213.116 87.4449 213.27 87.8695 213.466 88.1962C213.672 88.5135 213.914 88.7422 214.194 88.8822C214.474 89.0222 214.787 89.0922 215.132 89.0922ZM237.609 71.5782C238.514 71.5782 239.312 71.7135 240.003 71.9842C240.693 72.2455 241.277 72.5955 241.753 73.0342C242.229 73.4635 242.602 73.9629 242.873 74.5322C243.143 75.1015 243.311 75.6849 243.377 76.2822L240.577 76.8422C240.53 76.8515 240.488 76.8609 240.451 76.8702C240.423 76.8702 240.39 76.8702 240.353 76.8702C239.961 76.8702 239.671 76.6649 239.485 76.2542C239.27 75.7689 239.018 75.4002 238.729 75.1482C238.449 74.8962 238.075 74.7702 237.609 74.7702C237.282 74.7702 236.997 74.8309 236.755 74.9522C236.512 75.0735 236.307 75.2322 236.139 75.4282C235.98 75.6242 235.859 75.8529 235.775 76.1142C235.691 76.3755 235.649 76.6462 235.649 76.9262C235.649 77.1689 235.667 77.4022 235.704 77.6262C235.751 77.8502 235.821 78.0789 235.915 78.3122C236.017 78.5362 236.153 78.7695 236.321 79.0122C236.498 79.2549 236.722 79.5162 236.993 79.7962L242.033 85.1162C242.285 84.5562 242.485 83.9729 242.635 83.3662C242.784 82.7595 242.891 82.1295 242.957 81.4762C242.975 81.2149 243.059 81.0095 243.209 80.8602C243.367 80.7109 243.573 80.6362 243.825 80.6362H246.569C246.569 81.9989 246.387 83.2729 246.023 84.4582C245.659 85.6342 245.141 86.7122 244.469 87.6922L248.753 92.2002H244.469C244.254 92.2002 244.063 92.1909 243.895 92.1722C243.727 92.1442 243.568 92.1022 243.418 92.0462C243.279 91.9902 243.143 91.9109 243.013 91.8082C242.882 91.7055 242.742 91.5749 242.593 91.4162L241.711 90.4922C240.824 91.1082 239.853 91.5842 238.799 91.9202C237.753 92.2562 236.638 92.4242 235.453 92.4242C234.641 92.4242 233.843 92.2842 233.059 92.0042C232.284 91.7242 231.593 91.3275 230.987 90.8142C230.38 90.2915 229.89 89.6615 229.517 88.9242C229.143 88.1869 228.957 87.3609 228.957 86.4462C228.957 85.8302 229.05 85.2469 229.236 84.6962C229.433 84.1455 229.703 83.6369 230.049 83.1702C230.394 82.6942 230.805 82.2649 231.281 81.8822C231.766 81.4902 232.293 81.1495 232.863 80.8602C232.424 80.1789 232.107 79.5115 231.91 78.8582C231.715 78.2049 231.617 77.5702 231.617 76.9542C231.617 76.2262 231.747 75.5402 232.008 74.8962C232.279 74.2429 232.667 73.6735 233.171 73.1882C233.684 72.6935 234.309 72.3015 235.047 72.0122C235.793 71.7229 236.647 71.5782 237.609 71.5782ZM233.381 86.0962C233.381 86.5442 233.446 86.9502 233.577 87.3142C233.717 87.6782 233.913 87.9909 234.165 88.2522C234.417 88.5135 234.715 88.7189 235.061 88.8682C235.415 89.0082 235.807 89.0782 236.237 89.0782C236.862 89.0782 237.441 88.9989 237.973 88.8402C238.514 88.6722 239.018 88.4389 239.485 88.1402L234.795 83.1702C234.281 83.5902 233.917 84.0475 233.703 84.5422C233.488 85.0369 233.381 85.5549 233.381 86.0962ZM64.86 125.2H60.1V104.802H64.86V125.2ZM68.1488 125.2V110.682H70.8368C71.1074 110.682 71.3314 110.743 71.5088 110.864C71.6954 110.986 71.8261 111.168 71.9008 111.41L72.1528 112.25C72.4328 111.989 72.7221 111.746 73.0208 111.522C73.3194 111.298 73.6368 111.112 73.9728 110.962C74.3181 110.804 74.6868 110.682 75.0788 110.598C75.4801 110.505 75.9141 110.458 76.3808 110.458C77.1741 110.458 77.8741 110.598 78.4808 110.878C79.0968 111.149 79.6148 111.532 80.0348 112.026C80.4548 112.512 80.7721 113.095 80.9868 113.776C81.2014 114.448 81.3088 115.181 81.3088 115.974V125.2H76.9688V115.974C76.9688 115.265 76.8054 114.714 76.4788 114.322C76.1521 113.921 75.6714 113.72 75.0368 113.72C74.5608 113.72 74.1128 113.823 73.6928 114.028C73.2728 114.234 72.8714 114.509 72.4888 114.854V125.2H68.1488ZM88.9869 125.424C88.2963 125.424 87.6849 125.326 87.1529 125.13C86.6303 124.925 86.1869 124.64 85.8229 124.276C85.4683 123.903 85.1976 123.455 85.0109 122.932C84.8243 122.41 84.7309 121.826 84.7309 121.182V113.678H83.4989C83.2749 113.678 83.0836 113.608 82.9249 113.468C82.7663 113.319 82.6869 113.104 82.6869 112.824V111.13L84.9969 110.682L85.8509 107.14C85.9629 106.692 86.2803 106.468 86.8029 106.468H89.0709V110.71H92.5989V113.678H89.0709V120.888C89.0709 121.224 89.1503 121.504 89.3089 121.728C89.4769 121.943 89.7149 122.05 90.0229 122.05C90.1816 122.05 90.3123 122.036 90.4149 122.008C90.5269 121.971 90.6203 121.934 90.6949 121.896C90.7789 121.85 90.8536 121.812 90.9189 121.784C90.9936 121.747 91.0776 121.728 91.1709 121.728C91.3016 121.728 91.4043 121.761 91.4789 121.826C91.5629 121.882 91.6469 121.976 91.7309 122.106L93.0469 124.164C92.4869 124.584 91.8569 124.902 91.1569 125.116C90.4569 125.322 89.7336 125.424 88.9869 125.424ZM100.818 110.458C101.779 110.458 102.657 110.608 103.45 110.906C104.253 111.205 104.939 111.639 105.508 112.208C106.087 112.778 106.535 113.478 106.852 114.308C107.179 115.13 107.342 116.063 107.342 117.108C107.342 117.435 107.328 117.701 107.3 117.906C107.272 118.112 107.221 118.275 107.146 118.396C107.071 118.518 106.969 118.602 106.838 118.648C106.717 118.695 106.558 118.718 106.362 118.718H97.9899C98.1299 119.932 98.4985 120.814 99.0959 121.364C99.6932 121.906 100.463 122.176 101.406 122.176C101.91 122.176 102.344 122.116 102.708 121.994C103.072 121.873 103.394 121.738 103.674 121.588C103.963 121.439 104.225 121.304 104.458 121.182C104.701 121.061 104.953 121 105.214 121C105.559 121 105.821 121.126 105.998 121.378L107.258 122.932C106.81 123.446 106.325 123.866 105.802 124.192C105.289 124.51 104.757 124.762 104.206 124.948C103.665 125.126 103.119 125.247 102.568 125.312C102.027 125.387 101.509 125.424 101.014 125.424C99.9965 125.424 99.0399 125.261 98.1439 124.934C97.2572 124.598 96.4779 124.104 95.8059 123.45C95.1432 122.797 94.6159 121.985 94.2239 121.014C93.8412 120.044 93.6499 118.914 93.6499 117.626C93.6499 116.656 93.8132 115.736 94.1399 114.868C94.4759 114 94.9519 113.24 95.5679 112.586C96.1932 111.933 96.9445 111.415 97.8219 111.032C98.7085 110.65 99.7072 110.458 100.818 110.458ZM100.902 113.454C100.071 113.454 99.4225 113.692 98.9559 114.168C98.4892 114.635 98.1812 115.312 98.0319 116.198H103.45C103.45 115.853 103.403 115.517 103.31 115.19C103.226 114.864 103.081 114.574 102.876 114.322C102.68 114.061 102.419 113.851 102.092 113.692C101.765 113.534 101.369 113.454 100.902 113.454ZM109.332 125.2V110.682H111.908C112.123 110.682 112.3 110.701 112.44 110.738C112.59 110.776 112.711 110.836 112.804 110.92C112.907 110.995 112.982 111.098 113.028 111.228C113.084 111.359 113.131 111.518 113.168 111.704L113.406 113.062C113.938 112.241 114.536 111.592 115.198 111.116C115.861 110.64 116.584 110.402 117.368 110.402C118.031 110.402 118.563 110.561 118.964 110.878L118.404 114.07C118.367 114.266 118.292 114.406 118.18 114.49C118.068 114.565 117.919 114.602 117.732 114.602C117.574 114.602 117.387 114.584 117.172 114.546C116.958 114.5 116.687 114.476 116.36 114.476C115.222 114.476 114.326 115.083 113.672 116.296V125.2H109.332ZM126.615 110.458C127.576 110.458 128.453 110.608 129.247 110.906C130.049 111.205 130.735 111.639 131.305 112.208C131.883 112.778 132.331 113.478 132.649 114.308C132.975 115.13 133.139 116.063 133.139 117.108C133.139 117.435 133.125 117.701 133.097 117.906C133.069 118.112 133.017 118.275 132.943 118.396C132.868 118.518 132.765 118.602 132.635 118.648C132.513 118.695 132.355 118.718 132.159 118.718H123.787C123.927 119.932 124.295 120.814 124.893 121.364C125.49 121.906 126.26 122.176 127.203 122.176C127.707 122.176 128.141 122.116 128.505 121.994C128.869 121.873 129.191 121.738 129.471 121.588C129.76 121.439 130.021 121.304 130.255 121.182C130.497 121.061 130.749 121 131.011 121C131.356 121 131.617 121.126 131.795 121.378L133.055 122.932C132.607 123.446 132.121 123.866 131.599 124.192C131.085 124.51 130.553 124.762 130.003 124.948C129.461 125.126 128.915 125.247 128.365 125.312C127.823 125.387 127.305 125.424 126.811 125.424C125.793 125.424 124.837 125.261 123.941 124.934C123.054 124.598 122.275 124.104 121.603 123.45C120.94 122.797 120.413 121.985 120.021 121.014C119.638 120.044 119.447 118.914 119.447 117.626C119.447 116.656 119.61 115.736 119.937 114.868C120.273 114 120.749 113.24 121.365 112.586C121.99 111.933 122.741 111.415 123.619 111.032C124.505 110.65 125.504 110.458 126.615 110.458ZM126.699 113.454C125.868 113.454 125.219 113.692 124.753 114.168C124.286 114.635 123.978 115.312 123.829 116.198H129.247C129.247 115.853 129.2 115.517 129.107 115.19C129.023 114.864 128.878 114.574 128.673 114.322C128.477 114.061 128.215 113.851 127.889 113.692C127.562 113.534 127.165 113.454 126.699 113.454ZM144.005 113.86C143.893 114.038 143.772 114.164 143.641 114.238C143.52 114.313 143.361 114.35 143.165 114.35C142.96 114.35 142.755 114.308 142.549 114.224C142.344 114.131 142.12 114.033 141.877 113.93C141.644 113.828 141.378 113.734 141.079 113.65C140.781 113.557 140.44 113.51 140.057 113.51C139.507 113.51 139.082 113.618 138.783 113.832C138.494 114.038 138.349 114.327 138.349 114.7C138.349 114.971 138.443 115.195 138.629 115.372C138.825 115.55 139.082 115.708 139.399 115.848C139.717 115.979 140.076 116.105 140.477 116.226C140.879 116.348 141.289 116.483 141.709 116.632C142.129 116.782 142.54 116.959 142.941 117.164C143.343 117.36 143.702 117.608 144.019 117.906C144.337 118.196 144.589 118.55 144.775 118.97C144.971 119.39 145.069 119.894 145.069 120.482C145.069 121.201 144.939 121.864 144.677 122.47C144.416 123.077 144.024 123.6 143.501 124.038C142.988 124.477 142.349 124.818 141.583 125.06C140.827 125.303 139.955 125.424 138.965 125.424C138.471 125.424 137.976 125.378 137.481 125.284C136.987 125.191 136.506 125.065 136.039 124.906C135.582 124.748 135.157 124.561 134.765 124.346C134.373 124.122 134.037 123.884 133.757 123.632L134.765 122.036C134.887 121.85 135.031 121.705 135.199 121.602C135.367 121.49 135.587 121.434 135.857 121.434C136.109 121.434 136.333 121.49 136.529 121.602C136.735 121.714 136.954 121.836 137.187 121.966C137.421 122.097 137.691 122.218 137.999 122.33C138.317 122.442 138.713 122.498 139.189 122.498C139.525 122.498 139.81 122.466 140.043 122.4C140.277 122.326 140.463 122.228 140.603 122.106C140.743 121.985 140.846 121.85 140.911 121.7C140.977 121.551 141.009 121.397 141.009 121.238C141.009 120.949 140.911 120.711 140.715 120.524C140.519 120.338 140.263 120.179 139.945 120.048C139.628 119.908 139.264 119.782 138.853 119.67C138.452 119.549 138.041 119.414 137.621 119.264C137.201 119.115 136.786 118.938 136.375 118.732C135.974 118.518 135.615 118.252 135.297 117.934C134.98 117.608 134.723 117.211 134.527 116.744C134.331 116.278 134.233 115.713 134.233 115.05C134.233 114.434 134.35 113.851 134.583 113.3C134.826 112.74 135.185 112.25 135.661 111.83C136.137 111.41 136.735 111.079 137.453 110.836C138.172 110.584 139.012 110.458 139.973 110.458C140.496 110.458 141 110.505 141.485 110.598C141.98 110.692 142.442 110.822 142.871 110.99C143.301 111.158 143.693 111.359 144.047 111.592C144.402 111.816 144.715 112.064 144.985 112.334L144.005 113.86ZM152.057 125.424C151.367 125.424 150.755 125.326 150.223 125.13C149.701 124.925 149.257 124.64 148.893 124.276C148.539 123.903 148.268 123.455 148.081 122.932C147.895 122.41 147.801 121.826 147.801 121.182V113.678H146.569C146.345 113.678 146.154 113.608 145.995 113.468C145.837 113.319 145.757 113.104 145.757 112.824V111.13L148.067 110.682L148.921 107.14C149.033 106.692 149.351 106.468 149.873 106.468H152.141V110.71H155.669V113.678H152.141V120.888C152.141 121.224 152.221 121.504 152.379 121.728C152.547 121.943 152.785 122.05 153.093 122.05C153.252 122.05 153.383 122.036 153.485 122.008C153.597 121.971 153.691 121.934 153.765 121.896C153.849 121.85 153.924 121.812 153.989 121.784C154.064 121.747 154.148 121.728 154.241 121.728C154.372 121.728 154.475 121.761 154.549 121.826C154.633 121.882 154.717 121.976 154.801 122.106L156.117 124.164C155.557 124.584 154.927 124.902 154.227 125.116C153.527 125.322 152.804 125.424 152.057 125.424ZM171.462 113.86C171.35 114.038 171.229 114.164 171.098 114.238C170.977 114.313 170.818 114.35 170.622 114.35C170.417 114.35 170.212 114.308 170.006 114.224C169.801 114.131 169.577 114.033 169.334 113.93C169.101 113.828 168.835 113.734 168.536 113.65C168.238 113.557 167.897 113.51 167.514 113.51C166.964 113.51 166.539 113.618 166.24 113.832C165.951 114.038 165.806 114.327 165.806 114.7C165.806 114.971 165.9 115.195 166.086 115.372C166.282 115.55 166.539 115.708 166.856 115.848C167.174 115.979 167.533 116.105 167.934 116.226C168.336 116.348 168.746 116.483 169.166 116.632C169.586 116.782 169.997 116.959 170.398 117.164C170.8 117.36 171.159 117.608 171.476 117.906C171.794 118.196 172.046 118.55 172.232 118.97C172.428 119.39 172.526 119.894 172.526 120.482C172.526 121.201 172.396 121.864 172.134 122.47C171.873 123.077 171.481 123.6 170.958 124.038C170.445 124.477 169.806 124.818 169.04 125.06C168.284 125.303 167.412 125.424 166.422 125.424C165.928 125.424 165.433 125.378 164.938 125.284C164.444 125.191 163.963 125.065 163.496 124.906C163.039 124.748 162.614 124.561 162.222 124.346C161.83 124.122 161.494 123.884 161.214 123.632L162.222 122.036C162.344 121.85 162.488 121.705 162.656 121.602C162.824 121.49 163.044 121.434 163.314 121.434C163.566 121.434 163.79 121.49 163.986 121.602C164.192 121.714 164.411 121.836 164.644 121.966C164.878 122.097 165.148 122.218 165.456 122.33C165.774 122.442 166.17 122.498 166.646 122.498C166.982 122.498 167.267 122.466 167.5 122.4C167.734 122.326 167.92 122.228 168.06 122.106C168.2 121.985 168.303 121.85 168.368 121.7C168.434 121.551 168.466 121.397 168.466 121.238C168.466 120.949 168.368 120.711 168.172 120.524C167.976 120.338 167.72 120.179 167.402 120.048C167.085 119.908 166.721 119.782 166.31 119.67C165.909 119.549 165.498 119.414 165.078 119.264C164.658 119.115 164.243 118.938 163.832 118.732C163.431 118.518 163.072 118.252 162.754 117.934C162.437 117.608 162.18 117.211 161.984 116.744C161.788 116.278 161.69 115.713 161.69 115.05C161.69 114.434 161.807 113.851 162.04 113.3C162.283 112.74 162.642 112.25 163.118 111.83C163.594 111.41 164.192 111.079 164.91 110.836C165.629 110.584 166.469 110.458 167.43 110.458C167.953 110.458 168.457 110.505 168.942 110.598C169.437 110.692 169.899 110.822 170.328 110.99C170.758 111.158 171.15 111.359 171.504 111.592C171.859 111.816 172.172 112.064 172.442 112.334L171.462 113.86ZM178.478 110.682V119.894C178.478 120.613 178.642 121.168 178.968 121.56C179.295 121.952 179.776 122.148 180.41 122.148C180.886 122.148 181.33 122.05 181.74 121.854C182.16 121.658 182.566 121.383 182.958 121.028V110.682H187.298V125.2H184.61C184.069 125.2 183.714 124.958 183.546 124.472L183.28 123.632C183 123.903 182.711 124.15 182.412 124.374C182.114 124.589 181.792 124.776 181.446 124.934C181.11 125.084 180.746 125.2 180.354 125.284C179.962 125.378 179.533 125.424 179.066 125.424C178.273 125.424 177.568 125.289 176.952 125.018C176.346 124.738 175.832 124.351 175.412 123.856C174.992 123.362 174.675 122.778 174.46 122.106C174.246 121.434 174.138 120.697 174.138 119.894V110.682H178.478ZM195.284 110.43C195.9 110.43 196.479 110.491 197.02 110.612C197.571 110.734 198.08 110.906 198.546 111.13H202.928V112.712C202.928 112.955 202.858 113.146 202.718 113.286C202.588 113.426 202.359 113.534 202.032 113.608L200.968 113.846C201.099 114.266 201.164 114.7 201.164 115.148C201.164 115.876 201.01 116.53 200.702 117.108C200.404 117.687 199.988 118.182 199.456 118.592C198.934 118.994 198.313 119.306 197.594 119.53C196.876 119.745 196.106 119.852 195.284 119.852C194.827 119.852 194.398 119.824 193.996 119.768C193.679 119.955 193.52 120.17 193.52 120.412C193.52 120.655 193.646 120.832 193.898 120.944C194.16 121.047 194.5 121.122 194.92 121.168C195.34 121.206 195.821 121.234 196.362 121.252C196.904 121.262 197.454 121.294 198.014 121.35C198.574 121.397 199.125 121.481 199.666 121.602C200.208 121.724 200.688 121.92 201.108 122.19C201.528 122.461 201.864 122.825 202.116 123.282C202.378 123.73 202.508 124.304 202.508 125.004C202.508 125.658 202.35 126.297 202.032 126.922C201.715 127.548 201.248 128.103 200.632 128.588C200.016 129.074 199.26 129.461 198.364 129.75C197.468 130.049 196.442 130.198 195.284 130.198C194.146 130.198 193.161 130.091 192.33 129.876C191.509 129.662 190.823 129.377 190.272 129.022C189.731 128.677 189.33 128.276 189.068 127.818C188.807 127.361 188.676 126.885 188.676 126.39C188.676 125.746 188.872 125.205 189.264 124.766C189.656 124.318 190.193 123.968 190.874 123.716C190.548 123.502 190.286 123.226 190.09 122.89C189.894 122.554 189.796 122.13 189.796 121.616C189.796 121.402 189.834 121.178 189.908 120.944C189.983 120.702 190.1 120.468 190.258 120.244C190.417 120.02 190.618 119.806 190.86 119.6C191.103 119.395 191.392 119.213 191.728 119.054C190.972 118.653 190.375 118.121 189.936 117.458C189.507 116.796 189.292 116.026 189.292 115.148C189.292 114.42 189.446 113.767 189.754 113.188C190.062 112.6 190.482 112.106 191.014 111.704C191.556 111.294 192.19 110.981 192.918 110.766C193.646 110.542 194.435 110.43 195.284 110.43ZM198.504 125.732C198.504 125.499 198.43 125.312 198.28 125.172C198.14 125.032 197.944 124.92 197.692 124.836C197.45 124.752 197.16 124.692 196.824 124.654C196.498 124.617 196.143 124.589 195.76 124.57C195.378 124.552 194.981 124.538 194.57 124.528C194.16 124.51 193.754 124.477 193.352 124.43C193.082 124.617 192.858 124.827 192.68 125.06C192.512 125.284 192.428 125.541 192.428 125.83C192.428 126.036 192.47 126.222 192.554 126.39C192.648 126.558 192.806 126.703 193.03 126.824C193.254 126.946 193.553 127.039 193.926 127.104C194.309 127.179 194.79 127.216 195.368 127.216C195.994 127.216 196.507 127.179 196.908 127.104C197.31 127.03 197.627 126.927 197.86 126.796C198.103 126.666 198.271 126.507 198.364 126.32C198.458 126.143 198.504 125.947 198.504 125.732ZM195.284 117.178C196.003 117.178 196.521 117.001 196.838 116.646C197.165 116.282 197.328 115.816 197.328 115.246C197.328 114.658 197.165 114.196 196.838 113.86C196.521 113.524 196.003 113.356 195.284 113.356C194.566 113.356 194.043 113.524 193.716 113.86C193.399 114.196 193.24 114.658 193.24 115.246C193.24 115.526 193.278 115.783 193.352 116.016C193.436 116.25 193.562 116.455 193.73 116.632C193.898 116.8 194.108 116.936 194.36 117.038C194.622 117.132 194.93 117.178 195.284 117.178ZM209.441 110.43C210.057 110.43 210.635 110.491 211.177 110.612C211.727 110.734 212.236 110.906 212.703 111.13H217.085V112.712C217.085 112.955 217.015 113.146 216.875 113.286C216.744 113.426 216.515 113.534 216.189 113.608L215.125 113.846C215.255 114.266 215.321 114.7 215.321 115.148C215.321 115.876 215.167 116.53 214.859 117.108C214.56 117.687 214.145 118.182 213.613 118.592C213.09 118.994 212.469 119.306 211.751 119.53C211.032 119.745 210.262 119.852 209.441 119.852C208.983 119.852 208.554 119.824 208.153 119.768C207.835 119.955 207.677 120.17 207.677 120.412C207.677 120.655 207.803 120.832 208.055 120.944C208.316 121.047 208.657 121.122 209.077 121.168C209.497 121.206 209.977 121.234 210.519 121.252C211.06 121.262 211.611 121.294 212.171 121.35C212.731 121.397 213.281 121.481 213.823 121.602C214.364 121.724 214.845 121.92 215.265 122.19C215.685 122.461 216.021 122.825 216.273 123.282C216.534 123.73 216.665 124.304 216.665 125.004C216.665 125.658 216.506 126.297 216.189 126.922C215.871 127.548 215.405 128.103 214.789 128.588C214.173 129.074 213.417 129.461 212.521 129.75C211.625 130.049 210.598 130.198 209.441 130.198C208.302 130.198 207.317 130.091 206.487 129.876C205.665 129.662 204.979 129.377 204.429 129.022C203.887 128.677 203.486 128.276 203.225 127.818C202.963 127.361 202.833 126.885 202.833 126.39C202.833 125.746 203.029 125.205 203.421 124.766C203.813 124.318 204.349 123.968 205.031 123.716C204.704 123.502 204.443 123.226 204.247 122.89C204.051 122.554 203.953 122.13 203.953 121.616C203.953 121.402 203.99 121.178 204.065 120.944C204.139 120.702 204.256 120.468 204.415 120.244C204.573 120.02 204.774 119.806 205.017 119.6C205.259 119.395 205.549 119.213 205.885 119.054C205.129 118.653 204.531 118.121 204.093 117.458C203.663 116.796 203.449 116.026 203.449 115.148C203.449 114.42 203.603 113.767 203.911 113.188C204.219 112.6 204.639 112.106 205.171 111.704C205.712 111.294 206.347 110.981 207.075 110.766C207.803 110.542 208.591 110.43 209.441 110.43ZM212.661 125.732C212.661 125.499 212.586 125.312 212.437 125.172C212.297 125.032 212.101 124.92 211.849 124.836C211.606 124.752 211.317 124.692 210.981 124.654C210.654 124.617 210.299 124.589 209.917 124.57C209.534 124.552 209.137 124.538 208.727 124.528C208.316 124.51 207.91 124.477 207.509 124.43C207.238 124.617 207.014 124.827 206.837 125.06C206.669 125.284 206.585 125.541 206.585 125.83C206.585 126.036 206.627 126.222 206.711 126.39C206.804 126.558 206.963 126.703 207.187 126.824C207.411 126.946 207.709 127.039 208.083 127.104C208.465 127.179 208.946 127.216 209.525 127.216C210.15 127.216 210.663 127.179 211.065 127.104C211.466 127.03 211.783 126.927 212.017 126.796C212.259 126.666 212.427 126.507 212.521 126.32C212.614 126.143 212.661 125.947 212.661 125.732ZM209.441 117.178C210.159 117.178 210.677 117.001 210.995 116.646C211.321 116.282 211.485 115.816 211.485 115.246C211.485 114.658 211.321 114.196 210.995 113.86C210.677 113.524 210.159 113.356 209.441 113.356C208.722 113.356 208.199 113.524 207.873 113.86C207.555 114.196 207.397 114.658 207.397 115.246C207.397 115.526 207.434 115.783 207.509 116.016C207.593 116.25 207.719 116.455 207.887 116.632C208.055 116.8 208.265 116.936 208.517 117.038C208.778 117.132 209.086 117.178 209.441 117.178ZM224.689 110.458C225.65 110.458 226.528 110.608 227.321 110.906C228.124 111.205 228.81 111.639 229.379 112.208C229.958 112.778 230.406 113.478 230.723 114.308C231.05 115.13 231.213 116.063 231.213 117.108C231.213 117.435 231.199 117.701 231.171 117.906C231.143 118.112 231.092 118.275 231.017 118.396C230.942 118.518 230.84 118.602 230.709 118.648C230.588 118.695 230.429 118.718 230.233 118.718H221.861C222.001 119.932 222.37 120.814 222.967 121.364C223.564 121.906 224.334 122.176 225.277 122.176C225.781 122.176 226.215 122.116 226.579 121.994C226.943 121.873 227.265 121.738 227.545 121.588C227.834 121.439 228.096 121.304 228.329 121.182C228.572 121.061 228.824 121 229.085 121C229.43 121 229.692 121.126 229.869 121.378L231.129 122.932C230.681 123.446 230.196 123.866 229.673 124.192C229.16 124.51 228.628 124.762 228.077 124.948C227.536 125.126 226.99 125.247 226.439 125.312C225.898 125.387 225.38 125.424 224.885 125.424C223.868 125.424 222.911 125.261 222.015 124.934C221.128 124.598 220.349 124.104 219.677 123.45C219.014 122.797 218.487 121.985 218.095 121.014C217.712 120.044 217.521 118.914 217.521 117.626C217.521 116.656 217.684 115.736 218.011 114.868C218.347 114 218.823 113.24 219.439 112.586C220.064 111.933 220.816 111.415 221.693 111.032C222.58 110.65 223.578 110.458 224.689 110.458ZM224.773 113.454C223.942 113.454 223.294 113.692 222.827 114.168C222.36 114.635 222.052 115.312 221.903 116.198H227.321C227.321 115.853 227.274 115.517 227.181 115.19C227.097 114.864 226.952 114.574 226.747 114.322C226.551 114.061 226.29 113.851 225.963 113.692C225.636 113.534 225.24 113.454 224.773 113.454ZM242.079 113.86C241.967 114.038 241.846 114.164 241.715 114.238C241.594 114.313 241.435 114.35 241.239 114.35C241.034 114.35 240.829 114.308 240.623 114.224C240.418 114.131 240.194 114.033 239.951 113.93C239.718 113.828 239.452 113.734 239.153 113.65C238.855 113.557 238.514 113.51 238.131 113.51C237.581 113.51 237.156 113.618 236.857 113.832C236.568 114.038 236.423 114.327 236.423 114.7C236.423 114.971 236.517 115.195 236.703 115.372C236.899 115.55 237.156 115.708 237.473 115.848C237.791 115.979 238.15 116.105 238.551 116.226C238.953 116.348 239.363 116.483 239.783 116.632C240.203 116.782 240.614 116.959 241.015 117.164C241.417 117.36 241.776 117.608 242.093 117.906C242.411 118.196 242.663 118.55 242.849 118.97C243.045 119.39 243.143 119.894 243.143 120.482C243.143 121.201 243.013 121.864 242.751 122.47C242.49 123.077 242.098 123.6 241.575 124.038C241.062 124.477 240.423 124.818 239.657 125.06C238.901 125.303 238.029 125.424 237.039 125.424C236.545 125.424 236.05 125.378 235.555 125.284C235.061 125.191 234.58 125.065 234.113 124.906C233.656 124.748 233.231 124.561 232.839 124.346C232.447 124.122 232.111 123.884 231.831 123.632L232.839 122.036C232.961 121.85 233.105 121.705 233.273 121.602C233.441 121.49 233.661 121.434 233.931 121.434C234.183 121.434 234.407 121.49 234.603 121.602C234.809 121.714 235.028 121.836 235.261 121.966C235.495 122.097 235.765 122.218 236.073 122.33C236.391 122.442 236.787 122.498 237.263 122.498C237.599 122.498 237.884 122.466 238.117 122.4C238.351 122.326 238.537 122.228 238.677 122.106C238.817 121.985 238.92 121.85 238.985 121.7C239.051 121.551 239.083 121.397 239.083 121.238C239.083 120.949 238.985 120.711 238.789 120.524C238.593 120.338 238.337 120.179 238.019 120.048C237.702 119.908 237.338 119.782 236.927 119.67C236.526 119.549 236.115 119.414 235.695 119.264C235.275 119.115 234.86 118.938 234.449 118.732C234.048 118.518 233.689 118.252 233.371 117.934C233.054 117.608 232.797 117.211 232.601 116.744C232.405 116.278 232.307 115.713 232.307 115.05C232.307 114.434 232.424 113.851 232.657 113.3C232.9 112.74 233.259 112.25 233.735 111.83C234.211 111.41 234.809 111.079 235.527 110.836C236.246 110.584 237.086 110.458 238.047 110.458C238.57 110.458 239.074 110.505 239.559 110.598C240.054 110.692 240.516 110.822 240.945 110.99C241.375 111.158 241.767 111.359 242.121 111.592C242.476 111.816 242.789 112.064 243.059 112.334L242.079 113.86ZM250.131 125.424C249.441 125.424 248.829 125.326 248.297 125.13C247.775 124.925 247.331 124.64 246.967 124.276C246.613 123.903 246.342 123.455 246.155 122.932C245.969 122.41 245.875 121.826 245.875 121.182V113.678H244.643C244.419 113.678 244.228 113.608 244.069 113.468C243.911 113.319 243.831 113.104 243.831 112.824V111.13L246.141 110.682L246.995 107.14C247.107 106.692 247.425 106.468 247.947 106.468H250.215V110.71H253.743V113.678H250.215V120.888C250.215 121.224 250.295 121.504 250.453 121.728C250.621 121.943 250.859 122.05 251.167 122.05C251.326 122.05 251.457 122.036 251.559 122.008C251.671 121.971 251.765 121.934 251.839 121.896C251.923 121.85 251.998 121.812 252.063 121.784C252.138 121.747 252.222 121.728 252.315 121.728C252.446 121.728 252.549 121.761 252.623 121.826C252.707 121.882 252.791 121.976 252.875 122.106L254.191 124.164C253.631 124.584 253.001 124.902 252.301 125.116C251.601 125.322 250.878 125.424 250.131 125.424ZM260.226 110.682V125.2H255.886V110.682H260.226ZM260.73 106.706C260.73 107.052 260.66 107.378 260.52 107.686C260.38 107.985 260.189 108.251 259.946 108.484C259.704 108.708 259.419 108.89 259.092 109.03C258.775 109.161 258.434 109.226 258.07 109.226C257.716 109.226 257.384 109.161 257.076 109.03C256.768 108.89 256.493 108.708 256.25 108.484C256.017 108.251 255.83 107.985 255.69 107.686C255.56 107.378 255.494 107.052 255.494 106.706C255.494 106.352 255.56 106.02 255.69 105.712C255.83 105.404 256.017 105.134 256.25 104.9C256.493 104.667 256.768 104.485 257.076 104.354C257.384 104.224 257.716 104.158 258.07 104.158C258.434 104.158 258.775 104.224 259.092 104.354C259.419 104.485 259.704 104.667 259.946 104.9C260.189 105.134 260.38 105.404 260.52 105.712C260.66 106.02 260.73 106.352 260.73 106.706ZM269.699 110.458C270.8 110.458 271.803 110.631 272.709 110.976C273.614 111.322 274.389 111.816 275.033 112.46C275.686 113.104 276.19 113.888 276.545 114.812C276.909 115.727 277.091 116.758 277.091 117.906C277.091 119.064 276.909 120.109 276.545 121.042C276.19 121.966 275.686 122.755 275.033 123.408C274.389 124.052 273.614 124.552 272.709 124.906C271.803 125.252 270.8 125.424 269.699 125.424C268.588 125.424 267.575 125.252 266.661 124.906C265.755 124.552 264.971 124.052 264.309 123.408C263.655 122.755 263.147 121.966 262.783 121.042C262.428 120.109 262.251 119.064 262.251 117.906C262.251 116.758 262.428 115.727 262.783 114.812C263.147 113.888 263.655 113.104 264.309 112.46C264.971 111.816 265.755 111.322 266.661 110.976C267.575 110.631 268.588 110.458 269.699 110.458ZM269.699 122.204C270.697 122.204 271.43 121.854 271.897 121.154C272.373 120.445 272.611 119.372 272.611 117.934C272.611 116.497 272.373 115.428 271.897 114.728C271.43 114.028 270.697 113.678 269.699 113.678C268.672 113.678 267.921 114.028 267.445 114.728C266.969 115.428 266.731 116.497 266.731 117.934C266.731 119.372 266.969 120.445 267.445 121.154C267.921 121.854 268.672 122.204 269.699 122.204ZM278.973 125.2V110.682H281.661C281.932 110.682 282.156 110.743 282.333 110.864C282.52 110.986 282.65 111.168 282.725 111.41L282.977 112.25C283.257 111.989 283.546 111.746 283.845 111.522C284.144 111.298 284.461 111.112 284.797 110.962C285.142 110.804 285.511 110.682 285.903 110.598C286.304 110.505 286.738 110.458 287.205 110.458C287.998 110.458 288.698 110.598 289.305 110.878C289.921 111.149 290.439 111.532 290.859 112.026C291.279 112.512 291.596 113.095 291.811 113.776C292.026 114.448 292.133 115.181 292.133 115.974V125.2H287.793V115.974C287.793 115.265 287.63 114.714 287.303 114.322C286.976 113.921 286.496 113.72 285.861 113.72C285.385 113.72 284.937 113.823 284.517 114.028C284.097 114.234 283.696 114.509 283.313 114.854V125.2H278.973ZM303.591 113.86C303.479 114.038 303.358 114.164 303.227 114.238C303.106 114.313 302.947 114.35 302.751 114.35C302.546 114.35 302.34 114.308 302.135 114.224C301.93 114.131 301.706 114.033 301.463 113.93C301.23 113.828 300.964 113.734 300.665 113.65C300.366 113.557 300.026 113.51 299.643 113.51C299.092 113.51 298.668 113.618 298.369 113.832C298.08 114.038 297.935 114.327 297.935 114.7C297.935 114.971 298.028 115.195 298.215 115.372C298.411 115.55 298.668 115.708 298.985 115.848C299.302 115.979 299.662 116.105 300.063 116.226C300.464 116.348 300.875 116.483 301.295 116.632C301.715 116.782 302.126 116.959 302.527 117.164C302.928 117.36 303.288 117.608 303.605 117.906C303.922 118.196 304.174 118.55 304.361 118.97C304.557 119.39 304.655 119.894 304.655 120.482C304.655 121.201 304.524 121.864 304.263 122.47C304.002 123.077 303.61 123.6 303.087 124.038C302.574 124.477 301.934 124.818 301.169 125.06C300.413 125.303 299.54 125.424 298.551 125.424C298.056 125.424 297.562 125.378 297.067 125.284C296.572 125.191 296.092 125.065 295.625 124.906C295.168 124.748 294.743 124.561 294.351 124.346C293.959 124.122 293.623 123.884 293.343 123.632L294.351 122.036C294.472 121.85 294.617 121.705 294.785 121.602C294.953 121.49 295.172 121.434 295.443 121.434C295.695 121.434 295.919 121.49 296.115 121.602C296.32 121.714 296.54 121.836 296.773 121.966C297.006 122.097 297.277 122.218 297.585 122.33C297.902 122.442 298.299 122.498 298.775 122.498C299.111 122.498 299.396 122.466 299.629 122.4C299.862 122.326 300.049 122.228 300.189 122.106C300.329 121.985 300.432 121.85 300.497 121.7C300.562 121.551 300.595 121.397 300.595 121.238C300.595 120.949 300.497 120.711 300.301 120.524C300.105 120.338 299.848 120.179 299.531 120.048C299.214 119.908 298.85 119.782 298.439 119.67C298.038 119.549 297.627 119.414 297.207 119.264C296.787 119.115 296.372 118.938 295.961 118.732C295.56 118.518 295.2 118.252 294.883 117.934C294.566 117.608 294.309 117.211 294.113 116.744C293.917 116.278 293.819 115.713 293.819 115.05C293.819 114.434 293.936 113.851 294.169 113.3C294.412 112.74 294.771 112.25 295.247 111.83C295.723 111.41 296.32 111.079 297.039 110.836C297.758 110.584 298.598 110.458 299.559 110.458C300.082 110.458 300.586 110.505 301.071 110.598C301.566 110.692 302.028 110.822 302.457 110.99C302.886 111.158 303.278 111.359 303.633 111.592C303.988 111.816 304.3 112.064 304.571 112.334L303.591 113.86Z" fill="white"></path> <defs> <filter id="filter0_ddi" x="345" y="-7" width="292" height="520" filterUnits="userSpaceOnUse" color-interpolation-filters="sRGB"> <feFlood flood-opacity="0" result="BackgroundImageFix"></feFlood> <feColorMatrix in="SourceAlpha" type="matrix" values="0 0 0 0 0 0 0 0 0 0 0 0 0 0 0 0 0 0 127 0"></feColorMatrix> <feOffset dy="12"></feOffset> <feGaussianBlur stdDeviation="17"></feGaussianBlur> <feColorMatrix type="matrix" values="0 0 0 0 0 0 0 0 0 0 0 0 0 0 0 0 0 0 0.05 0"></feColorMatrix> <feBlend mode="normal" in2="BackgroundImageFix" result="effect1_dropShadow"></feBlend> <feColorMatrix in="SourceAlpha" type="matrix" values="0 0 0 0 0 0 0 0 0 0 0 0 0 0 0 0 0 0 127 0"></feColorMatrix> <feOffset dy="7"></feOffset> <feGaussianBlur stdDeviation="11.5"></feGaussianBlur> <feColorMatrix type="matrix" values="0 0 0 0 0 0 0 0 0 0 0 0 0 0 0 0 0 0 0.01 0"></feColorMatrix> <feBlend mode="normal" in2="effect1_dropShadow" result="effect2_dropShadow"></feBlend> <feBlend mode="normal" in="SourceGraphic" in2="effect2_dropShadow" result="shape"></feBlend> <feColorMatrix in="SourceAlpha" type="matrix" values="0 0 0 0 0 0 0 0 0 0 0 0 0 0 0 0 0 0 127 0" result="hardAlpha"></feColorMatrix> <feOffset dy="-4"></feOffset> <feGaussianBlur stdDeviation="6.5"></feGaussianBlur> <feComposite in2="hardAlpha" operator="arithmetic" k2="-1" k3="1"></feComposite> <feColorMatrix type="matrix" values="0 0 0 0 0 0 0 0 0 0 0 0 0 0 0 0 0 0 0.08 0"></feColorMatrix> <feBlend mode="normal" in2="shape" result="effect3_innerShadow"></feBlend> </filter> </defs> </svg> 