<svg width="460" height="1007" viewBox="0 0 460 1007" fill="none" xmlns="http://www.w3.org/2000/svg">
<rect x="266" y="845" width="126" height="36" rx="18" fill="#0084FF"/>
<path d="M284.77 869H282.83V854.67H284.77V869ZM287.859 869V858.87H288.929C289.183 858.87 289.339 858.993 289.399 859.24L289.529 860.28C289.903 859.82 290.323 859.443 290.789 859.15C291.256 858.857 291.796 858.71 292.409 858.71C293.089 858.71 293.639 858.9 294.059 859.28C294.486 859.66 294.793 860.173 294.979 860.82C295.126 860.453 295.313 860.137 295.539 859.87C295.773 859.603 296.033 859.383 296.319 859.21C296.606 859.037 296.909 858.91 297.229 858.83C297.556 858.75 297.886 858.71 298.219 858.71C298.753 858.71 299.226 858.797 299.639 858.97C300.059 859.137 300.413 859.383 300.699 859.71C300.993 860.037 301.216 860.44 301.369 860.92C301.523 861.393 301.599 861.937 301.599 862.55V869H299.809V862.55C299.809 861.757 299.636 861.157 299.289 860.75C298.943 860.337 298.443 860.13 297.789 860.13C297.496 860.13 297.216 860.183 296.949 860.29C296.689 860.39 296.459 860.54 296.259 860.74C296.059 860.94 295.899 861.193 295.779 861.5C295.666 861.8 295.609 862.15 295.609 862.55V869H293.819V862.55C293.819 861.737 293.656 861.13 293.329 860.73C293.003 860.33 292.526 860.13 291.899 860.13C291.459 860.13 291.053 860.25 290.679 860.49C290.306 860.723 289.963 861.043 289.649 861.45V869H287.859ZM306.095 866.56C306.421 867 306.778 867.31 307.165 867.49C307.551 867.67 307.985 867.76 308.465 867.76C309.411 867.76 310.138 867.423 310.645 866.75C311.151 866.077 311.405 865.117 311.405 863.87C311.405 863.21 311.345 862.643 311.225 862.17C311.111 861.697 310.945 861.31 310.725 861.01C310.505 860.703 310.235 860.48 309.915 860.34C309.595 860.2 309.231 860.13 308.825 860.13C308.245 860.13 307.735 860.263 307.295 860.53C306.861 860.797 306.461 861.173 306.095 861.66V866.56ZM306.005 860.44C306.431 859.913 306.925 859.49 307.485 859.17C308.045 858.85 308.685 858.69 309.405 858.69C309.991 858.69 310.521 858.803 310.995 859.03C311.468 859.25 311.871 859.58 312.205 860.02C312.538 860.453 312.795 860.993 312.975 861.64C313.155 862.287 313.245 863.03 313.245 863.87C313.245 864.617 313.145 865.313 312.945 865.96C312.745 866.6 312.455 867.157 312.075 867.63C311.701 868.097 311.241 868.467 310.695 868.74C310.155 869.007 309.545 869.14 308.865 869.14C308.245 869.14 307.711 869.037 307.265 868.83C306.825 868.617 306.435 868.323 306.095 867.95V872.43H304.305V858.87H305.375C305.628 858.87 305.785 858.993 305.845 859.24L306.005 860.44ZM317.355 854.27V869H315.575V854.27H317.355ZM327.022 862.83C327.022 862.417 326.962 862.04 326.842 861.7C326.729 861.353 326.559 861.057 326.332 860.81C326.112 860.557 325.842 860.363 325.522 860.23C325.202 860.09 324.839 860.02 324.432 860.02C323.579 860.02 322.902 860.27 322.402 860.77C321.909 861.263 321.602 861.95 321.482 862.83H327.022ZM328.462 867.58C328.242 867.847 327.979 868.08 327.672 868.28C327.365 868.473 327.035 868.633 326.682 868.76C326.335 868.887 325.975 868.98 325.602 869.04C325.229 869.107 324.859 869.14 324.492 869.14C323.792 869.14 323.145 869.023 322.552 868.79C321.965 868.55 321.455 868.203 321.022 867.75C320.595 867.29 320.262 866.723 320.022 866.05C319.782 865.377 319.662 864.603 319.662 863.73C319.662 863.023 319.769 862.363 319.982 861.75C320.202 861.137 320.515 860.607 320.922 860.16C321.329 859.707 321.825 859.353 322.412 859.1C322.999 858.84 323.659 858.71 324.392 858.71C324.999 858.71 325.559 858.813 326.072 859.02C326.592 859.22 327.039 859.513 327.412 859.9C327.792 860.28 328.089 860.753 328.302 861.32C328.515 861.88 328.622 862.52 328.622 863.24C328.622 863.52 328.592 863.707 328.532 863.8C328.472 863.893 328.359 863.94 328.192 863.94H321.422C321.442 864.58 321.529 865.137 321.682 865.61C321.842 866.083 322.062 866.48 322.342 866.8C322.622 867.113 322.955 867.35 323.342 867.51C323.729 867.663 324.162 867.74 324.642 867.74C325.089 867.74 325.472 867.69 325.792 867.59C326.119 867.483 326.399 867.37 326.632 867.25C326.865 867.13 327.059 867.02 327.212 866.92C327.372 866.813 327.509 866.76 327.622 866.76C327.769 866.76 327.882 866.817 327.962 866.93L328.462 867.58ZM330.808 869V858.87H331.878C332.132 858.87 332.288 858.993 332.348 859.24L332.478 860.28C332.852 859.82 333.272 859.443 333.738 859.15C334.205 858.857 334.745 858.71 335.358 858.71C336.038 858.71 336.588 858.9 337.008 859.28C337.435 859.66 337.742 860.173 337.928 860.82C338.075 860.453 338.262 860.137 338.488 859.87C338.722 859.603 338.982 859.383 339.268 859.21C339.555 859.037 339.858 858.91 340.178 858.83C340.505 858.75 340.835 858.71 341.168 858.71C341.702 858.71 342.175 858.797 342.588 858.97C343.008 859.137 343.362 859.383 343.648 859.71C343.942 860.037 344.165 860.44 344.318 860.92C344.472 861.393 344.548 861.937 344.548 862.55V869H342.758V862.55C342.758 861.757 342.585 861.157 342.238 860.75C341.892 860.337 341.392 860.13 340.738 860.13C340.445 860.13 340.165 860.183 339.898 860.29C339.638 860.39 339.408 860.54 339.208 860.74C339.008 860.94 338.848 861.193 338.728 861.5C338.615 861.8 338.558 862.15 338.558 862.55V869H336.768V862.55C336.768 861.737 336.605 861.13 336.278 860.73C335.952 860.33 335.475 860.13 334.848 860.13C334.408 860.13 334.002 860.25 333.628 860.49C333.255 860.723 332.912 861.043 332.598 861.45V869H330.808ZM354.034 862.83C354.034 862.417 353.974 862.04 353.854 861.7C353.74 861.353 353.57 861.057 353.344 860.81C353.124 860.557 352.854 860.363 352.534 860.23C352.214 860.09 351.85 860.02 351.444 860.02C350.59 860.02 349.914 860.27 349.414 860.77C348.92 861.263 348.614 861.95 348.494 862.83H354.034ZM355.474 867.58C355.254 867.847 354.99 868.08 354.684 868.28C354.377 868.473 354.047 868.633 353.694 868.76C353.347 868.887 352.987 868.98 352.614 869.04C352.24 869.107 351.87 869.14 351.504 869.14C350.804 869.14 350.157 869.023 349.564 868.79C348.977 868.55 348.467 868.203 348.034 867.75C347.607 867.29 347.274 866.723 347.034 866.05C346.794 865.377 346.674 864.603 346.674 863.73C346.674 863.023 346.78 862.363 346.994 861.75C347.214 861.137 347.527 860.607 347.934 860.16C348.34 859.707 348.837 859.353 349.424 859.1C350.01 858.84 350.67 858.71 351.404 858.71C352.01 858.71 352.57 858.813 353.084 859.02C353.604 859.22 354.05 859.513 354.424 859.9C354.804 860.28 355.1 860.753 355.314 861.32C355.527 861.88 355.634 862.52 355.634 863.24C355.634 863.52 355.604 863.707 355.544 863.8C355.484 863.893 355.37 863.94 355.204 863.94H348.434C348.454 864.58 348.54 865.137 348.694 865.61C348.854 866.083 349.074 866.48 349.354 866.8C349.634 867.113 349.967 867.35 350.354 867.51C350.74 867.663 351.174 867.74 351.654 867.74C352.1 867.74 352.484 867.69 352.804 867.59C353.13 867.483 353.41 867.37 353.644 867.25C353.877 867.13 354.07 867.02 354.224 866.92C354.384 866.813 354.52 866.76 354.634 866.76C354.78 866.76 354.894 866.817 354.974 866.93L355.474 867.58ZM359.5 860.34C359.72 860.093 359.953 859.87 360.2 859.67C360.447 859.47 360.707 859.3 360.98 859.16C361.26 859.013 361.553 858.903 361.86 858.83C362.173 858.75 362.51 858.71 362.87 858.71C363.423 858.71 363.91 858.803 364.33 858.99C364.757 859.17 365.11 859.43 365.39 859.77C365.677 860.103 365.893 860.507 366.04 860.98C366.187 861.453 366.26 861.977 366.26 862.55V869H364.47V862.55C364.47 861.783 364.293 861.19 363.94 860.77C363.593 860.343 363.063 860.13 362.35 860.13C361.823 860.13 361.33 860.257 360.87 860.51C360.417 860.763 359.997 861.107 359.61 861.54V869H357.82V858.87H358.89C359.143 858.87 359.3 858.993 359.36 859.24L359.5 860.34ZM371.946 869.16C371.146 869.16 370.529 868.937 370.096 868.49C369.669 868.043 369.456 867.4 369.456 866.56V860.36H368.236C368.129 860.36 368.039 860.33 367.966 860.27C367.892 860.203 367.856 860.103 367.856 859.97V859.26L369.516 859.05L369.926 855.92C369.946 855.82 369.989 855.74 370.056 855.68C370.129 855.613 370.222 855.58 370.336 855.58H371.236V859.07H374.166V860.36H371.236V866.44C371.236 866.867 371.339 867.183 371.546 867.39C371.752 867.597 372.019 867.7 372.346 867.7C372.532 867.7 372.692 867.677 372.826 867.63C372.966 867.577 373.086 867.52 373.186 867.46C373.286 867.4 373.369 867.347 373.436 867.3C373.509 867.247 373.572 867.22 373.626 867.22C373.719 867.22 373.802 867.277 373.876 867.39L374.396 868.24C374.089 868.527 373.719 868.753 373.286 868.92C372.852 869.08 372.406 869.16 371.946 869.16Z" fill="white"/>
</svg>
