<svg width="460" height="1007" viewBox="0 0 460 1007" fill="none" xmlns="http://www.w3.org/2000/svg">
<rect x="289" y="405" width="103" height="36" rx="18" fill="#0084FF"/>
<path d="M314.8 422.61C315.36 422.61 315.853 422.543 316.28 422.41C316.713 422.27 317.073 422.077 317.36 421.83C317.653 421.577 317.873 421.277 318.02 420.93C318.167 420.583 318.24 420.2 318.24 419.78C318.24 418.927 317.96 418.283 317.4 417.85C316.84 417.417 316 417.2 314.88 417.2H312.76V422.61H314.8ZM321.42 430H319.7C319.347 430 319.087 429.863 318.92 429.59L315.2 424.47C315.087 424.31 314.963 424.197 314.83 424.13C314.703 424.057 314.503 424.02 314.23 424.02H312.76V430H310.83V415.67H314.88C315.787 415.67 316.57 415.763 317.23 415.95C317.89 416.13 318.433 416.393 318.86 416.74C319.293 417.087 319.613 417.507 319.82 418C320.027 418.487 320.13 419.033 320.13 419.64C320.13 420.147 320.05 420.62 319.89 421.06C319.73 421.5 319.497 421.897 319.19 422.25C318.89 422.597 318.52 422.893 318.08 423.14C317.647 423.387 317.153 423.573 316.6 423.7C316.847 423.84 317.06 424.043 317.24 424.31L321.42 430ZM329.085 423.83C329.085 423.417 329.025 423.04 328.905 422.7C328.791 422.353 328.621 422.057 328.395 421.81C328.175 421.557 327.905 421.363 327.585 421.23C327.265 421.09 326.901 421.02 326.495 421.02C325.641 421.02 324.965 421.27 324.465 421.77C323.971 422.263 323.665 422.95 323.545 423.83H329.085ZM330.525 428.58C330.305 428.847 330.041 429.08 329.735 429.28C329.428 429.473 329.098 429.633 328.745 429.76C328.398 429.887 328.038 429.98 327.665 430.04C327.291 430.107 326.921 430.14 326.555 430.14C325.855 430.14 325.208 430.023 324.615 429.79C324.028 429.55 323.518 429.203 323.085 428.75C322.658 428.29 322.325 427.723 322.085 427.05C321.845 426.377 321.725 425.603 321.725 424.73C321.725 424.023 321.831 423.363 322.045 422.75C322.265 422.137 322.578 421.607 322.985 421.16C323.391 420.707 323.888 420.353 324.475 420.1C325.061 419.84 325.721 419.71 326.455 419.71C327.061 419.71 327.621 419.813 328.135 420.02C328.655 420.22 329.101 420.513 329.475 420.9C329.855 421.28 330.151 421.753 330.365 422.32C330.578 422.88 330.685 423.52 330.685 424.24C330.685 424.52 330.655 424.707 330.595 424.8C330.535 424.893 330.421 424.94 330.255 424.94H323.485C323.505 425.58 323.591 426.137 323.745 426.61C323.905 427.083 324.125 427.48 324.405 427.8C324.685 428.113 325.018 428.35 325.405 428.51C325.791 428.663 326.225 428.74 326.705 428.74C327.151 428.74 327.535 428.69 327.855 428.59C328.181 428.483 328.461 428.37 328.695 428.25C328.928 428.13 329.121 428.02 329.275 427.92C329.435 427.813 329.571 427.76 329.685 427.76C329.831 427.76 329.945 427.817 330.025 427.93L330.525 428.58ZM341.336 419.87L337.206 430H335.606L331.476 419.87H332.926C333.073 419.87 333.193 419.907 333.286 419.98C333.379 420.053 333.443 420.14 333.476 420.24L336.046 426.76C336.126 427.007 336.196 427.247 336.256 427.48C336.316 427.713 336.373 427.947 336.426 428.18C336.479 427.947 336.536 427.713 336.596 427.48C336.656 427.247 336.729 427.007 336.816 426.76L339.416 420.24C339.456 420.133 339.523 420.047 339.616 419.98C339.709 419.907 339.819 419.87 339.946 419.87H341.336ZM344.849 419.87V430H343.069V419.87H344.849ZM345.229 416.69C345.229 416.863 345.192 417.027 345.119 417.18C345.052 417.327 344.959 417.46 344.839 417.58C344.725 417.693 344.589 417.783 344.429 417.85C344.275 417.917 344.112 417.95 343.939 417.95C343.765 417.95 343.602 417.917 343.449 417.85C343.302 417.783 343.172 417.693 343.059 417.58C342.945 417.46 342.855 417.327 342.789 417.18C342.722 417.027 342.689 416.863 342.689 416.69C342.689 416.517 342.722 416.353 342.789 416.2C342.855 416.04 342.945 415.903 343.059 415.79C343.172 415.67 343.302 415.577 343.449 415.51C343.602 415.443 343.765 415.41 343.939 415.41C344.112 415.41 344.275 415.443 344.429 415.51C344.589 415.577 344.725 415.67 344.839 415.79C344.959 415.903 345.052 416.04 345.119 416.2C345.192 416.353 345.229 416.517 345.229 416.69ZM354.553 423.83C354.553 423.417 354.493 423.04 354.373 422.7C354.26 422.353 354.09 422.057 353.863 421.81C353.643 421.557 353.373 421.363 353.053 421.23C352.733 421.09 352.37 421.02 351.963 421.02C351.11 421.02 350.433 421.27 349.933 421.77C349.44 422.263 349.133 422.95 349.013 423.83H354.553ZM355.993 428.58C355.773 428.847 355.51 429.08 355.203 429.28C354.897 429.473 354.567 429.633 354.213 429.76C353.867 429.887 353.507 429.98 353.133 430.04C352.76 430.107 352.39 430.14 352.023 430.14C351.323 430.14 350.677 430.023 350.083 429.79C349.497 429.55 348.987 429.203 348.553 428.75C348.127 428.29 347.793 427.723 347.553 427.05C347.313 426.377 347.193 425.603 347.193 424.73C347.193 424.023 347.3 423.363 347.513 422.75C347.733 422.137 348.047 421.607 348.453 421.16C348.86 420.707 349.357 420.353 349.943 420.1C350.53 419.84 351.19 419.71 351.923 419.71C352.53 419.71 353.09 419.813 353.603 420.02C354.123 420.22 354.57 420.513 354.943 420.9C355.323 421.28 355.62 421.753 355.833 422.32C356.047 422.88 356.153 423.52 356.153 424.24C356.153 424.52 356.123 424.707 356.063 424.8C356.003 424.893 355.89 424.94 355.723 424.94H348.953C348.973 425.58 349.06 426.137 349.213 426.61C349.373 427.083 349.593 427.48 349.873 427.8C350.153 428.113 350.487 428.35 350.873 428.51C351.26 428.663 351.693 428.74 352.173 428.74C352.62 428.74 353.003 428.69 353.323 428.59C353.65 428.483 353.93 428.37 354.163 428.25C354.397 428.13 354.59 428.02 354.743 427.92C354.903 427.813 355.04 427.76 355.153 427.76C355.3 427.76 355.413 427.817 355.493 427.93L355.993 428.58ZM372.212 419.87L368.932 430H367.522C367.349 430 367.229 429.887 367.162 429.66L364.922 422.79C364.869 422.637 364.825 422.483 364.792 422.33C364.759 422.17 364.725 422.013 364.692 421.86C364.659 422.013 364.625 422.17 364.592 422.33C364.559 422.483 364.515 422.64 364.462 422.8L362.182 429.66C362.122 429.887 361.989 430 361.782 430H360.442L357.162 419.87H358.562C358.702 419.87 358.819 419.907 358.912 419.98C359.012 420.053 359.079 420.14 359.112 420.24L361.052 426.76C361.165 427.24 361.255 427.693 361.322 428.12C361.382 427.9 361.442 427.677 361.502 427.45C361.569 427.223 361.639 426.993 361.712 426.76L363.852 420.2C363.885 420.1 363.942 420.017 364.022 419.95C364.109 419.883 364.212 419.85 364.332 419.85H365.112C365.245 419.85 365.355 419.883 365.442 419.95C365.529 420.017 365.589 420.1 365.622 420.2L367.712 426.76C367.785 426.993 367.852 427.223 367.912 427.45C367.972 427.677 368.029 427.9 368.082 428.12C368.115 427.9 368.155 427.68 368.202 427.46C368.255 427.233 368.312 427 368.372 426.76L370.352 420.24C370.385 420.133 370.449 420.047 370.542 419.98C370.635 419.907 370.745 419.87 370.872 419.87H372.212Z" fill="white"/>
</svg>
