<svg width="460" height="1007" viewBox="0 0 460 1007" fill="none" xmlns="http://www.w3.org/2000/svg">
<path d="M55 911C55 899.954 63.9543 891 75 891H340C351.046 891 360 899.954 360 911V971C360 982.046 351.046 991 340 991H60C57.2386 991 55 988.761 55 986V911Z" fill="#F1EFEF"/>
<path d="M81.86 917.46C82.4133 917.46 82.89 917.397 83.29 917.27C83.69 917.143 84.0167 916.967 84.27 916.74C84.53 916.507 84.72 916.233 84.84 915.92C84.96 915.6 85.02 915.25 85.02 914.87C85.02 914.13 84.7567 913.547 84.23 913.12C83.7033 912.687 82.9133 912.47 81.86 912.47H78.76V917.46H81.86ZM78.76 906.2V911.09H81.32C81.8667 911.09 82.34 911.03 82.74 910.91C83.1467 910.79 83.48 910.623 83.74 910.41C84.0067 910.197 84.2033 909.94 84.33 909.64C84.4567 909.333 84.52 909 84.52 908.64C84.52 907.793 84.2667 907.177 83.76 906.79C83.2533 906.397 82.4667 906.2 81.4 906.2H78.76ZM81.4 904.67C82.28 904.67 83.0367 904.757 83.67 904.93C84.31 905.103 84.8333 905.35 85.24 905.67C85.6533 905.99 85.9567 906.383 86.15 906.85C86.3433 907.31 86.44 907.83 86.44 908.41C86.44 908.763 86.3833 909.103 86.27 909.43C86.1633 909.75 86 910.05 85.78 910.33C85.56 910.61 85.28 910.863 84.94 911.09C84.6067 911.31 84.2133 911.49 83.76 911.63C84.8133 911.83 85.6033 912.207 86.13 912.76C86.6633 913.307 86.93 914.027 86.93 914.92C86.93 915.527 86.8167 916.08 86.59 916.58C86.37 917.08 86.0433 917.51 85.61 917.87C85.1833 918.23 84.6567 918.51 84.03 918.71C83.4033 918.903 82.69 919 81.89 919H76.83V904.67H81.4ZM91.0048 908.87V919H89.2248V908.87H91.0048ZM91.3848 905.69C91.3848 905.863 91.3482 906.027 91.2748 906.18C91.2082 906.327 91.1148 906.46 90.9948 906.58C90.8815 906.693 90.7448 906.783 90.5848 906.85C90.4315 906.917 90.2682 906.95 90.0948 906.95C89.9215 906.95 89.7582 906.917 89.6048 906.85C89.4582 906.783 89.3282 906.693 89.2148 906.58C89.1015 906.46 89.0115 906.327 88.9448 906.18C88.8782 906.027 88.8448 905.863 88.8448 905.69C88.8448 905.517 88.8782 905.353 88.9448 905.2C89.0115 905.04 89.1015 904.903 89.2148 904.79C89.3282 904.67 89.4582 904.577 89.6048 904.51C89.7582 904.443 89.9215 904.41 90.0948 904.41C90.2682 904.41 90.4315 904.443 90.5848 904.51C90.7448 904.577 90.8815 904.67 90.9948 904.79C91.1148 904.903 91.2082 905.04 91.2748 905.2C91.3482 905.353 91.3848 905.517 91.3848 905.69ZM95.6095 910.34C95.8295 910.093 96.0629 909.87 96.3095 909.67C96.5562 909.47 96.8162 909.3 97.0895 909.16C97.3695 909.013 97.6629 908.903 97.9695 908.83C98.2829 908.75 98.6195 908.71 98.9795 908.71C99.5329 908.71 100.02 908.803 100.44 908.99C100.866 909.17 101.22 909.43 101.5 909.77C101.786 910.103 102.003 910.507 102.15 910.98C102.296 911.453 102.37 911.977 102.37 912.55V919H100.58V912.55C100.58 911.783 100.403 911.19 100.05 910.77C99.7029 910.343 99.1729 910.13 98.4595 910.13C97.9329 910.13 97.4395 910.257 96.9795 910.51C96.5262 910.763 96.1062 911.107 95.7195 911.54V919H93.9295V908.87H94.9995C95.2529 908.87 95.4095 908.993 95.4695 909.24L95.6095 910.34ZM108.612 914.05C108.972 914.05 109.289 914 109.562 913.9C109.835 913.8 110.065 913.66 110.252 913.48C110.439 913.3 110.579 913.087 110.672 912.84C110.765 912.587 110.812 912.31 110.812 912.01C110.812 911.39 110.622 910.897 110.242 910.53C109.869 910.163 109.325 909.98 108.612 909.98C107.892 909.98 107.342 910.163 106.962 910.53C106.589 910.897 106.402 911.39 106.402 912.01C106.402 912.31 106.449 912.587 106.542 912.84C106.642 913.087 106.785 913.3 106.972 913.48C107.159 913.66 107.389 913.8 107.662 913.9C107.935 914 108.252 914.05 108.612 914.05ZM111.822 919.55C111.822 919.303 111.752 919.103 111.612 918.95C111.472 918.797 111.282 918.677 111.042 918.59C110.809 918.503 110.535 918.443 110.222 918.41C109.909 918.37 109.575 918.34 109.222 918.32C108.875 918.3 108.522 918.28 108.162 918.26C107.802 918.24 107.455 918.207 107.122 918.16C106.749 918.333 106.442 918.553 106.202 918.82C105.969 919.08 105.852 919.387 105.852 919.74C105.852 919.967 105.909 920.177 106.022 920.37C106.142 920.57 106.322 920.74 106.562 920.88C106.802 921.027 107.102 921.14 107.462 921.22C107.829 921.307 108.259 921.35 108.752 921.35C109.232 921.35 109.662 921.307 110.042 921.22C110.422 921.133 110.742 921.01 111.002 920.85C111.269 920.69 111.472 920.5 111.612 920.28C111.752 920.06 111.822 919.817 111.822 919.55ZM113.632 909.27V909.93C113.632 910.15 113.492 910.29 113.212 910.35L112.062 910.5C112.289 910.94 112.402 911.427 112.402 911.96C112.402 912.453 112.305 912.903 112.112 913.31C111.925 913.71 111.665 914.053 111.332 914.34C110.999 914.627 110.599 914.847 110.132 915C109.665 915.153 109.159 915.23 108.612 915.23C108.139 915.23 107.692 915.173 107.272 915.06C107.059 915.193 106.895 915.337 106.782 915.49C106.669 915.637 106.612 915.787 106.612 915.94C106.612 916.18 106.709 916.363 106.902 916.49C107.102 916.61 107.362 916.697 107.682 916.75C108.002 916.803 108.365 916.837 108.772 916.85C109.185 916.863 109.605 916.887 110.032 916.92C110.465 916.947 110.885 916.997 111.292 917.07C111.705 917.143 112.072 917.263 112.392 917.43C112.712 917.597 112.969 917.827 113.162 918.12C113.362 918.413 113.462 918.793 113.462 919.26C113.462 919.693 113.352 920.113 113.132 920.52C112.919 920.927 112.609 921.287 112.202 921.6C111.795 921.92 111.295 922.173 110.702 922.36C110.115 922.553 109.452 922.65 108.712 922.65C107.972 922.65 107.325 922.577 106.772 922.43C106.219 922.283 105.759 922.087 105.392 921.84C105.025 921.593 104.749 921.307 104.562 920.98C104.382 920.66 104.292 920.323 104.292 919.97C104.292 919.47 104.449 919.047 104.762 918.7C105.075 918.353 105.505 918.077 106.052 917.87C105.752 917.737 105.512 917.56 105.332 917.34C105.159 917.113 105.072 916.81 105.072 916.43C105.072 916.283 105.099 916.133 105.152 915.98C105.205 915.82 105.285 915.663 105.392 915.51C105.505 915.35 105.642 915.2 105.802 915.06C105.962 914.92 106.149 914.797 106.362 914.69C105.862 914.41 105.472 914.04 105.192 913.58C104.912 913.113 104.772 912.573 104.772 911.96C104.772 911.467 104.865 911.02 105.052 910.62C105.245 910.213 105.512 909.87 105.852 909.59C106.192 909.303 106.595 909.083 107.062 908.93C107.535 908.777 108.052 908.7 108.612 908.7C109.052 908.7 109.462 908.75 109.842 908.85C110.222 908.943 110.569 909.083 110.882 909.27H113.632ZM119.586 908.71C120.326 908.71 120.993 908.833 121.586 909.08C122.18 909.327 122.686 909.677 123.106 910.13C123.526 910.583 123.846 911.133 124.066 911.78C124.293 912.42 124.406 913.137 124.406 913.93C124.406 914.73 124.293 915.45 124.066 916.09C123.846 916.73 123.526 917.277 123.106 917.73C122.686 918.183 122.18 918.533 121.586 918.78C120.993 919.02 120.326 919.14 119.586 919.14C118.84 919.14 118.166 919.02 117.566 918.78C116.973 918.533 116.466 918.183 116.046 917.73C115.626 917.277 115.303 916.73 115.076 916.09C114.856 915.45 114.746 914.73 114.746 913.93C114.746 913.137 114.856 912.42 115.076 911.78C115.303 911.133 115.626 910.583 116.046 910.13C116.466 909.677 116.973 909.327 117.566 909.08C118.166 908.833 118.84 908.71 119.586 908.71ZM119.586 917.75C120.586 917.75 121.333 917.417 121.826 916.75C122.32 916.077 122.566 915.14 122.566 913.94C122.566 912.733 122.32 911.793 121.826 911.12C121.333 910.447 120.586 910.11 119.586 910.11C119.08 910.11 118.636 910.197 118.256 910.37C117.883 910.543 117.57 910.793 117.316 911.12C117.07 911.447 116.883 911.85 116.756 912.33C116.636 912.803 116.576 913.34 116.576 913.94C116.576 915.14 116.823 916.077 117.316 916.75C117.816 917.417 118.573 917.75 119.586 917.75ZM128.804 904.67V910.39C128.804 910.69 128.797 910.983 128.784 911.27C128.771 911.557 128.754 911.847 128.734 912.14C128.714 912.427 128.687 912.723 128.654 913.03C128.627 913.33 128.594 913.653 128.554 914H127.354C127.314 913.653 127.277 913.33 127.244 913.03C127.217 912.723 127.194 912.427 127.174 912.14C127.154 911.847 127.137 911.557 127.124 911.27C127.111 910.983 127.104 910.69 127.104 910.39V904.67H128.804ZM126.674 917.9C126.674 917.727 126.704 917.563 126.764 917.41C126.831 917.257 126.921 917.123 127.034 917.01C127.147 916.897 127.277 916.807 127.424 916.74C127.577 916.673 127.744 916.64 127.924 916.64C128.097 916.64 128.257 916.673 128.404 916.74C128.557 916.807 128.691 916.897 128.804 917.01C128.917 917.123 129.007 917.257 129.074 917.41C129.141 917.563 129.174 917.727 129.174 917.9C129.174 918.08 129.141 918.247 129.074 918.4C129.007 918.547 128.917 918.677 128.804 918.79C128.691 918.903 128.557 918.99 128.404 919.05C128.257 919.117 128.097 919.15 127.924 919.15C127.744 919.15 127.577 919.117 127.424 919.05C127.277 918.99 127.147 918.903 127.034 918.79C126.921 918.677 126.831 918.547 126.764 918.4C126.704 918.247 126.674 918.08 126.674 917.9ZM146.657 906.3H142.017V919H140.087V906.3H135.437V904.67H146.657V906.3ZM149.977 910.22C150.411 909.76 150.891 909.393 151.417 909.12C151.944 908.847 152.551 908.71 153.237 908.71C153.791 908.71 154.277 908.803 154.697 908.99C155.124 909.17 155.477 909.43 155.757 909.77C156.044 910.103 156.261 910.507 156.407 910.98C156.554 911.453 156.627 911.977 156.627 912.55V919H154.837V912.55C154.837 911.783 154.661 911.19 154.307 910.77C153.961 910.343 153.431 910.13 152.717 910.13C152.191 910.13 151.697 910.257 151.237 910.51C150.784 910.763 150.364 911.107 149.977 911.54V919H148.187V904.27H149.977V910.22ZM161.22 908.87V919H159.44V908.87H161.22ZM161.6 905.69C161.6 905.863 161.563 906.027 161.49 906.18C161.423 906.327 161.33 906.46 161.21 906.58C161.096 906.693 160.96 906.783 160.8 906.85C160.646 906.917 160.483 906.95 160.31 906.95C160.136 906.95 159.973 906.917 159.82 906.85C159.673 906.783 159.543 906.693 159.43 906.58C159.316 906.46 159.226 906.327 159.16 906.18C159.093 906.027 159.06 905.863 159.06 905.69C159.06 905.517 159.093 905.353 159.16 905.2C159.226 905.04 159.316 904.903 159.43 904.79C159.543 904.67 159.673 904.577 159.82 904.51C159.973 904.443 160.136 904.41 160.31 904.41C160.483 904.41 160.646 904.443 160.8 904.51C160.96 904.577 161.096 904.67 161.21 904.79C161.33 904.903 161.423 905.04 161.49 905.2C161.563 905.353 161.6 905.517 161.6 905.69ZM170.044 910.54C169.964 910.687 169.841 910.76 169.674 910.76C169.574 910.76 169.461 910.723 169.334 910.65C169.208 910.577 169.051 910.497 168.864 910.41C168.684 910.317 168.468 910.233 168.214 910.16C167.961 910.08 167.661 910.04 167.314 910.04C167.014 910.04 166.744 910.08 166.504 910.16C166.264 910.233 166.058 910.337 165.884 910.47C165.718 910.603 165.588 910.76 165.494 910.94C165.408 911.113 165.364 911.303 165.364 911.51C165.364 911.77 165.438 911.987 165.584 912.16C165.738 912.333 165.938 912.483 166.184 912.61C166.431 912.737 166.711 912.85 167.024 912.95C167.338 913.043 167.658 913.147 167.984 913.26C168.318 913.367 168.641 913.487 168.954 913.62C169.268 913.753 169.548 913.92 169.794 914.12C170.041 914.32 170.238 914.567 170.384 914.86C170.538 915.147 170.614 915.493 170.614 915.9C170.614 916.367 170.531 916.8 170.364 917.2C170.198 917.593 169.951 917.937 169.624 918.23C169.298 918.517 168.898 918.743 168.424 918.91C167.951 919.077 167.404 919.16 166.784 919.16C166.078 919.16 165.438 919.047 164.864 918.82C164.291 918.587 163.804 918.29 163.404 917.93L163.824 917.25C163.878 917.163 163.941 917.097 164.014 917.05C164.088 917.003 164.181 916.98 164.294 916.98C164.414 916.98 164.541 917.027 164.674 917.12C164.808 917.213 164.968 917.317 165.154 917.43C165.348 917.543 165.581 917.647 165.854 917.74C166.128 917.833 166.468 917.88 166.874 917.88C167.221 917.88 167.524 917.837 167.784 917.75C168.044 917.657 168.261 917.533 168.434 917.38C168.608 917.227 168.734 917.05 168.814 916.85C168.901 916.65 168.944 916.437 168.944 916.21C168.944 915.93 168.868 915.7 168.714 915.52C168.568 915.333 168.371 915.177 168.124 915.05C167.878 914.917 167.594 914.803 167.274 914.71C166.961 914.61 166.638 914.507 166.304 914.4C165.978 914.293 165.654 914.173 165.334 914.04C165.021 913.9 164.741 913.727 164.494 913.52C164.248 913.313 164.048 913.06 163.894 912.76C163.748 912.453 163.674 912.083 163.674 911.65C163.674 911.263 163.754 910.893 163.914 910.54C164.074 910.18 164.308 909.867 164.614 909.6C164.921 909.327 165.298 909.11 165.744 908.95C166.191 908.79 166.701 908.71 167.274 908.71C167.941 908.71 168.538 908.817 169.064 909.03C169.598 909.237 170.058 909.523 170.444 909.89L170.044 910.54ZM184.964 910.67C184.911 910.743 184.857 910.8 184.804 910.84C184.751 910.88 184.677 910.9 184.584 910.9C184.484 910.9 184.374 910.86 184.254 910.78C184.134 910.693 183.984 910.6 183.804 910.5C183.631 910.4 183.414 910.31 183.154 910.23C182.901 910.143 182.587 910.1 182.214 910.1C181.714 910.1 181.274 910.19 180.894 910.37C180.514 910.543 180.194 910.797 179.934 911.13C179.681 911.463 179.487 911.867 179.354 912.34C179.227 912.813 179.164 913.343 179.164 913.93C179.164 914.543 179.234 915.09 179.374 915.57C179.514 916.043 179.711 916.443 179.964 916.77C180.224 917.09 180.534 917.337 180.894 917.51C181.261 917.677 181.671 917.76 182.124 917.76C182.557 917.76 182.914 917.71 183.194 917.61C183.474 917.503 183.704 917.387 183.884 917.26C184.071 917.133 184.224 917.02 184.344 916.92C184.471 916.813 184.594 916.76 184.714 916.76C184.861 916.76 184.974 916.817 185.054 916.93L185.554 917.58C185.334 917.853 185.084 918.087 184.804 918.28C184.524 918.473 184.221 918.637 183.894 918.77C183.574 918.897 183.237 918.99 182.884 919.05C182.531 919.11 182.171 919.14 181.804 919.14C181.171 919.14 180.581 919.023 180.034 918.79C179.494 918.557 179.024 918.22 178.624 917.78C178.224 917.333 177.911 916.787 177.684 916.14C177.457 915.493 177.344 914.757 177.344 913.93C177.344 913.177 177.447 912.48 177.654 911.84C177.867 911.2 178.174 910.65 178.574 910.19C178.981 909.723 179.477 909.36 180.064 909.1C180.657 908.84 181.337 908.71 182.104 908.71C182.817 908.71 183.444 908.827 183.984 909.06C184.531 909.287 185.014 909.61 185.434 910.03L184.964 910.67ZM189.255 910.22C189.688 909.76 190.168 909.393 190.695 909.12C191.221 908.847 191.828 908.71 192.515 908.71C193.068 908.71 193.555 908.803 193.975 908.99C194.401 909.17 194.755 909.43 195.035 909.77C195.321 910.103 195.538 910.507 195.685 910.98C195.831 911.453 195.905 911.977 195.905 912.55V919H194.115V912.55C194.115 911.783 193.938 911.19 193.585 910.77C193.238 910.343 192.708 910.13 191.995 910.13C191.468 910.13 190.975 910.257 190.515 910.51C190.061 910.763 189.641 911.107 189.255 911.54V919H187.465V904.27H189.255V910.22ZM204.107 914.44C203.287 914.467 202.587 914.533 202.007 914.64C201.434 914.74 200.964 914.873 200.597 915.04C200.237 915.207 199.974 915.403 199.807 915.63C199.647 915.857 199.567 916.11 199.567 916.39C199.567 916.657 199.61 916.887 199.697 917.08C199.784 917.273 199.9 917.433 200.047 917.56C200.2 917.68 200.377 917.77 200.577 917.83C200.784 917.883 201.004 917.91 201.237 917.91C201.55 917.91 201.837 917.88 202.097 917.82C202.357 917.753 202.6 917.66 202.827 917.54C203.06 917.42 203.28 917.277 203.487 917.11C203.7 916.943 203.907 916.753 204.107 916.54V914.44ZM198.357 910.3C198.917 909.76 199.52 909.357 200.167 909.09C200.814 908.823 201.53 908.69 202.317 908.69C202.884 908.69 203.387 908.783 203.827 908.97C204.267 909.157 204.637 909.417 204.937 909.75C205.237 910.083 205.464 910.487 205.617 910.96C205.77 911.433 205.847 911.953 205.847 912.52V919H205.057C204.884 919 204.75 918.973 204.657 918.92C204.564 918.86 204.49 918.747 204.437 918.58L204.237 917.62C203.97 917.867 203.71 918.087 203.457 918.28C203.204 918.467 202.937 918.627 202.657 918.76C202.377 918.887 202.077 918.983 201.757 919.05C201.444 919.123 201.094 919.16 200.707 919.16C200.314 919.16 199.944 919.107 199.597 919C199.25 918.887 198.947 918.72 198.687 918.5C198.434 918.28 198.23 918.003 198.077 917.67C197.93 917.33 197.857 916.93 197.857 916.47C197.857 916.07 197.967 915.687 198.187 915.32C198.407 914.947 198.764 914.617 199.257 914.33C199.75 914.043 200.394 913.81 201.187 913.63C201.98 913.443 202.954 913.337 204.107 913.31V912.52C204.107 911.733 203.937 911.14 203.597 910.74C203.257 910.333 202.76 910.13 202.107 910.13C201.667 910.13 201.297 910.187 200.997 910.3C200.704 910.407 200.447 910.53 200.227 910.67C200.014 910.803 199.827 910.927 199.667 911.04C199.514 911.147 199.36 911.2 199.207 911.2C199.087 911.2 198.984 911.17 198.897 911.11C198.81 911.043 198.737 910.963 198.677 910.87L198.357 910.3ZM210.238 910.34C210.458 910.093 210.692 909.87 210.938 909.67C211.185 909.47 211.445 909.3 211.718 909.16C211.998 909.013 212.292 908.903 212.598 908.83C212.912 908.75 213.248 908.71 213.608 908.71C214.162 908.71 214.648 908.803 215.068 908.99C215.495 909.17 215.848 909.43 216.128 909.77C216.415 910.103 216.632 910.507 216.778 910.98C216.925 911.453 216.998 911.977 216.998 912.55V919H215.208V912.55C215.208 911.783 215.032 911.19 214.678 910.77C214.332 910.343 213.802 910.13 213.088 910.13C212.562 910.13 212.068 910.257 211.608 910.51C211.155 910.763 210.735 911.107 210.348 911.54V919H208.558V908.87H209.628C209.882 908.87 210.038 908.993 210.098 909.24L210.238 910.34ZM223.241 914.05C223.601 914.05 223.917 914 224.191 913.9C224.464 913.8 224.694 913.66 224.881 913.48C225.067 913.3 225.207 913.087 225.301 912.84C225.394 912.587 225.441 912.31 225.441 912.01C225.441 911.39 225.251 910.897 224.871 910.53C224.497 910.163 223.954 909.98 223.241 909.98C222.521 909.98 221.971 910.163 221.591 910.53C221.217 910.897 221.031 911.39 221.031 912.01C221.031 912.31 221.077 912.587 221.171 912.84C221.271 913.087 221.414 913.3 221.601 913.48C221.787 913.66 222.017 913.8 222.291 913.9C222.564 914 222.881 914.05 223.241 914.05ZM226.451 919.55C226.451 919.303 226.381 919.103 226.241 918.95C226.101 918.797 225.911 918.677 225.671 918.59C225.437 918.503 225.164 918.443 224.851 918.41C224.537 918.37 224.204 918.34 223.851 918.32C223.504 918.3 223.151 918.28 222.791 918.26C222.431 918.24 222.084 918.207 221.751 918.16C221.377 918.333 221.071 918.553 220.831 918.82C220.597 919.08 220.481 919.387 220.481 919.74C220.481 919.967 220.537 920.177 220.651 920.37C220.771 920.57 220.951 920.74 221.191 920.88C221.431 921.027 221.731 921.14 222.091 921.22C222.457 921.307 222.887 921.35 223.381 921.35C223.861 921.35 224.291 921.307 224.671 921.22C225.051 921.133 225.371 921.01 225.631 920.85C225.897 920.69 226.101 920.5 226.241 920.28C226.381 920.06 226.451 919.817 226.451 919.55ZM228.261 909.27V909.93C228.261 910.15 228.121 910.29 227.841 910.35L226.691 910.5C226.917 910.94 227.031 911.427 227.031 911.96C227.031 912.453 226.934 912.903 226.741 913.31C226.554 913.71 226.294 914.053 225.961 914.34C225.627 914.627 225.227 914.847 224.761 915C224.294 915.153 223.787 915.23 223.241 915.23C222.767 915.23 222.321 915.173 221.901 915.06C221.687 915.193 221.524 915.337 221.411 915.49C221.297 915.637 221.241 915.787 221.241 915.94C221.241 916.18 221.337 916.363 221.531 916.49C221.731 916.61 221.991 916.697 222.311 916.75C222.631 916.803 222.994 916.837 223.401 916.85C223.814 916.863 224.234 916.887 224.661 916.92C225.094 916.947 225.514 916.997 225.921 917.07C226.334 917.143 226.701 917.263 227.021 917.43C227.341 917.597 227.597 917.827 227.791 918.12C227.991 918.413 228.091 918.793 228.091 919.26C228.091 919.693 227.981 920.113 227.761 920.52C227.547 920.927 227.237 921.287 226.831 921.6C226.424 921.92 225.924 922.173 225.331 922.36C224.744 922.553 224.081 922.65 223.341 922.65C222.601 922.65 221.954 922.577 221.401 922.43C220.847 922.283 220.387 922.087 220.021 921.84C219.654 921.593 219.377 921.307 219.191 920.98C219.011 920.66 218.921 920.323 218.921 919.97C218.921 919.47 219.077 919.047 219.391 918.7C219.704 918.353 220.134 918.077 220.681 917.87C220.381 917.737 220.141 917.56 219.961 917.34C219.787 917.113 219.701 916.81 219.701 916.43C219.701 916.283 219.727 916.133 219.781 915.98C219.834 915.82 219.914 915.663 220.021 915.51C220.134 915.35 220.271 915.2 220.431 915.06C220.591 914.92 220.777 914.797 220.991 914.69C220.491 914.41 220.101 914.04 219.821 913.58C219.541 913.113 219.401 912.573 219.401 911.96C219.401 911.467 219.494 911.02 219.681 910.62C219.874 910.213 220.141 909.87 220.481 909.59C220.821 909.303 221.224 909.083 221.691 908.93C222.164 908.777 222.681 908.7 223.241 908.7C223.681 908.7 224.091 908.75 224.471 908.85C224.851 908.943 225.197 909.083 225.511 909.27H228.261ZM236.725 912.83C236.725 912.417 236.665 912.04 236.545 911.7C236.432 911.353 236.262 911.057 236.035 910.81C235.815 910.557 235.545 910.363 235.225 910.23C234.905 910.09 234.542 910.02 234.135 910.02C233.282 910.02 232.605 910.27 232.105 910.77C231.612 911.263 231.305 911.95 231.185 912.83H236.725ZM238.165 917.58C237.945 917.847 237.682 918.08 237.375 918.28C237.068 918.473 236.738 918.633 236.385 918.76C236.038 918.887 235.678 918.98 235.305 919.04C234.932 919.107 234.562 919.14 234.195 919.14C233.495 919.14 232.848 919.023 232.255 918.79C231.668 918.55 231.158 918.203 230.725 917.75C230.298 917.29 229.965 916.723 229.725 916.05C229.485 915.377 229.365 914.603 229.365 913.73C229.365 913.023 229.472 912.363 229.685 911.75C229.905 911.137 230.218 910.607 230.625 910.16C231.032 909.707 231.528 909.353 232.115 909.1C232.702 908.84 233.362 908.71 234.095 908.71C234.702 908.71 235.262 908.813 235.775 909.02C236.295 909.22 236.742 909.513 237.115 909.9C237.495 910.28 237.792 910.753 238.005 911.32C238.218 911.88 238.325 912.52 238.325 913.24C238.325 913.52 238.295 913.707 238.235 913.8C238.175 913.893 238.062 913.94 237.895 913.94H231.125C231.145 914.58 231.232 915.137 231.385 915.61C231.545 916.083 231.765 916.48 232.045 916.8C232.325 917.113 232.658 917.35 233.045 917.51C233.432 917.663 233.865 917.74 234.345 917.74C234.792 917.74 235.175 917.69 235.495 917.59C235.822 917.483 236.102 917.37 236.335 917.25C236.568 917.13 236.762 917.02 236.915 916.92C237.075 916.813 237.212 916.76 237.325 916.76C237.472 916.76 237.585 916.817 237.665 916.93L238.165 917.58ZM247.509 908.87V919H245.729V908.87H247.509ZM247.889 905.69C247.889 905.863 247.852 906.027 247.779 906.18C247.712 906.327 247.619 906.46 247.499 906.58C247.385 906.693 247.249 906.783 247.089 906.85C246.935 906.917 246.772 906.95 246.599 906.95C246.425 906.95 246.262 906.917 246.109 906.85C245.962 906.783 245.832 906.693 245.719 906.58C245.605 906.46 245.515 906.327 245.449 906.18C245.382 906.027 245.349 905.863 245.349 905.69C245.349 905.517 245.382 905.353 245.449 905.2C245.515 905.04 245.605 904.903 245.719 904.79C245.832 904.67 245.962 904.577 246.109 904.51C246.262 904.443 246.425 904.41 246.599 904.41C246.772 904.41 246.935 904.443 247.089 904.51C247.249 904.577 247.385 904.67 247.499 904.79C247.619 904.903 247.712 905.04 247.779 905.2C247.852 905.353 247.889 905.517 247.889 905.69ZM256.333 910.54C256.253 910.687 256.13 910.76 255.963 910.76C255.863 910.76 255.75 910.723 255.623 910.65C255.497 910.577 255.34 910.497 255.153 910.41C254.973 910.317 254.757 910.233 254.503 910.16C254.25 910.08 253.95 910.04 253.603 910.04C253.303 910.04 253.033 910.08 252.793 910.16C252.553 910.233 252.347 910.337 252.173 910.47C252.007 910.603 251.877 910.76 251.783 910.94C251.697 911.113 251.653 911.303 251.653 911.51C251.653 911.77 251.727 911.987 251.873 912.16C252.027 912.333 252.227 912.483 252.473 912.61C252.72 912.737 253 912.85 253.313 912.95C253.627 913.043 253.947 913.147 254.273 913.26C254.607 913.367 254.93 913.487 255.243 913.62C255.557 913.753 255.837 913.92 256.083 914.12C256.33 914.32 256.527 914.567 256.673 914.86C256.827 915.147 256.903 915.493 256.903 915.9C256.903 916.367 256.82 916.8 256.653 917.2C256.487 917.593 256.24 917.937 255.913 918.23C255.587 918.517 255.187 918.743 254.713 918.91C254.24 919.077 253.693 919.16 253.073 919.16C252.367 919.16 251.727 919.047 251.153 918.82C250.58 918.587 250.093 918.29 249.693 917.93L250.113 917.25C250.167 917.163 250.23 917.097 250.303 917.05C250.377 917.003 250.47 916.98 250.583 916.98C250.703 916.98 250.83 917.027 250.963 917.12C251.097 917.213 251.257 917.317 251.443 917.43C251.637 917.543 251.87 917.647 252.143 917.74C252.417 917.833 252.757 917.88 253.163 917.88C253.51 917.88 253.813 917.837 254.073 917.75C254.333 917.657 254.55 917.533 254.723 917.38C254.897 917.227 255.023 917.05 255.103 916.85C255.19 916.65 255.233 916.437 255.233 916.21C255.233 915.93 255.157 915.7 255.003 915.52C254.857 915.333 254.66 915.177 254.413 915.05C254.167 914.917 253.883 914.803 253.563 914.71C253.25 914.61 252.927 914.507 252.593 914.4C252.267 914.293 251.943 914.173 251.623 914.04C251.31 913.9 251.03 913.727 250.783 913.52C250.537 913.313 250.337 913.06 250.183 912.76C250.037 912.453 249.963 912.083 249.963 911.65C249.963 911.263 250.043 910.893 250.203 910.54C250.363 910.18 250.597 909.867 250.903 909.6C251.21 909.327 251.587 909.11 252.033 908.95C252.48 908.79 252.99 908.71 253.563 908.71C254.23 908.71 254.827 908.817 255.353 909.03C255.887 909.237 256.347 909.523 256.733 909.89L256.333 910.54ZM264.203 919V908.87H265.273C265.526 908.87 265.683 908.993 265.743 909.24L265.873 910.28C266.246 909.82 266.666 909.443 267.133 909.15C267.6 908.857 268.14 908.71 268.753 908.71C269.433 908.71 269.983 908.9 270.403 909.28C270.83 909.66 271.136 910.173 271.323 910.82C271.47 910.453 271.656 910.137 271.883 909.87C272.116 909.603 272.376 909.383 272.663 909.21C272.95 909.037 273.253 908.91 273.573 908.83C273.9 908.75 274.23 908.71 274.563 908.71C275.096 908.71 275.57 908.797 275.983 908.97C276.403 909.137 276.756 909.383 277.043 909.71C277.336 910.037 277.56 910.44 277.713 910.92C277.866 911.393 277.943 911.937 277.943 912.55V919H276.153V912.55C276.153 911.757 275.98 911.157 275.633 910.75C275.286 910.337 274.786 910.13 274.133 910.13C273.84 910.13 273.56 910.183 273.293 910.29C273.033 910.39 272.803 910.54 272.603 910.74C272.403 910.94 272.243 911.193 272.123 911.5C272.01 911.8 271.953 912.15 271.953 912.55V919H270.163V912.55C270.163 911.737 270 911.13 269.673 910.73C269.346 910.33 268.87 910.13 268.243 910.13C267.803 910.13 267.396 910.25 267.023 910.49C266.65 910.723 266.306 911.043 265.993 911.45V919H264.203ZM286.138 914.44C285.318 914.467 284.618 914.533 284.038 914.64C283.465 914.74 282.995 914.873 282.628 915.04C282.268 915.207 282.005 915.403 281.838 915.63C281.678 915.857 281.598 916.11 281.598 916.39C281.598 916.657 281.642 916.887 281.728 917.08C281.815 917.273 281.932 917.433 282.078 917.56C282.232 917.68 282.408 917.77 282.608 917.83C282.815 917.883 283.035 917.91 283.268 917.91C283.582 917.91 283.868 917.88 284.128 917.82C284.388 917.753 284.632 917.66 284.858 917.54C285.092 917.42 285.312 917.277 285.518 917.11C285.732 916.943 285.938 916.753 286.138 916.54V914.44ZM280.388 910.3C280.948 909.76 281.552 909.357 282.198 909.09C282.845 908.823 283.562 908.69 284.348 908.69C284.915 908.69 285.418 908.783 285.858 908.97C286.298 909.157 286.668 909.417 286.968 909.75C287.268 910.083 287.495 910.487 287.648 910.96C287.802 911.433 287.878 911.953 287.878 912.52V919H287.088C286.915 919 286.782 918.973 286.688 918.92C286.595 918.86 286.522 918.747 286.468 918.58L286.268 917.62C286.002 917.867 285.742 918.087 285.488 918.28C285.235 918.467 284.968 918.627 284.688 918.76C284.408 918.887 284.108 918.983 283.788 919.05C283.475 919.123 283.125 919.16 282.738 919.16C282.345 919.16 281.975 919.107 281.628 919C281.282 918.887 280.978 918.72 280.718 918.5C280.465 918.28 280.262 918.003 280.108 917.67C279.962 917.33 279.888 916.93 279.888 916.47C279.888 916.07 279.998 915.687 280.218 915.32C280.438 914.947 280.795 914.617 281.288 914.33C281.782 914.043 282.425 913.81 283.218 913.63C284.012 913.443 284.985 913.337 286.138 913.31V912.52C286.138 911.733 285.968 911.14 285.628 910.74C285.288 910.333 284.792 910.13 284.138 910.13C283.698 910.13 283.328 910.187 283.028 910.3C282.735 910.407 282.478 910.53 282.258 910.67C282.045 910.803 281.858 910.927 281.698 911.04C281.545 911.147 281.392 911.2 281.238 911.2C281.118 911.2 281.015 911.17 280.928 911.11C280.842 911.043 280.768 910.963 280.708 910.87L280.388 910.3ZM297.19 911.28C296.856 910.833 296.496 910.523 296.11 910.35C295.723 910.17 295.29 910.08 294.81 910.08C293.87 910.08 293.146 910.417 292.64 911.09C292.133 911.763 291.88 912.723 291.88 913.97C291.88 914.63 291.936 915.197 292.05 915.67C292.163 916.137 292.33 916.523 292.55 916.83C292.77 917.13 293.04 917.35 293.36 917.49C293.68 917.63 294.043 917.7 294.45 917.7C295.036 917.7 295.546 917.567 295.98 917.3C296.42 917.033 296.823 916.657 297.19 916.17V911.28ZM298.97 904.27V919H297.91C297.656 919 297.496 918.877 297.43 918.63L297.27 917.4C296.836 917.92 296.343 918.34 295.79 918.66C295.236 918.98 294.596 919.14 293.87 919.14C293.29 919.14 292.763 919.03 292.29 918.81C291.816 918.583 291.413 918.253 291.08 917.82C290.746 917.387 290.49 916.847 290.31 916.2C290.13 915.553 290.04 914.81 290.04 913.97C290.04 913.223 290.14 912.53 290.34 911.89C290.54 911.243 290.826 910.683 291.2 910.21C291.573 909.737 292.03 909.367 292.57 909.1C293.116 908.827 293.73 908.69 294.41 908.69C295.03 908.69 295.56 908.797 296 909.01C296.446 909.217 296.843 909.507 297.19 909.88V904.27H298.97ZM308.561 912.83C308.561 912.417 308.501 912.04 308.381 911.7C308.268 911.353 308.098 911.057 307.871 910.81C307.651 910.557 307.381 910.363 307.061 910.23C306.741 910.09 306.378 910.02 305.971 910.02C305.118 910.02 304.441 910.27 303.941 910.77C303.448 911.263 303.141 911.95 303.021 912.83H308.561ZM310.001 917.58C309.781 917.847 309.518 918.08 309.211 918.28C308.904 918.473 308.574 918.633 308.221 918.76C307.874 918.887 307.514 918.98 307.141 919.04C306.768 919.107 306.398 919.14 306.031 919.14C305.331 919.14 304.684 919.023 304.091 918.79C303.504 918.55 302.994 918.203 302.561 917.75C302.134 917.29 301.801 916.723 301.561 916.05C301.321 915.377 301.201 914.603 301.201 913.73C301.201 913.023 301.308 912.363 301.521 911.75C301.741 911.137 302.054 910.607 302.461 910.16C302.868 909.707 303.364 909.353 303.951 909.1C304.538 908.84 305.198 908.71 305.931 908.71C306.538 908.71 307.098 908.813 307.611 909.02C308.131 909.22 308.578 909.513 308.951 909.9C309.331 910.28 309.628 910.753 309.841 911.32C310.054 911.88 310.161 912.52 310.161 913.24C310.161 913.52 310.131 913.707 310.071 913.8C310.011 913.893 309.898 913.94 309.731 913.94H302.961C302.981 914.58 303.068 915.137 303.221 915.61C303.381 916.083 303.601 916.48 303.881 916.8C304.161 917.113 304.494 917.35 304.881 917.51C305.268 917.663 305.701 917.74 306.181 917.74C306.628 917.74 307.011 917.69 307.331 917.59C307.658 917.483 307.938 917.37 308.171 917.25C308.404 917.13 308.598 917.02 308.751 916.92C308.911 916.813 309.048 916.76 309.161 916.76C309.308 916.76 309.421 916.817 309.501 916.93L310.001 917.58ZM78.2 944.56C78.5267 945 78.8833 945.31 79.27 945.49C79.6567 945.67 80.09 945.76 80.57 945.76C81.5167 945.76 82.2433 945.423 82.75 944.75C83.2567 944.077 83.51 943.117 83.51 941.87C83.51 941.21 83.45 940.643 83.33 940.17C83.2167 939.697 83.05 939.31 82.83 939.01C82.61 938.703 82.34 938.48 82.02 938.34C81.7 938.2 81.3367 938.13 80.93 938.13C80.35 938.13 79.84 938.263 79.4 938.53C78.9667 938.797 78.5667 939.173 78.2 939.66V944.56ZM78.11 938.44C78.5367 937.913 79.03 937.49 79.59 937.17C80.15 936.85 80.79 936.69 81.51 936.69C82.0967 936.69 82.6267 936.803 83.1 937.03C83.5733 937.25 83.9767 937.58 84.31 938.02C84.6433 938.453 84.9 938.993 85.08 939.64C85.26 940.287 85.35 941.03 85.35 941.87C85.35 942.617 85.25 943.313 85.05 943.96C84.85 944.6 84.56 945.157 84.18 945.63C83.8067 946.097 83.3467 946.467 82.8 946.74C82.26 947.007 81.65 947.14 80.97 947.14C80.35 947.14 79.8167 947.037 79.37 946.83C78.93 946.617 78.54 946.323 78.2 945.95V950.43H76.41V936.87H77.48C77.7333 936.87 77.89 936.993 77.95 937.24L78.11 938.44ZM89.3109 938.9C89.6309 938.207 90.0243 937.667 90.4909 937.28C90.9576 936.887 91.5276 936.69 92.2009 936.69C92.4143 936.69 92.6176 936.713 92.8109 936.76C93.0109 936.807 93.1876 936.88 93.3409 936.98L93.2109 938.31C93.1709 938.477 93.0709 938.56 92.9109 938.56C92.8176 938.56 92.6809 938.54 92.5009 938.5C92.3209 938.46 92.1176 938.44 91.8909 938.44C91.5709 938.44 91.2843 938.487 91.0309 938.58C90.7843 938.673 90.5609 938.813 90.3609 939C90.1676 939.18 89.9909 939.407 89.8309 939.68C89.6776 939.947 89.5376 940.253 89.4109 940.6V947H87.6209V936.87H88.6409C88.8343 936.87 88.9676 936.907 89.0409 936.98C89.1143 937.053 89.1643 937.18 89.1909 937.36L89.3109 938.9ZM98.7659 936.71C99.5059 936.71 100.173 936.833 100.766 937.08C101.359 937.327 101.866 937.677 102.286 938.13C102.706 938.583 103.026 939.133 103.246 939.78C103.473 940.42 103.586 941.137 103.586 941.93C103.586 942.73 103.473 943.45 103.246 944.09C103.026 944.73 102.706 945.277 102.286 945.73C101.866 946.183 101.359 946.533 100.766 946.78C100.173 947.02 99.5059 947.14 98.7659 947.14C98.0193 947.14 97.3459 947.02 96.7459 946.78C96.1526 946.533 95.6459 946.183 95.2259 945.73C94.8059 945.277 94.4826 944.73 94.2559 944.09C94.0359 943.45 93.9259 942.73 93.9259 941.93C93.9259 941.137 94.0359 940.42 94.2559 939.78C94.4826 939.133 94.8059 938.583 95.2259 938.13C95.6459 937.677 96.1526 937.327 96.7459 937.08C97.3459 936.833 98.0193 936.71 98.7659 936.71ZM98.7659 945.75C99.7659 945.75 100.513 945.417 101.006 944.75C101.499 944.077 101.746 943.14 101.746 941.94C101.746 940.733 101.499 939.793 101.006 939.12C100.513 938.447 99.7659 938.11 98.7659 938.11C98.2593 938.11 97.8159 938.197 97.4359 938.37C97.0626 938.543 96.7493 938.793 96.4959 939.12C96.2493 939.447 96.0626 939.85 95.9359 940.33C95.8159 940.803 95.7559 941.34 95.7559 941.94C95.7559 943.14 96.0026 944.077 96.4959 944.75C96.9959 945.417 97.7526 945.75 98.7659 945.75ZM109.315 942.05C109.675 942.05 109.992 942 110.265 941.9C110.538 941.8 110.768 941.66 110.955 941.48C111.142 941.3 111.282 941.087 111.375 940.84C111.468 940.587 111.515 940.31 111.515 940.01C111.515 939.39 111.325 938.897 110.945 938.53C110.572 938.163 110.028 937.98 109.315 937.98C108.595 937.98 108.045 938.163 107.665 938.53C107.292 938.897 107.105 939.39 107.105 940.01C107.105 940.31 107.152 940.587 107.245 940.84C107.345 941.087 107.488 941.3 107.675 941.48C107.862 941.66 108.092 941.8 108.365 941.9C108.638 942 108.955 942.05 109.315 942.05ZM112.525 947.55C112.525 947.303 112.455 947.103 112.315 946.95C112.175 946.797 111.985 946.677 111.745 946.59C111.512 946.503 111.238 946.443 110.925 946.41C110.612 946.37 110.278 946.34 109.925 946.32C109.578 946.3 109.225 946.28 108.865 946.26C108.505 946.24 108.158 946.207 107.825 946.16C107.452 946.333 107.145 946.553 106.905 946.82C106.672 947.08 106.555 947.387 106.555 947.74C106.555 947.967 106.612 948.177 106.725 948.37C106.845 948.57 107.025 948.74 107.265 948.88C107.505 949.027 107.805 949.14 108.165 949.22C108.532 949.307 108.962 949.35 109.455 949.35C109.935 949.35 110.365 949.307 110.745 949.22C111.125 949.133 111.445 949.01 111.705 948.85C111.972 948.69 112.175 948.5 112.315 948.28C112.455 948.06 112.525 947.817 112.525 947.55ZM114.335 937.27V937.93C114.335 938.15 114.195 938.29 113.915 938.35L112.765 938.5C112.992 938.94 113.105 939.427 113.105 939.96C113.105 940.453 113.008 940.903 112.815 941.31C112.628 941.71 112.368 942.053 112.035 942.34C111.702 942.627 111.302 942.847 110.835 943C110.368 943.153 109.862 943.23 109.315 943.23C108.842 943.23 108.395 943.173 107.975 943.06C107.762 943.193 107.598 943.337 107.485 943.49C107.372 943.637 107.315 943.787 107.315 943.94C107.315 944.18 107.412 944.363 107.605 944.49C107.805 944.61 108.065 944.697 108.385 944.75C108.705 944.803 109.068 944.837 109.475 944.85C109.888 944.863 110.308 944.887 110.735 944.92C111.168 944.947 111.588 944.997 111.995 945.07C112.408 945.143 112.775 945.263 113.095 945.43C113.415 945.597 113.672 945.827 113.865 946.12C114.065 946.413 114.165 946.793 114.165 947.26C114.165 947.693 114.055 948.113 113.835 948.52C113.622 948.927 113.312 949.287 112.905 949.6C112.498 949.92 111.998 950.173 111.405 950.36C110.818 950.553 110.155 950.65 109.415 950.65C108.675 950.65 108.028 950.577 107.475 950.43C106.922 950.283 106.462 950.087 106.095 949.84C105.728 949.593 105.452 949.307 105.265 948.98C105.085 948.66 104.995 948.323 104.995 947.97C104.995 947.47 105.152 947.047 105.465 946.7C105.778 946.353 106.208 946.077 106.755 945.87C106.455 945.737 106.215 945.56 106.035 945.34C105.862 945.113 105.775 944.81 105.775 944.43C105.775 944.283 105.802 944.133 105.855 943.98C105.908 943.82 105.988 943.663 106.095 943.51C106.208 943.35 106.345 943.2 106.505 943.06C106.665 942.92 106.852 942.797 107.065 942.69C106.565 942.41 106.175 942.04 105.895 941.58C105.615 941.113 105.475 940.573 105.475 939.96C105.475 939.467 105.568 939.02 105.755 938.62C105.948 938.213 106.215 937.87 106.555 937.59C106.895 937.303 107.298 937.083 107.765 936.93C108.238 936.777 108.755 936.7 109.315 936.7C109.755 936.7 110.165 936.75 110.545 936.85C110.925 936.943 111.272 937.083 111.585 937.27H114.335ZM117.866 938.9C118.186 938.207 118.579 937.667 119.046 937.28C119.512 936.887 120.082 936.69 120.756 936.69C120.969 936.69 121.172 936.713 121.366 936.76C121.566 936.807 121.742 936.88 121.896 936.98L121.766 938.31C121.726 938.477 121.626 938.56 121.466 938.56C121.372 938.56 121.236 938.54 121.056 938.5C120.876 938.46 120.672 938.44 120.446 938.44C120.126 938.44 119.839 938.487 119.586 938.58C119.339 938.673 119.116 938.813 118.916 939C118.722 939.18 118.546 939.407 118.386 939.68C118.232 939.947 118.092 940.253 117.966 940.6V947H116.176V936.87H117.196C117.389 936.87 117.522 936.907 117.596 936.98C117.669 937.053 117.719 937.18 117.746 937.36L117.866 938.9ZM128.795 942.44C127.975 942.467 127.275 942.533 126.695 942.64C126.121 942.74 125.651 942.873 125.285 943.04C124.925 943.207 124.661 943.403 124.495 943.63C124.335 943.857 124.255 944.11 124.255 944.39C124.255 944.657 124.298 944.887 124.385 945.08C124.471 945.273 124.588 945.433 124.735 945.56C124.888 945.68 125.065 945.77 125.265 945.83C125.471 945.883 125.691 945.91 125.925 945.91C126.238 945.91 126.525 945.88 126.785 945.82C127.045 945.753 127.288 945.66 127.515 945.54C127.748 945.42 127.968 945.277 128.175 945.11C128.388 944.943 128.595 944.753 128.795 944.54V942.44ZM123.045 938.3C123.605 937.76 124.208 937.357 124.855 937.09C125.501 936.823 126.218 936.69 127.005 936.69C127.571 936.69 128.075 936.783 128.515 936.97C128.955 937.157 129.325 937.417 129.625 937.75C129.925 938.083 130.151 938.487 130.305 938.96C130.458 939.433 130.535 939.953 130.535 940.52V947H129.745C129.571 947 129.438 946.973 129.345 946.92C129.251 946.86 129.178 946.747 129.125 946.58L128.925 945.62C128.658 945.867 128.398 946.087 128.145 946.28C127.891 946.467 127.625 946.627 127.345 946.76C127.065 946.887 126.765 946.983 126.445 947.05C126.131 947.123 125.781 947.16 125.395 947.16C125.001 947.16 124.631 947.107 124.285 947C123.938 946.887 123.635 946.72 123.375 946.5C123.121 946.28 122.918 946.003 122.765 945.67C122.618 945.33 122.545 944.93 122.545 944.47C122.545 944.07 122.655 943.687 122.875 943.32C123.095 942.947 123.451 942.617 123.945 942.33C124.438 942.043 125.081 941.81 125.875 941.63C126.668 941.443 127.641 941.337 128.795 941.31V940.52C128.795 939.733 128.625 939.14 128.285 938.74C127.945 938.333 127.448 938.13 126.795 938.13C126.355 938.13 125.985 938.187 125.685 938.3C125.391 938.407 125.135 938.53 124.915 938.67C124.701 938.803 124.515 938.927 124.355 939.04C124.201 939.147 124.048 939.2 123.895 939.2C123.775 939.2 123.671 939.17 123.585 939.11C123.498 939.043 123.425 938.963 123.365 938.87L123.045 938.3ZM133.246 947V936.87H134.316C134.569 936.87 134.726 936.993 134.786 937.24L134.916 938.28C135.289 937.82 135.709 937.443 136.176 937.15C136.643 936.857 137.183 936.71 137.796 936.71C138.476 936.71 139.026 936.9 139.446 937.28C139.873 937.66 140.179 938.173 140.366 938.82C140.513 938.453 140.699 938.137 140.926 937.87C141.159 937.603 141.419 937.383 141.706 937.21C141.993 937.037 142.296 936.91 142.616 936.83C142.943 936.75 143.273 936.71 143.606 936.71C144.139 936.71 144.613 936.797 145.026 936.97C145.446 937.137 145.799 937.383 146.086 937.71C146.379 938.037 146.603 938.44 146.756 938.92C146.909 939.393 146.986 939.937 146.986 940.55V947H145.196V940.55C145.196 939.757 145.023 939.157 144.676 938.75C144.329 938.337 143.829 938.13 143.176 938.13C142.883 938.13 142.603 938.183 142.336 938.29C142.076 938.39 141.846 938.54 141.646 938.74C141.446 938.94 141.286 939.193 141.166 939.5C141.053 939.8 140.996 940.15 140.996 940.55V947H139.206V940.55C139.206 939.737 139.043 939.13 138.716 938.73C138.389 938.33 137.913 938.13 137.286 938.13C136.846 938.13 136.439 938.25 136.066 938.49C135.693 938.723 135.349 939.043 135.036 939.45V947H133.246ZM149.691 947V936.87H150.761C151.015 936.87 151.171 936.993 151.231 937.24L151.361 938.28C151.735 937.82 152.155 937.443 152.621 937.15C153.088 936.857 153.628 936.71 154.241 936.71C154.921 936.71 155.471 936.9 155.891 937.28C156.318 937.66 156.625 938.173 156.811 938.82C156.958 938.453 157.145 938.137 157.371 937.87C157.605 937.603 157.865 937.383 158.151 937.21C158.438 937.037 158.741 936.91 159.061 936.83C159.388 936.75 159.718 936.71 160.051 936.71C160.585 936.71 161.058 936.797 161.471 936.97C161.891 937.137 162.245 937.383 162.531 937.71C162.825 938.037 163.048 938.44 163.201 938.92C163.355 939.393 163.431 939.937 163.431 940.55V947H161.641V940.55C161.641 939.757 161.468 939.157 161.121 938.75C160.775 938.337 160.275 938.13 159.621 938.13C159.328 938.13 159.048 938.183 158.781 938.29C158.521 938.39 158.291 938.54 158.091 938.74C157.891 938.94 157.731 939.193 157.611 939.5C157.498 939.8 157.441 940.15 157.441 940.55V947H155.651V940.55C155.651 939.737 155.488 939.13 155.161 938.73C154.835 938.33 154.358 938.13 153.731 938.13C153.291 938.13 152.885 938.25 152.511 938.49C152.138 938.723 151.795 939.043 151.481 939.45V947H149.691ZM171.627 942.44C170.807 942.467 170.107 942.533 169.527 942.64C168.953 942.74 168.483 942.873 168.117 943.04C167.757 943.207 167.493 943.403 167.327 943.63C167.167 943.857 167.087 944.11 167.087 944.39C167.087 944.657 167.13 944.887 167.217 945.08C167.303 945.273 167.42 945.433 167.567 945.56C167.72 945.68 167.897 945.77 168.097 945.83C168.303 945.883 168.523 945.91 168.757 945.91C169.07 945.91 169.357 945.88 169.617 945.82C169.877 945.753 170.12 945.66 170.347 945.54C170.58 945.42 170.8 945.277 171.007 945.11C171.22 944.943 171.427 944.753 171.627 944.54V942.44ZM165.877 938.3C166.437 937.76 167.04 937.357 167.687 937.09C168.333 936.823 169.05 936.69 169.837 936.69C170.403 936.69 170.907 936.783 171.347 936.97C171.787 937.157 172.157 937.417 172.457 937.75C172.757 938.083 172.983 938.487 173.137 938.96C173.29 939.433 173.367 939.953 173.367 940.52V947H172.577C172.403 947 172.27 946.973 172.177 946.92C172.083 946.86 172.01 946.747 171.957 946.58L171.757 945.62C171.49 945.867 171.23 946.087 170.977 946.28C170.723 946.467 170.457 946.627 170.177 946.76C169.897 946.887 169.597 946.983 169.277 947.05C168.963 947.123 168.613 947.16 168.227 947.16C167.833 947.16 167.463 947.107 167.117 947C166.77 946.887 166.467 946.72 166.207 946.5C165.953 946.28 165.75 946.003 165.597 945.67C165.45 945.33 165.377 944.93 165.377 944.47C165.377 944.07 165.487 943.687 165.707 943.32C165.927 942.947 166.283 942.617 166.777 942.33C167.27 942.043 167.913 941.81 168.707 941.63C169.5 941.443 170.473 941.337 171.627 941.31V940.52C171.627 939.733 171.457 939.14 171.117 938.74C170.777 938.333 170.28 938.13 169.627 938.13C169.187 938.13 168.817 938.187 168.517 938.3C168.223 938.407 167.967 938.53 167.747 938.67C167.533 938.803 167.347 938.927 167.187 939.04C167.033 939.147 166.88 939.2 166.727 939.2C166.607 939.2 166.503 939.17 166.417 939.11C166.33 939.043 166.257 938.963 166.197 938.87L165.877 938.3ZM185.341 947H183.561V938.36H178.341V944.44C178.341 944.867 178.445 945.183 178.651 945.39C178.858 945.597 179.125 945.7 179.451 945.7C179.638 945.7 179.798 945.677 179.931 945.63C180.071 945.577 180.191 945.52 180.291 945.46C180.391 945.4 180.475 945.347 180.541 945.3C180.615 945.247 180.678 945.22 180.731 945.22C180.825 945.22 180.908 945.277 180.981 945.39L181.501 946.24C181.195 946.527 180.825 946.753 180.391 946.92C179.958 947.08 179.511 947.16 179.051 947.16C178.251 947.16 177.635 946.937 177.201 946.49C176.775 946.043 176.561 945.4 176.561 944.56V938.36H175.341C175.235 938.36 175.145 938.33 175.071 938.27C174.998 938.203 174.961 938.103 174.961 937.97V937.26L176.621 937.04L177.031 933.92C177.051 933.82 177.095 933.74 177.161 933.68C177.235 933.613 177.328 933.58 177.441 933.58H178.341V937.07H185.341V947ZM185.781 933.62C185.781 933.793 185.745 933.957 185.671 934.11C185.605 934.257 185.511 934.387 185.391 934.5C185.278 934.613 185.145 934.703 184.991 934.77C184.838 934.837 184.675 934.87 184.501 934.87C184.328 934.87 184.165 934.837 184.011 934.77C183.865 934.703 183.735 934.613 183.621 934.5C183.508 934.387 183.418 934.257 183.351 934.11C183.285 933.957 183.251 933.793 183.251 933.62C183.251 933.447 183.285 933.283 183.351 933.13C183.418 932.97 183.508 932.833 183.621 932.72C183.735 932.6 183.865 932.507 184.011 932.44C184.165 932.373 184.328 932.34 184.501 932.34C184.675 932.34 184.838 932.373 184.991 932.44C185.145 932.507 185.278 932.6 185.391 932.72C185.511 932.833 185.605 932.97 185.671 933.13C185.745 933.283 185.781 933.447 185.781 933.62ZM195.315 938.67C195.262 938.743 195.209 938.8 195.155 938.84C195.102 938.88 195.029 938.9 194.935 938.9C194.835 938.9 194.725 938.86 194.605 938.78C194.485 938.693 194.335 938.6 194.155 938.5C193.982 938.4 193.765 938.31 193.505 938.23C193.252 938.143 192.939 938.1 192.565 938.1C192.065 938.1 191.625 938.19 191.245 938.37C190.865 938.543 190.545 938.797 190.285 939.13C190.032 939.463 189.839 939.867 189.705 940.34C189.579 940.813 189.515 941.343 189.515 941.93C189.515 942.543 189.585 943.09 189.725 943.57C189.865 944.043 190.062 944.443 190.315 944.77C190.575 945.09 190.885 945.337 191.245 945.51C191.612 945.677 192.022 945.76 192.475 945.76C192.909 945.76 193.265 945.71 193.545 945.61C193.825 945.503 194.055 945.387 194.235 945.26C194.422 945.133 194.575 945.02 194.695 944.92C194.822 944.813 194.945 944.76 195.065 944.76C195.212 944.76 195.325 944.817 195.405 944.93L195.905 945.58C195.685 945.853 195.435 946.087 195.155 946.28C194.875 946.473 194.572 946.637 194.245 946.77C193.925 946.897 193.589 946.99 193.235 947.05C192.882 947.11 192.522 947.14 192.155 947.14C191.522 947.14 190.932 947.023 190.385 946.79C189.845 946.557 189.375 946.22 188.975 945.78C188.575 945.333 188.262 944.787 188.035 944.14C187.809 943.493 187.695 942.757 187.695 941.93C187.695 941.177 187.799 940.48 188.005 939.84C188.219 939.2 188.525 938.65 188.925 938.19C189.332 937.723 189.829 937.36 190.415 937.1C191.009 936.84 191.689 936.71 192.455 936.71C193.169 936.71 193.795 936.827 194.335 937.06C194.882 937.287 195.365 937.61 195.785 938.03L195.315 938.67ZM203.306 942.44C202.486 942.467 201.786 942.533 201.206 942.64C200.633 942.74 200.163 942.873 199.796 943.04C199.436 943.207 199.173 943.403 199.006 943.63C198.846 943.857 198.766 944.11 198.766 944.39C198.766 944.657 198.81 944.887 198.896 945.08C198.983 945.273 199.1 945.433 199.246 945.56C199.4 945.68 199.576 945.77 199.776 945.83C199.983 945.883 200.203 945.91 200.436 945.91C200.75 945.91 201.036 945.88 201.296 945.82C201.556 945.753 201.8 945.66 202.026 945.54C202.26 945.42 202.48 945.277 202.686 945.11C202.9 944.943 203.106 944.753 203.306 944.54V942.44ZM197.556 938.3C198.116 937.76 198.72 937.357 199.366 937.09C200.013 936.823 200.73 936.69 201.516 936.69C202.083 936.69 202.586 936.783 203.026 936.97C203.466 937.157 203.836 937.417 204.136 937.75C204.436 938.083 204.663 938.487 204.816 938.96C204.97 939.433 205.046 939.953 205.046 940.52V947H204.256C204.083 947 203.95 946.973 203.856 946.92C203.763 946.86 203.69 946.747 203.636 946.58L203.436 945.62C203.17 945.867 202.91 946.087 202.656 946.28C202.403 946.467 202.136 946.627 201.856 946.76C201.576 946.887 201.276 946.983 200.956 947.05C200.643 947.123 200.293 947.16 199.906 947.16C199.513 947.16 199.143 947.107 198.796 947C198.45 946.887 198.146 946.72 197.886 946.5C197.633 946.28 197.43 946.003 197.276 945.67C197.13 945.33 197.056 944.93 197.056 944.47C197.056 944.07 197.166 943.687 197.386 943.32C197.606 942.947 197.963 942.617 198.456 942.33C198.95 942.043 199.593 941.81 200.386 941.63C201.18 941.443 202.153 941.337 203.306 941.31V940.52C203.306 939.733 203.136 939.14 202.796 938.74C202.456 938.333 201.96 938.13 201.306 938.13C200.866 938.13 200.496 938.187 200.196 938.3C199.903 938.407 199.646 938.53 199.426 938.67C199.213 938.803 199.026 938.927 198.866 939.04C198.713 939.147 198.56 939.2 198.406 939.2C198.286 939.2 198.183 939.17 198.096 939.11C198.01 939.043 197.936 938.963 197.876 938.87L197.556 938.3ZM209.598 932.27V947H207.818V932.27H209.598ZM214.324 932.27V947H212.544V932.27H214.324ZM225.951 936.87L220.301 949.99C220.241 950.123 220.164 950.23 220.071 950.31C219.984 950.39 219.847 950.43 219.661 950.43H218.341L220.191 946.41L216.011 936.87H217.551C217.704 936.87 217.824 936.91 217.911 936.99C218.004 937.063 218.067 937.147 218.101 937.24L220.811 943.62C220.917 943.9 221.007 944.193 221.081 944.5C221.174 944.187 221.274 943.89 221.381 943.61L224.011 937.24C224.051 937.133 224.117 937.047 224.211 936.98C224.311 936.907 224.421 936.87 224.541 936.87H225.951ZM234.032 936.87V947H232.252V936.87H234.032ZM234.412 933.69C234.412 933.863 234.376 934.027 234.302 934.18C234.236 934.327 234.142 934.46 234.022 934.58C233.909 934.693 233.772 934.783 233.612 934.85C233.459 934.917 233.296 934.95 233.122 934.95C232.949 934.95 232.786 934.917 232.632 934.85C232.486 934.783 232.356 934.693 232.242 934.58C232.129 934.46 232.039 934.327 231.972 934.18C231.906 934.027 231.872 933.863 231.872 933.69C231.872 933.517 231.906 933.353 231.972 933.2C232.039 933.04 232.129 932.903 232.242 932.79C232.356 932.67 232.486 932.577 232.632 932.51C232.786 932.443 232.949 932.41 233.122 932.41C233.296 932.41 233.459 932.443 233.612 932.51C233.772 932.577 233.909 932.67 234.022 932.79C234.142 932.903 234.236 933.04 234.302 933.2C234.376 933.353 234.412 933.517 234.412 933.69ZM238.637 938.34C238.857 938.093 239.09 937.87 239.337 937.67C239.584 937.47 239.844 937.3 240.117 937.16C240.397 937.013 240.69 936.903 240.997 936.83C241.31 936.75 241.647 936.71 242.007 936.71C242.56 936.71 243.047 936.803 243.467 936.99C243.894 937.17 244.247 937.43 244.527 937.77C244.814 938.103 245.03 938.507 245.177 938.98C245.324 939.453 245.397 939.977 245.397 940.55V947H243.607V940.55C243.607 939.783 243.43 939.19 243.077 938.77C242.73 938.343 242.2 938.13 241.487 938.13C240.96 938.13 240.467 938.257 240.007 938.51C239.554 938.763 239.134 939.107 238.747 939.54V947H236.957V936.87H238.027C238.28 936.87 238.437 936.993 238.497 937.24L238.637 938.34ZM261.459 936.87L255.809 949.99C255.749 950.123 255.672 950.23 255.579 950.31C255.492 950.39 255.355 950.43 255.169 950.43H253.849L255.699 946.41L251.519 936.87H253.059C253.212 936.87 253.332 936.91 253.419 936.99C253.512 937.063 253.575 937.147 253.609 937.24L256.319 943.62C256.425 943.9 256.515 944.193 256.589 944.5C256.682 944.187 256.782 943.89 256.889 943.61L259.519 937.24C259.559 937.133 259.625 937.047 259.719 936.98C259.819 936.907 259.929 936.87 260.049 936.87H261.459ZM267.028 936.71C267.768 936.71 268.434 936.833 269.028 937.08C269.621 937.327 270.128 937.677 270.548 938.13C270.968 938.583 271.288 939.133 271.508 939.78C271.734 940.42 271.848 941.137 271.848 941.93C271.848 942.73 271.734 943.45 271.508 944.09C271.288 944.73 270.968 945.277 270.548 945.73C270.128 946.183 269.621 946.533 269.028 946.78C268.434 947.02 267.768 947.14 267.028 947.14C266.281 947.14 265.608 947.02 265.008 946.78C264.414 946.533 263.908 946.183 263.488 945.73C263.068 945.277 262.744 944.73 262.518 944.09C262.298 943.45 262.188 942.73 262.188 941.93C262.188 941.137 262.298 940.42 262.518 939.78C262.744 939.133 263.068 938.583 263.488 938.13C263.908 937.677 264.414 937.327 265.008 937.08C265.608 936.833 266.281 936.71 267.028 936.71ZM267.028 945.75C268.028 945.75 268.774 945.417 269.268 944.75C269.761 944.077 270.008 943.14 270.008 941.94C270.008 940.733 269.761 939.793 269.268 939.12C268.774 938.447 268.028 938.11 267.028 938.11C266.521 938.11 266.078 938.197 265.698 938.37C265.324 938.543 265.011 938.793 264.758 939.12C264.511 939.447 264.324 939.85 264.198 940.33C264.078 940.803 264.018 941.34 264.018 941.94C264.018 943.14 264.264 944.077 264.758 944.75C265.258 945.417 266.014 945.75 267.028 945.75ZM282.435 936.87V947H281.375C281.122 947 280.962 946.877 280.895 946.63L280.755 945.54C280.315 946.027 279.822 946.42 279.275 946.72C278.729 947.013 278.102 947.16 277.395 947.16C276.842 947.16 276.352 947.07 275.925 946.89C275.505 946.703 275.152 946.443 274.865 946.11C274.579 945.777 274.362 945.373 274.215 944.9C274.075 944.427 274.005 943.903 274.005 943.33V936.87H275.785V943.33C275.785 944.097 275.959 944.69 276.305 945.11C276.659 945.53 277.195 945.74 277.915 945.74C278.442 945.74 278.932 945.617 279.385 945.37C279.845 945.117 280.269 944.77 280.655 944.33V936.87H282.435ZM286.948 938.9C287.268 938.207 287.661 937.667 288.128 937.28C288.594 936.887 289.164 936.69 289.838 936.69C290.051 936.69 290.254 936.713 290.448 936.76C290.648 936.807 290.824 936.88 290.978 936.98L290.848 938.31C290.808 938.477 290.708 938.56 290.548 938.56C290.454 938.56 290.318 938.54 290.138 938.5C289.958 938.46 289.754 938.44 289.528 938.44C289.208 938.44 288.921 938.487 288.668 938.58C288.421 938.673 288.198 938.813 287.998 939C287.804 939.18 287.628 939.407 287.468 939.68C287.314 939.947 287.174 940.253 287.048 940.6V947H285.258V936.87H286.278C286.471 936.87 286.604 936.907 286.678 936.98C286.751 937.053 286.801 937.18 286.828 937.36L286.948 938.9ZM78.77 962.25V967.26H84.66V968.84H78.77V975H76.83V960.67H85.66V962.25H78.77ZM91.7828 970.44C90.9628 970.467 90.2628 970.533 89.6828 970.64C89.1095 970.74 88.6395 970.873 88.2728 971.04C87.9128 971.207 87.6495 971.403 87.4828 971.63C87.3228 971.857 87.2428 972.11 87.2428 972.39C87.2428 972.657 87.2861 972.887 87.3728 973.08C87.4595 973.273 87.5761 973.433 87.7228 973.56C87.8761 973.68 88.0528 973.77 88.2528 973.83C88.4595 973.883 88.6795 973.91 88.9128 973.91C89.2261 973.91 89.5128 973.88 89.7728 973.82C90.0328 973.753 90.2761 973.66 90.5028 973.54C90.7361 973.42 90.9561 973.277 91.1628 973.11C91.3761 972.943 91.5828 972.753 91.7828 972.54V970.44ZM86.0328 966.3C86.5928 965.76 87.1961 965.357 87.8428 965.09C88.4895 964.823 89.2061 964.69 89.9928 964.69C90.5595 964.69 91.0628 964.783 91.5028 964.97C91.9428 965.157 92.3128 965.417 92.6128 965.75C92.9128 966.083 93.1395 966.487 93.2928 966.96C93.4461 967.433 93.5228 967.953 93.5228 968.52V975H92.7328C92.5595 975 92.4261 974.973 92.3328 974.92C92.2395 974.86 92.1661 974.747 92.1128 974.58L91.9128 973.62C91.6461 973.867 91.3861 974.087 91.1328 974.28C90.8795 974.467 90.6128 974.627 90.3328 974.76C90.0528 974.887 89.7528 974.983 89.4328 975.05C89.1195 975.123 88.7695 975.16 88.3828 975.16C87.9895 975.16 87.6195 975.107 87.2728 975C86.9261 974.887 86.6228 974.72 86.3628 974.5C86.1095 974.28 85.9061 974.003 85.7528 973.67C85.6061 973.33 85.5328 972.93 85.5328 972.47C85.5328 972.07 85.6428 971.687 85.8628 971.32C86.0828 970.947 86.4395 970.617 86.9328 970.33C87.4261 970.043 88.0695 969.81 88.8628 969.63C89.6561 969.443 90.6295 969.337 91.7828 969.31V968.52C91.7828 967.733 91.6128 967.14 91.2728 966.74C90.9328 966.333 90.4361 966.13 89.7828 966.13C89.3428 966.13 88.9728 966.187 88.6728 966.3C88.3795 966.407 88.1228 966.53 87.9028 966.67C87.6895 966.803 87.5028 966.927 87.3428 967.04C87.1895 967.147 87.0361 967.2 86.8828 967.2C86.7628 967.2 86.6595 967.17 86.5728 967.11C86.4861 967.043 86.4128 966.963 86.3528 966.87L86.0328 966.3ZM103.284 966.67C103.231 966.743 103.178 966.8 103.124 966.84C103.071 966.88 102.998 966.9 102.904 966.9C102.804 966.9 102.694 966.86 102.574 966.78C102.454 966.693 102.304 966.6 102.124 966.5C101.951 966.4 101.734 966.31 101.474 966.23C101.221 966.143 100.908 966.1 100.534 966.1C100.034 966.1 99.5942 966.19 99.2142 966.37C98.8342 966.543 98.5142 966.797 98.2542 967.13C98.0009 967.463 97.8076 967.867 97.6742 968.34C97.5476 968.813 97.4842 969.343 97.4842 969.93C97.4842 970.543 97.5542 971.09 97.6942 971.57C97.8342 972.043 98.0309 972.443 98.2842 972.77C98.5442 973.09 98.8542 973.337 99.2142 973.51C99.5809 973.677 99.9909 973.76 100.444 973.76C100.878 973.76 101.234 973.71 101.514 973.61C101.794 973.503 102.024 973.387 102.204 973.26C102.391 973.133 102.544 973.02 102.664 972.92C102.791 972.813 102.914 972.76 103.034 972.76C103.181 972.76 103.294 972.817 103.374 972.93L103.874 973.58C103.654 973.853 103.404 974.087 103.124 974.28C102.844 974.473 102.541 974.637 102.214 974.77C101.894 974.897 101.558 974.99 101.204 975.05C100.851 975.11 100.491 975.14 100.124 975.14C99.4909 975.14 98.9009 975.023 98.3542 974.79C97.8142 974.557 97.3442 974.22 96.9442 973.78C96.5442 973.333 96.2309 972.787 96.0042 972.14C95.7776 971.493 95.6642 970.757 95.6642 969.93C95.6642 969.177 95.7676 968.48 95.9742 967.84C96.1876 967.2 96.4942 966.65 96.8942 966.19C97.3009 965.723 97.7976 965.36 98.3842 965.1C98.9776 964.84 99.6576 964.71 100.424 964.71C101.138 964.71 101.764 964.827 102.304 965.06C102.851 965.287 103.334 965.61 103.754 966.03L103.284 966.67ZM112.389 968.83C112.389 968.417 112.329 968.04 112.209 967.7C112.096 967.353 111.926 967.057 111.699 966.81C111.479 966.557 111.209 966.363 110.889 966.23C110.569 966.09 110.206 966.02 109.799 966.02C108.946 966.02 108.269 966.27 107.769 966.77C107.276 967.263 106.969 967.95 106.849 968.83H112.389ZM113.829 973.58C113.609 973.847 113.346 974.08 113.039 974.28C112.733 974.473 112.403 974.633 112.049 974.76C111.703 974.887 111.343 974.98 110.969 975.04C110.596 975.107 110.226 975.14 109.859 975.14C109.159 975.14 108.513 975.023 107.919 974.79C107.333 974.55 106.823 974.203 106.389 973.75C105.963 973.29 105.629 972.723 105.389 972.05C105.149 971.377 105.029 970.603 105.029 969.73C105.029 969.023 105.136 968.363 105.349 967.75C105.569 967.137 105.883 966.607 106.289 966.16C106.696 965.707 107.193 965.353 107.779 965.1C108.366 964.84 109.026 964.71 109.759 964.71C110.366 964.71 110.926 964.813 111.439 965.02C111.959 965.22 112.406 965.513 112.779 965.9C113.159 966.28 113.456 966.753 113.669 967.32C113.883 967.88 113.989 968.52 113.989 969.24C113.989 969.52 113.959 969.707 113.899 969.8C113.839 969.893 113.726 969.94 113.559 969.94H106.789C106.809 970.58 106.896 971.137 107.049 971.61C107.209 972.083 107.429 972.48 107.709 972.8C107.989 973.113 108.323 973.35 108.709 973.51C109.096 973.663 109.529 973.74 110.009 973.74C110.456 973.74 110.839 973.69 111.159 973.59C111.486 973.483 111.766 973.37 111.999 973.25C112.233 973.13 112.426 973.02 112.579 972.92C112.739 972.813 112.876 972.76 112.989 972.76C113.136 972.76 113.249 972.817 113.329 972.93L113.829 973.58ZM117.966 972.56C118.292 973 118.649 973.31 119.036 973.49C119.429 973.67 119.859 973.76 120.326 973.76C121.279 973.76 122.009 973.423 122.516 972.75C123.022 972.077 123.276 971.073 123.276 969.74C123.276 968.5 123.049 967.59 122.596 967.01C122.149 966.423 121.509 966.13 120.676 966.13C120.096 966.13 119.589 966.263 119.156 966.53C118.729 966.797 118.332 967.173 117.966 967.66V972.56ZM117.966 966.33C118.392 965.837 118.872 965.443 119.406 965.15C119.946 964.857 120.566 964.71 121.266 964.71C121.859 964.71 122.392 964.823 122.866 965.05C123.346 965.277 123.752 965.607 124.086 966.04C124.419 966.467 124.672 966.987 124.846 967.6C125.026 968.213 125.116 968.903 125.116 969.67C125.116 970.49 125.016 971.237 124.816 971.91C124.616 972.583 124.326 973.16 123.946 973.64C123.572 974.113 123.116 974.483 122.576 974.75C122.036 975.01 121.429 975.14 120.756 975.14C120.089 975.14 119.526 975.017 119.066 974.77C118.612 974.517 118.216 974.16 117.876 973.7L117.786 974.62C117.732 974.873 117.579 975 117.326 975H116.176V960.27H117.966V966.33ZM131.637 964.71C132.377 964.71 133.044 964.833 133.637 965.08C134.23 965.327 134.737 965.677 135.157 966.13C135.577 966.583 135.897 967.133 136.117 967.78C136.344 968.42 136.457 969.137 136.457 969.93C136.457 970.73 136.344 971.45 136.117 972.09C135.897 972.73 135.577 973.277 135.157 973.73C134.737 974.183 134.23 974.533 133.637 974.78C133.044 975.02 132.377 975.14 131.637 975.14C130.89 975.14 130.217 975.02 129.617 974.78C129.024 974.533 128.517 974.183 128.097 973.73C127.677 973.277 127.354 972.73 127.127 972.09C126.907 971.45 126.797 970.73 126.797 969.93C126.797 969.137 126.907 968.42 127.127 967.78C127.354 967.133 127.677 966.583 128.097 966.13C128.517 965.677 129.024 965.327 129.617 965.08C130.217 964.833 130.89 964.71 131.637 964.71ZM131.637 973.75C132.637 973.75 133.384 973.417 133.877 972.75C134.37 972.077 134.617 971.14 134.617 969.94C134.617 968.733 134.37 967.793 133.877 967.12C133.384 966.447 132.637 966.11 131.637 966.11C131.13 966.11 130.687 966.197 130.307 966.37C129.934 966.543 129.62 966.793 129.367 967.12C129.12 967.447 128.934 967.85 128.807 968.33C128.687 968.803 128.627 969.34 128.627 969.94C128.627 971.14 128.874 972.077 129.367 972.75C129.867 973.417 130.624 973.75 131.637 973.75ZM142.985 964.71C143.725 964.71 144.391 964.833 144.985 965.08C145.578 965.327 146.085 965.677 146.505 966.13C146.925 966.583 147.245 967.133 147.465 967.78C147.691 968.42 147.805 969.137 147.805 969.93C147.805 970.73 147.691 971.45 147.465 972.09C147.245 972.73 146.925 973.277 146.505 973.73C146.085 974.183 145.578 974.533 144.985 974.78C144.391 975.02 143.725 975.14 142.985 975.14C142.238 975.14 141.565 975.02 140.965 974.78C140.371 974.533 139.865 974.183 139.445 973.73C139.025 973.277 138.701 972.73 138.475 972.09C138.255 971.45 138.145 970.73 138.145 969.93C138.145 969.137 138.255 968.42 138.475 967.78C138.701 967.133 139.025 966.583 139.445 966.13C139.865 965.677 140.371 965.327 140.965 965.08C141.565 964.833 142.238 964.71 142.985 964.71ZM142.985 973.75C143.985 973.75 144.731 973.417 145.225 972.75C145.718 972.077 145.965 971.14 145.965 969.94C145.965 968.733 145.718 967.793 145.225 967.12C144.731 966.447 143.985 966.11 142.985 966.11C142.478 966.11 142.035 966.197 141.655 966.37C141.281 966.543 140.968 966.793 140.715 967.12C140.468 967.447 140.281 967.85 140.155 968.33C140.035 968.803 139.975 969.34 139.975 969.94C139.975 971.14 140.221 972.077 140.715 972.75C141.215 973.417 141.971 973.75 142.985 973.75ZM151.852 960.27V968.94H152.312C152.446 968.94 152.556 968.923 152.642 968.89C152.736 968.85 152.832 968.773 152.932 968.66L156.132 965.23C156.226 965.117 156.322 965.03 156.422 964.97C156.529 964.903 156.669 964.87 156.842 964.87H158.452L154.722 968.84C154.542 969.067 154.349 969.243 154.142 969.37C154.262 969.45 154.369 969.543 154.462 969.65C154.562 969.75 154.656 969.867 154.742 970L158.702 975H157.112C156.959 975 156.826 974.977 156.712 974.93C156.606 974.877 156.512 974.783 156.432 974.65L153.102 970.5C153.002 970.36 152.902 970.27 152.802 970.23C152.709 970.183 152.562 970.16 152.362 970.16H151.852V975H150.062V960.27H151.852ZM172.702 969.68L170.452 963.85C170.385 963.677 170.315 963.477 170.242 963.25C170.168 963.017 170.098 962.77 170.032 962.51C169.892 963.05 169.748 963.5 169.602 963.86L167.352 969.68H172.702ZM176.742 975H175.242C175.068 975 174.928 974.957 174.822 974.87C174.715 974.783 174.635 974.673 174.582 974.54L173.242 971.08H166.812L165.472 974.54C165.432 974.66 165.355 974.767 165.242 974.86C165.128 974.953 164.988 975 164.822 975H163.322L169.052 960.67H171.012L176.742 975ZM184.592 967.28C184.259 966.833 183.899 966.523 183.512 966.35C183.125 966.17 182.692 966.08 182.212 966.08C181.272 966.08 180.549 966.417 180.042 967.09C179.535 967.763 179.282 968.723 179.282 969.97C179.282 970.63 179.339 971.197 179.452 971.67C179.565 972.137 179.732 972.523 179.952 972.83C180.172 973.13 180.442 973.35 180.762 973.49C181.082 973.63 181.445 973.7 181.852 973.7C182.439 973.7 182.949 973.567 183.382 973.3C183.822 973.033 184.225 972.657 184.592 972.17V967.28ZM186.372 960.27V975H185.312C185.059 975 184.899 974.877 184.832 974.63L184.672 973.4C184.239 973.92 183.745 974.34 183.192 974.66C182.639 974.98 181.999 975.14 181.272 975.14C180.692 975.14 180.165 975.03 179.692 974.81C179.219 974.583 178.815 974.253 178.482 973.82C178.149 973.387 177.892 972.847 177.712 972.2C177.532 971.553 177.442 970.81 177.442 969.97C177.442 969.223 177.542 968.53 177.742 967.89C177.942 967.243 178.229 966.683 178.602 966.21C178.975 965.737 179.432 965.367 179.972 965.1C180.519 964.827 181.132 964.69 181.812 964.69C182.432 964.69 182.962 964.797 183.402 965.01C183.849 965.217 184.245 965.507 184.592 965.88V960.27H186.372ZM209.631 960.67V975H207.931V964.47C207.931 964.33 207.934 964.18 207.941 964.02C207.954 963.86 207.967 963.697 207.981 963.53L203.061 972.49C202.907 972.79 202.674 972.94 202.361 972.94H202.081C201.767 972.94 201.534 972.79 201.381 972.49L196.361 963.49C196.401 963.843 196.421 964.17 196.421 964.47V975H194.721V960.67H196.151C196.324 960.67 196.457 960.687 196.551 960.72C196.644 960.753 196.734 960.847 196.821 961L201.771 969.82C201.851 969.98 201.927 970.147 202.001 970.32C202.081 970.493 202.154 970.67 202.221 970.85C202.287 970.67 202.357 970.493 202.431 970.32C202.504 970.14 202.584 969.97 202.671 969.81L207.531 961C207.611 960.847 207.697 960.753 207.791 960.72C207.891 960.687 208.027 960.67 208.201 960.67H209.631ZM218.072 970.44C217.252 970.467 216.552 970.533 215.972 970.64C215.399 970.74 214.929 970.873 214.562 971.04C214.202 971.207 213.939 971.403 213.772 971.63C213.612 971.857 213.532 972.11 213.532 972.39C213.532 972.657 213.575 972.887 213.662 973.08C213.749 973.273 213.865 973.433 214.012 973.56C214.165 973.68 214.342 973.77 214.542 973.83C214.749 973.883 214.969 973.91 215.202 973.91C215.515 973.91 215.802 973.88 216.062 973.82C216.322 973.753 216.565 973.66 216.792 973.54C217.025 973.42 217.245 973.277 217.452 973.11C217.665 972.943 217.872 972.753 218.072 972.54V970.44ZM212.322 966.3C212.882 965.76 213.485 965.357 214.132 965.09C214.779 964.823 215.495 964.69 216.282 964.69C216.849 964.69 217.352 964.783 217.792 964.97C218.232 965.157 218.602 965.417 218.902 965.75C219.202 966.083 219.429 966.487 219.582 966.96C219.735 967.433 219.812 967.953 219.812 968.52V975H219.022C218.849 975 218.715 974.973 218.622 974.92C218.529 974.86 218.455 974.747 218.402 974.58L218.202 973.62C217.935 973.867 217.675 974.087 217.422 974.28C217.169 974.467 216.902 974.627 216.622 974.76C216.342 974.887 216.042 974.983 215.722 975.05C215.409 975.123 215.059 975.16 214.672 975.16C214.279 975.16 213.909 975.107 213.562 975C213.215 974.887 212.912 974.72 212.652 974.5C212.399 974.28 212.195 974.003 212.042 973.67C211.895 973.33 211.822 972.93 211.822 972.47C211.822 972.07 211.932 971.687 212.152 971.32C212.372 970.947 212.729 970.617 213.222 970.33C213.715 970.043 214.359 969.81 215.152 969.63C215.945 969.443 216.919 969.337 218.072 969.31V968.52C218.072 967.733 217.902 967.14 217.562 966.74C217.222 966.333 216.725 966.13 216.072 966.13C215.632 966.13 215.262 966.187 214.962 966.3C214.669 966.407 214.412 966.53 214.192 966.67C213.979 966.803 213.792 966.927 213.632 967.04C213.479 967.147 213.325 967.2 213.172 967.2C213.052 967.2 212.949 967.17 212.862 967.11C212.775 967.043 212.702 966.963 212.642 966.87L212.322 966.3ZM224.203 966.34C224.423 966.093 224.657 965.87 224.903 965.67C225.15 965.47 225.41 965.3 225.683 965.16C225.963 965.013 226.257 964.903 226.563 964.83C226.877 964.75 227.213 964.71 227.573 964.71C228.127 964.71 228.613 964.803 229.033 964.99C229.46 965.17 229.813 965.43 230.093 965.77C230.38 966.103 230.597 966.507 230.743 966.98C230.89 967.453 230.963 967.977 230.963 968.55V975H229.173V968.55C229.173 967.783 228.997 967.19 228.643 966.77C228.297 966.343 227.767 966.13 227.053 966.13C226.527 966.13 226.033 966.257 225.573 966.51C225.12 966.763 224.7 967.107 224.313 967.54V975H222.523V964.87H223.593C223.847 964.87 224.003 964.993 224.063 965.24L224.203 966.34ZM239.166 970.44C238.346 970.467 237.646 970.533 237.066 970.64C236.492 970.74 236.022 970.873 235.656 971.04C235.296 971.207 235.032 971.403 234.866 971.63C234.706 971.857 234.626 972.11 234.626 972.39C234.626 972.657 234.669 972.887 234.756 973.08C234.842 973.273 234.959 973.433 235.106 973.56C235.259 973.68 235.436 973.77 235.636 973.83C235.842 973.883 236.062 973.91 236.296 973.91C236.609 973.91 236.896 973.88 237.156 973.82C237.416 973.753 237.659 973.66 237.886 973.54C238.119 973.42 238.339 973.277 238.546 973.11C238.759 972.943 238.966 972.753 239.166 972.54V970.44ZM233.416 966.3C233.976 965.76 234.579 965.357 235.226 965.09C235.872 964.823 236.589 964.69 237.376 964.69C237.942 964.69 238.446 964.783 238.886 964.97C239.326 965.157 239.696 965.417 239.996 965.75C240.296 966.083 240.522 966.487 240.676 966.96C240.829 967.433 240.906 967.953 240.906 968.52V975H240.116C239.942 975 239.809 974.973 239.716 974.92C239.622 974.86 239.549 974.747 239.496 974.58L239.296 973.62C239.029 973.867 238.769 974.087 238.516 974.28C238.262 974.467 237.996 974.627 237.716 974.76C237.436 974.887 237.136 974.983 236.816 975.05C236.502 975.123 236.152 975.16 235.766 975.16C235.372 975.16 235.002 975.107 234.656 975C234.309 974.887 234.006 974.72 233.746 974.5C233.492 974.28 233.289 974.003 233.136 973.67C232.989 973.33 232.916 972.93 232.916 972.47C232.916 972.07 233.026 971.687 233.246 971.32C233.466 970.947 233.822 970.617 234.316 970.33C234.809 970.043 235.452 969.81 236.246 969.63C237.039 969.443 238.012 969.337 239.166 969.31V968.52C239.166 967.733 238.996 967.14 238.656 966.74C238.316 966.333 237.819 966.13 237.166 966.13C236.726 966.13 236.356 966.187 236.056 966.3C235.762 966.407 235.506 966.53 235.286 966.67C235.072 966.803 234.886 966.927 234.726 967.04C234.572 967.147 234.419 967.2 234.266 967.2C234.146 967.2 234.042 967.17 233.956 967.11C233.869 967.043 233.796 966.963 233.736 966.87L233.416 966.3ZM247.147 970.05C247.507 970.05 247.824 970 248.097 969.9C248.37 969.8 248.6 969.66 248.787 969.48C248.974 969.3 249.114 969.087 249.207 968.84C249.3 968.587 249.347 968.31 249.347 968.01C249.347 967.39 249.157 966.897 248.777 966.53C248.404 966.163 247.86 965.98 247.147 965.98C246.427 965.98 245.877 966.163 245.497 966.53C245.124 966.897 244.937 967.39 244.937 968.01C244.937 968.31 244.984 968.587 245.077 968.84C245.177 969.087 245.32 969.3 245.507 969.48C245.694 969.66 245.924 969.8 246.197 969.9C246.47 970 246.787 970.05 247.147 970.05ZM250.357 975.55C250.357 975.303 250.287 975.103 250.147 974.95C250.007 974.797 249.817 974.677 249.577 974.59C249.344 974.503 249.07 974.443 248.757 974.41C248.444 974.37 248.11 974.34 247.757 974.32C247.41 974.3 247.057 974.28 246.697 974.26C246.337 974.24 245.99 974.207 245.657 974.16C245.284 974.333 244.977 974.553 244.737 974.82C244.504 975.08 244.387 975.387 244.387 975.74C244.387 975.967 244.444 976.177 244.557 976.37C244.677 976.57 244.857 976.74 245.097 976.88C245.337 977.027 245.637 977.14 245.997 977.22C246.364 977.307 246.794 977.35 247.287 977.35C247.767 977.35 248.197 977.307 248.577 977.22C248.957 977.133 249.277 977.01 249.537 976.85C249.804 976.69 250.007 976.5 250.147 976.28C250.287 976.06 250.357 975.817 250.357 975.55ZM252.167 965.27V965.93C252.167 966.15 252.027 966.29 251.747 966.35L250.597 966.5C250.824 966.94 250.937 967.427 250.937 967.96C250.937 968.453 250.84 968.903 250.647 969.31C250.46 969.71 250.2 970.053 249.867 970.34C249.534 970.627 249.134 970.847 248.667 971C248.2 971.153 247.694 971.23 247.147 971.23C246.674 971.23 246.227 971.173 245.807 971.06C245.594 971.193 245.43 971.337 245.317 971.49C245.204 971.637 245.147 971.787 245.147 971.94C245.147 972.18 245.244 972.363 245.437 972.49C245.637 972.61 245.897 972.697 246.217 972.75C246.537 972.803 246.9 972.837 247.307 972.85C247.72 972.863 248.14 972.887 248.567 972.92C249 972.947 249.42 972.997 249.827 973.07C250.24 973.143 250.607 973.263 250.927 973.43C251.247 973.597 251.504 973.827 251.697 974.12C251.897 974.413 251.997 974.793 251.997 975.26C251.997 975.693 251.887 976.113 251.667 976.52C251.454 976.927 251.144 977.287 250.737 977.6C250.33 977.92 249.83 978.173 249.237 978.36C248.65 978.553 247.987 978.65 247.247 978.65C246.507 978.65 245.86 978.577 245.307 978.43C244.754 978.283 244.294 978.087 243.927 977.84C243.56 977.593 243.284 977.307 243.097 976.98C242.917 976.66 242.827 976.323 242.827 975.97C242.827 975.47 242.984 975.047 243.297 974.7C243.61 974.353 244.04 974.077 244.587 973.87C244.287 973.737 244.047 973.56 243.867 973.34C243.694 973.113 243.607 972.81 243.607 972.43C243.607 972.283 243.634 972.133 243.687 971.98C243.74 971.82 243.82 971.663 243.927 971.51C244.04 971.35 244.177 971.2 244.337 971.06C244.497 970.92 244.684 970.797 244.897 970.69C244.397 970.41 244.007 970.04 243.727 969.58C243.447 969.113 243.307 968.573 243.307 967.96C243.307 967.467 243.4 967.02 243.587 966.62C243.78 966.213 244.047 965.87 244.387 965.59C244.727 965.303 245.13 965.083 245.597 964.93C246.07 964.777 246.587 964.7 247.147 964.7C247.587 964.7 247.997 964.75 248.377 964.85C248.757 964.943 249.104 965.083 249.417 965.27H252.167ZM260.631 968.83C260.631 968.417 260.571 968.04 260.451 967.7C260.338 967.353 260.168 967.057 259.941 966.81C259.721 966.557 259.451 966.363 259.131 966.23C258.811 966.09 258.448 966.02 258.041 966.02C257.188 966.02 256.511 966.27 256.011 966.77C255.518 967.263 255.211 967.95 255.091 968.83H260.631ZM262.071 973.58C261.851 973.847 261.588 974.08 261.281 974.28C260.975 974.473 260.645 974.633 260.291 974.76C259.945 974.887 259.585 974.98 259.211 975.04C258.838 975.107 258.468 975.14 258.101 975.14C257.401 975.14 256.755 975.023 256.161 974.79C255.575 974.55 255.065 974.203 254.631 973.75C254.205 973.29 253.871 972.723 253.631 972.05C253.391 971.377 253.271 970.603 253.271 969.73C253.271 969.023 253.378 968.363 253.591 967.75C253.811 967.137 254.125 966.607 254.531 966.16C254.938 965.707 255.435 965.353 256.021 965.1C256.608 964.84 257.268 964.71 258.001 964.71C258.608 964.71 259.168 964.813 259.681 965.02C260.201 965.22 260.648 965.513 261.021 965.9C261.401 966.28 261.698 966.753 261.911 967.32C262.125 967.88 262.231 968.52 262.231 969.24C262.231 969.52 262.201 969.707 262.141 969.8C262.081 969.893 261.968 969.94 261.801 969.94H255.031C255.051 970.58 255.138 971.137 255.291 971.61C255.451 972.083 255.671 972.48 255.951 972.8C256.231 973.113 256.565 973.35 256.951 973.51C257.338 973.663 257.771 973.74 258.251 973.74C258.698 973.74 259.081 973.69 259.401 973.59C259.728 973.483 260.008 973.37 260.241 973.25C260.475 973.13 260.668 973.02 260.821 972.92C260.981 972.813 261.118 972.76 261.231 972.76C261.378 972.76 261.491 972.817 261.571 972.93L262.071 973.58ZM266.108 966.9C266.428 966.207 266.821 965.667 267.288 965.28C267.754 964.887 268.324 964.69 268.998 964.69C269.211 964.69 269.414 964.713 269.608 964.76C269.808 964.807 269.984 964.88 270.138 964.98L270.008 966.31C269.968 966.477 269.868 966.56 269.708 966.56C269.614 966.56 269.478 966.54 269.298 966.5C269.118 966.46 268.914 966.44 268.688 966.44C268.368 966.44 268.081 966.487 267.828 966.58C267.581 966.673 267.358 966.813 267.158 967C266.964 967.18 266.788 967.407 266.628 967.68C266.474 967.947 266.334 968.253 266.208 968.6V975H264.418V964.87H265.438C265.631 964.87 265.764 964.907 265.838 964.98C265.911 965.053 265.961 965.18 265.988 965.36L266.108 966.9ZM270.622 973.9C270.622 973.727 270.652 973.563 270.712 973.41C270.778 973.257 270.865 973.123 270.972 973.01C271.085 972.897 271.218 972.807 271.372 972.74C271.525 972.673 271.688 972.64 271.862 972.64C272.035 972.64 272.198 972.673 272.352 972.74C272.505 972.807 272.638 972.897 272.752 973.01C272.865 973.123 272.955 973.257 273.022 973.41C273.088 973.563 273.122 973.727 273.122 973.9C273.122 974.08 273.088 974.247 273.022 974.4C272.955 974.547 272.865 974.677 272.752 974.79C272.638 974.903 272.505 974.99 272.352 975.05C272.198 975.117 272.035 975.15 271.862 975.15C271.688 975.15 271.525 975.117 271.372 975.05C271.218 974.99 271.085 974.903 270.972 974.79C270.865 974.677 270.778 974.547 270.712 974.4C270.652 974.247 270.622 974.08 270.622 973.9Z" fill="black"/>
</svg>
